<svg width="186" height="186" viewBox="0 0 186 186" fill="none" xmlns="http://www.w3.org/2000/svg">
<circle cx="92.5988" cy="92.5988" r="91.5988" fill="#C7EEFF"/>
<circle cx="91.5988" cy="92.5988" r="88.5455" stroke="white" stroke-width="6.10659" stroke-dasharray="2.44 2.44"/>
<circle cx="106.728" cy="81.4335" r="1.83198" fill="#C7EEFF"/>
<circle cx="131.34" cy="81.4335" r="1.83198" fill="#C7EEFF"/>
<path d="M47.3312 76.9789C48.3856 76.9789 49.4163 76.6663 50.293 76.0806C51.1697 75.495 51.853 74.6626 52.2565 73.6887C52.66 72.7148 52.7656 71.6432 52.5599 70.6093C52.3542 69.5754 51.8465 68.6257 51.1009 67.8803C50.3553 67.1349 49.4054 66.6273 48.3712 66.4217C47.3371 66.216 46.2652 66.3216 45.291 66.725C44.3169 67.1284 43.4843 67.8115 42.8985 68.688C42.3127 69.5645 42 70.5949 42 71.6491C42 73.0626 42.5617 74.4183 43.5615 75.4178C44.5613 76.4173 45.9173 76.9789 47.3312 76.9789ZM68.6559 76.9789H105.974C110.216 76.9789 114.284 75.2943 117.283 72.2957C120.283 69.2971 121.968 65.2301 121.968 60.9894C121.968 56.7488 120.283 52.6818 117.283 49.6832C114.284 46.6846 110.216 45 105.974 45C103.17 45.0116 100.415 45.7459 97.9773 47.1319C97.3665 47.4801 96.8305 47.9457 96.4004 48.5019C95.9702 49.058 95.6544 49.6937 95.471 50.3724C95.2877 51.0511 95.2405 51.7594 95.3321 52.4564C95.4237 53.1534 95.6523 53.8255 96.0048 54.4338C96.3575 55.0401 96.8265 55.5708 97.3848 55.9955C97.9431 56.4202 98.5797 56.7306 99.2583 56.9089C99.9368 57.0871 100.644 57.1297 101.339 57.0343C102.034 56.9388 102.703 56.7071 103.309 56.3525C104.129 55.9113 105.043 55.6737 105.974 55.6596C107.388 55.6596 108.744 56.2212 109.744 57.2207C110.744 58.2202 111.305 59.5759 111.305 60.9894C111.305 62.403 110.744 63.7586 109.744 64.7582C108.744 65.7577 107.388 66.3193 105.974 66.3193H68.6559C67.242 66.3193 65.886 66.8808 64.8862 67.8803C63.8864 68.8799 63.3247 70.2355 63.3247 71.6491C63.3247 73.0626 63.8864 74.4183 64.8862 75.4178C65.886 76.4173 67.242 76.9789 68.6559 76.9789ZM47.3312 98.2981H84.6494C86.0633 98.2981 87.4193 97.7366 88.4191 96.7371C89.4189 95.7375 89.9806 94.3819 89.9806 92.9683C89.9806 91.5548 89.4189 90.1991 88.4191 89.1996C87.4193 88.2 86.0633 87.6385 84.6494 87.6385H47.3312C45.9173 87.6385 44.5613 88.2 43.5615 89.1996C42.5617 90.1991 42 91.5548 42 92.9683C42 94.3819 42.5617 95.7375 43.5615 96.7371C44.5613 97.7366 45.9173 98.2981 47.3312 98.2981ZM137.961 76.9789C139.016 76.9789 140.046 76.6663 140.923 76.0806C141.8 75.495 142.483 74.6626 142.887 73.6887C143.29 72.7148 143.396 71.6432 143.19 70.6093C142.984 69.5754 142.476 68.6257 141.731 67.8803C140.985 67.1349 140.035 66.6273 139.001 66.4217C137.967 66.216 136.895 66.3216 135.921 66.725C134.947 67.1284 134.114 67.8115 133.528 68.688C132.943 69.5645 132.63 70.5949 132.63 71.6491C132.63 73.0626 133.192 74.4183 134.191 75.4178C135.191 76.4173 136.547 76.9789 137.961 76.9789ZM127.299 87.6385H105.974C104.56 87.6385 103.204 88.2 102.204 89.1996C101.205 90.1991 100.643 91.5548 100.643 92.9683C100.643 94.3819 101.205 95.7375 102.204 96.7371C103.204 97.7366 104.56 98.2981 105.974 98.2981H127.299C128.713 98.2981 130.069 98.8597 131.069 99.8592C132.068 100.859 132.63 102.214 132.63 103.628C132.63 105.041 132.068 106.397 131.069 107.397C130.069 108.396 128.713 108.958 127.299 108.958C125.885 108.958 124.529 109.519 123.529 110.519C122.529 111.518 121.968 112.874 121.968 114.288C121.968 115.701 122.529 117.057 123.529 118.056C124.529 119.056 125.885 119.617 127.299 119.617C131.541 119.617 135.609 117.933 138.608 114.934C141.607 111.936 143.292 107.869 143.292 103.628C143.292 99.3873 141.607 95.3203 138.608 92.3217C135.609 89.3231 131.541 87.6385 127.299 87.6385ZM95.3117 108.958H73.987C72.5731 108.958 71.2171 109.519 70.2173 110.519C69.2176 111.518 68.6559 112.874 68.6559 114.288C68.6559 115.701 69.2176 117.057 70.2173 118.056C71.2171 119.056 72.5731 119.617 73.987 119.617H95.3117C96.7257 119.617 98.0817 120.179 99.0815 121.178C100.081 122.178 100.643 123.534 100.643 124.947C100.643 126.361 100.081 127.716 99.0815 128.716C98.0817 129.715 96.7257 130.277 95.3117 130.277C94.3805 130.263 93.4663 130.025 92.6462 129.584C92.0394 129.198 91.3608 128.94 90.6514 128.823C89.9419 128.706 89.2161 128.734 88.5178 128.905C87.8194 129.076 87.1629 129.387 86.5876 129.818C86.0124 130.249 85.5304 130.792 85.1706 131.415C84.8107 132.037 84.5805 132.726 84.4938 133.439C84.4071 134.153 84.4657 134.877 84.666 135.567C84.8664 136.257 85.2043 136.9 85.6596 137.457C86.1148 138.013 86.6779 138.472 87.315 138.805C89.7529 140.191 92.5072 140.925 95.3117 140.937C99.5535 140.937 103.622 139.252 106.621 136.253C109.62 133.255 111.305 129.188 111.305 124.947C111.305 120.707 109.62 116.64 106.621 113.641C103.622 110.642 99.5535 108.958 95.3117 108.958ZM52.6623 108.958H47.3312C45.9173 108.958 44.5613 109.519 43.5615 110.519C42.5617 111.518 42 112.874 42 114.288C42 115.701 42.5617 117.057 43.5615 118.056C44.5613 119.056 45.9173 119.617 47.3312 119.617H52.6623C54.0763 119.617 55.4323 119.056 56.4321 118.056C57.4318 117.057 57.9935 115.701 57.9935 114.288C57.9935 112.874 57.4318 111.518 56.4321 110.519C55.4323 109.519 54.0763 108.958 52.6623 108.958Z" fill="#0089C7"/>
<circle cx="48.4812" cy="71.6608" r="6.48116" fill="#65CFFF"/>
<circle cx="138.518" cy="71.6608" r="6.48116" fill="#65CFFF"/>
<rect x="42" y="108.883" width="19.4823" height="10.8666" rx="5.4333" fill="#65CFFF"/>
</svg>
