<svg width="60" height="60" viewBox="0 0 60 60" fill="none" xmlns="http://www.w3.org/2000/svg">
<path d="M41.8549 27.373H38.5651C37.9539 27.373 37.4126 27.7679 37.226 28.35L34.1604 37.9131C33.8695 38.8207 34.5465 39.7486 35.4996 39.7486H37.1786C37.7153 39.7486 38.1424 40.1983 38.1148 40.7343L37.595 50.8297C37.5821 51.0817 37.9217 51.1734 38.0374 50.9493L45.25 36.9755C45.7331 36.0395 45.0536 34.9243 44.0003 34.9243H42.5964C41.957 34.9243 41.5052 34.2983 41.7066 33.6915L43.1896 29.2222C43.4916 28.3119 42.8139 27.373 41.8549 27.373Z" fill="#FFD400"/>
<path d="M46.022 38.8646L46.9878 36.9936C47.8415 35.3395 46.6408 33.3685 44.7794 33.3685H43.4499L44.8712 29.0852C45.405 27.4766 44.2073 25.8173 42.5125 25.8173H38.2196C37.1393 25.8173 36.1828 26.5152 35.853 27.5439L32.4833 38.0556C32.3963 38.3269 32.3583 38.5993 32.3633 38.8646L15.5547 38.8646C9.03516 38.8646 3.75 33.5795 3.75 27.0599C3.75 20.5403 9.03516 15.2552 15.5547 15.2552C16.9684 15.2552 18.324 15.5037 19.5803 15.9593C22.0589 9.89664 28.0158 5.625 34.9704 5.625C44.1493 5.625 51.5902 13.0659 51.5902 22.2448C51.5902 22.6492 51.5758 23.0502 51.5474 23.4473C54.3231 24.7254 56.25 27.5315 56.25 30.7877C56.25 35.2485 52.6338 38.8646 48.1731 38.8646H46.022Z" fill="#D6DBE2"/>
<path d="M32.0778 51.5467L30.4657 48.1857L28.8534 51.5472C28.6934 51.8273 28.6018 52.1529 28.6018 52.5002C28.6018 53.5487 29.4363 54.3987 30.4657 54.3987C31.4951 54.3987 32.3296 53.5487 32.3296 52.5002C32.3296 52.1527 32.2379 51.8269 32.0778 51.5467Z" fill="#B3E7FF"/>
<path d="M26.4864 45.3342L24.874 41.9727L23.2619 45.3338C23.1018 45.614 23.0101 45.9397 23.0101 46.2872C23.0101 47.3357 23.8446 48.1857 24.874 48.1857C25.9034 48.1857 26.7379 47.3357 26.7379 46.2872C26.7379 45.9399 26.6463 45.6143 26.4864 45.3342Z" fill="#B3E7FF"/>
<path d="M20.8946 51.547L19.2823 48.1857L17.6701 51.5469C17.5101 51.827 17.4184 52.1527 17.4184 52.5002C17.4184 53.5487 18.2529 54.3987 19.2823 54.3987C20.3117 54.3987 21.1462 53.5487 21.1462 52.5002C21.1462 52.1528 21.0546 51.8272 20.8946 51.547Z" fill="#B3E7FF"/>
<path d="M15.3028 45.3339L13.6906 41.9727L12.0783 45.3341C11.9183 45.6142 11.8267 45.9398 11.8267 46.2872C11.8267 47.3357 12.6612 48.1857 13.6906 48.1857C14.72 48.1857 15.5545 47.3357 15.5545 46.2872C15.5545 45.9398 15.4628 45.6141 15.3028 45.3339Z" fill="#B3E7FF"/>
</svg>
