<svg width="319" height="83" viewBox="0 0 319 83" fill="none" xmlns="http://www.w3.org/2000/svg">
<rect x="1" y="1" width="317" height="81" rx="31.9245" fill="#006EA0"/>
<rect x="1" y="1" width="317" height="81" rx="31.9245" stroke="#8CDBFF" stroke-width="2"/>
<path d="M67.5771 32.652V35.94H60.7131V39.492H65.8491V42.684H60.7131V49.5H56.6091V32.652H67.5771ZM75.8301 49.692C74.5181 49.692 73.3341 49.412 72.2781 48.852C71.2381 48.292 70.4141 47.492 69.8061 46.452C69.2141 45.412 68.9181 44.196 68.9181 42.804C68.9181 41.428 69.2221 40.22 69.8301 39.18C70.4381 38.124 71.2701 37.316 72.3261 36.756C73.3821 36.196 74.5661 35.916 75.8781 35.916C77.1901 35.916 78.3741 36.196 79.4301 36.756C80.4861 37.316 81.3181 38.124 81.9261 39.18C82.5341 40.22 82.8381 41.428 82.8381 42.804C82.8381 44.18 82.5261 45.396 81.9021 46.452C81.2941 47.492 80.4541 48.292 79.3821 48.852C78.3261 49.412 77.1421 49.692 75.8301 49.692ZM75.8301 46.14C76.6141 46.14 77.2781 45.852 77.8221 45.276C78.3821 44.7 78.6621 43.876 78.6621 42.804C78.6621 41.732 78.3901 40.908 77.8461 40.332C77.3181 39.756 76.6621 39.468 75.8781 39.468C75.0781 39.468 74.4141 39.756 73.8861 40.332C73.3581 40.892 73.0941 41.716 73.0941 42.804C73.0941 43.876 73.3501 44.7 73.8621 45.276C74.3901 45.852 75.0461 46.14 75.8301 46.14ZM92.4793 46.02V49.5H90.3913C88.9033 49.5 87.7433 49.14 86.9113 48.42C86.0793 47.684 85.6633 46.492 85.6633 44.844V39.516H84.0313V36.108H85.6633V32.844H89.7673V36.108H92.4553V39.516H89.7673V44.892C89.7673 45.292 89.8633 45.58 90.0553 45.756C90.2473 45.932 90.5673 46.02 91.0153 46.02H92.4793ZM100.861 49.692C99.5493 49.692 98.3653 49.412 97.3093 48.852C96.2693 48.292 95.4453 47.492 94.8373 46.452C94.2453 45.412 93.9493 44.196 93.9493 42.804C93.9493 41.428 94.2533 40.22 94.8613 39.18C95.4693 38.124 96.3013 37.316 97.3573 36.756C98.4133 36.196 99.5973 35.916 100.909 35.916C102.221 35.916 103.405 36.196 104.461 36.756C105.517 37.316 106.349 38.124 106.957 39.18C107.565 40.22 107.869 41.428 107.869 42.804C107.869 44.18 107.557 45.396 106.933 46.452C106.325 47.492 105.485 48.292 104.413 48.852C103.357 49.412 102.173 49.692 100.861 49.692ZM100.861 46.14C101.645 46.14 102.309 45.852 102.853 45.276C103.413 44.7 103.693 43.876 103.693 42.804C103.693 41.732 103.421 40.908 102.877 40.332C102.349 39.756 101.693 39.468 100.909 39.468C100.109 39.468 99.4453 39.756 98.9173 40.332C98.3893 40.892 98.1253 41.716 98.1253 42.804C98.1253 43.876 98.3813 44.7 98.8933 45.276C99.4213 45.852 100.077 46.14 100.861 46.14ZM111.967 49.692C111.247 49.692 110.655 49.484 110.191 49.068C109.743 48.636 109.519 48.108 109.519 47.484C109.519 46.844 109.743 46.308 110.191 45.876C110.655 45.444 111.247 45.228 111.967 45.228C112.671 45.228 113.247 45.444 113.695 45.876C114.159 46.308 114.391 46.844 114.391 47.484C114.391 48.108 114.159 48.636 113.695 49.068C113.247 49.484 112.671 49.692 111.967 49.692Z" fill="white"/>
<path d="M134.746 38.076C134.746 39.052 134.522 39.948 134.074 40.764C133.626 41.564 132.938 42.212 132.01 42.708C131.082 43.204 129.93 43.452 128.554 43.452H126.01V49.5H121.906V32.652H128.554C129.898 32.652 131.034 32.884 131.962 33.348C132.89 33.812 133.586 34.452 134.05 35.268C134.514 36.084 134.746 37.02 134.746 38.076ZM128.242 40.188C129.026 40.188 129.61 40.004 129.994 39.636C130.378 39.268 130.57 38.748 130.57 38.076C130.57 37.404 130.378 36.884 129.994 36.516C129.61 36.148 129.026 35.964 128.242 35.964H126.01V40.188H128.242ZM145.115 35.964C146.651 35.964 147.883 36.476 148.811 37.5C149.739 38.508 150.203 39.9 150.203 41.676V49.5H146.123V42.228C146.123 41.332 145.891 40.636 145.427 40.14C144.963 39.644 144.339 39.396 143.555 39.396C142.771 39.396 142.147 39.644 141.683 40.14C141.219 40.636 140.987 41.332 140.987 42.228V49.5H136.883V31.74H140.987V37.908C141.403 37.316 141.971 36.844 142.691 36.492C143.411 36.14 144.219 35.964 145.115 35.964ZM159.15 49.692C157.838 49.692 156.654 49.412 155.598 48.852C154.558 48.292 153.734 47.492 153.126 46.452C152.534 45.412 152.238 44.196 152.238 42.804C152.238 41.428 152.542 40.22 153.15 39.18C153.758 38.124 154.59 37.316 155.646 36.756C156.702 36.196 157.886 35.916 159.198 35.916C160.51 35.916 161.694 36.196 162.75 36.756C163.806 37.316 164.638 38.124 165.246 39.18C165.854 40.22 166.158 41.428 166.158 42.804C166.158 44.18 165.846 45.396 165.222 46.452C164.614 47.492 163.774 48.292 162.702 48.852C161.646 49.412 160.462 49.692 159.15 49.692ZM159.15 46.14C159.934 46.14 160.598 45.852 161.142 45.276C161.702 44.7 161.982 43.876 161.982 42.804C161.982 41.732 161.71 40.908 161.166 40.332C160.638 39.756 159.982 39.468 159.198 39.468C158.398 39.468 157.734 39.756 157.206 40.332C156.678 40.892 156.414 41.716 156.414 42.804C156.414 43.876 156.67 44.7 157.182 45.276C157.71 45.852 158.366 46.14 159.15 46.14ZM175.8 46.02V49.5H173.712C172.224 49.5 171.064 49.14 170.232 48.42C169.4 47.684 168.984 46.492 168.984 44.844V39.516H167.352V36.108H168.984V32.844H173.088V36.108H175.776V39.516H173.088V44.892C173.088 45.292 173.184 45.58 173.376 45.756C173.568 45.932 173.888 46.02 174.336 46.02H175.8ZM184.182 49.692C182.87 49.692 181.686 49.412 180.63 48.852C179.59 48.292 178.766 47.492 178.158 46.452C177.566 45.412 177.27 44.196 177.27 42.804C177.27 41.428 177.574 40.22 178.182 39.18C178.79 38.124 179.622 37.316 180.678 36.756C181.734 36.196 182.918 35.916 184.23 35.916C185.542 35.916 186.726 36.196 187.782 36.756C188.838 37.316 189.67 38.124 190.278 39.18C190.886 40.22 191.19 41.428 191.19 42.804C191.19 44.18 190.878 45.396 190.254 46.452C189.646 47.492 188.806 48.292 187.734 48.852C186.678 49.412 185.494 49.692 184.182 49.692ZM184.182 46.14C184.966 46.14 185.63 45.852 186.174 45.276C186.734 44.7 187.014 43.876 187.014 42.804C187.014 41.732 186.742 40.908 186.198 40.332C185.67 39.756 185.014 39.468 184.23 39.468C183.43 39.468 182.766 39.756 182.238 40.332C181.71 40.892 181.446 41.716 181.446 42.804C181.446 43.876 181.702 44.7 182.214 45.276C182.742 45.852 183.398 46.14 184.182 46.14Z" fill="#EBC714"/>
<path d="M225.059 56.0008H247.459V54.4608C247.459 52.3608 246.432 50.6924 244.379 49.4558C242.326 48.2191 239.619 47.6008 236.259 47.6008C232.899 47.6008 230.192 48.2191 228.139 49.4558C226.086 50.6924 225.059 52.3608 225.059 54.4608V56.0008ZM236.259 44.8008C237.799 44.8008 239.117 44.2524 240.214 43.1558C241.311 42.0591 241.859 40.7408 241.859 39.2008C241.859 37.6608 241.311 36.3424 240.214 35.2458C239.117 34.1491 237.799 33.6008 236.259 33.6008C234.719 33.6008 233.401 34.1491 232.304 35.2458C231.207 36.3424 230.659 37.6608 230.659 39.2008C230.659 40.7408 231.207 42.0591 232.304 43.1558C233.401 44.2524 234.719 44.8008 236.259 44.8008ZM213.859 67.2008C212.319 67.2008 211.001 66.6524 209.904 65.5558C208.807 64.4591 208.259 63.1408 208.259 61.6008V28.0008C208.259 26.4608 208.807 25.1424 209.904 24.0458C211.001 22.9491 212.319 22.4008 213.859 22.4008H222.679L227.859 16.8008H244.659L249.839 22.4008H258.659C260.199 22.4008 261.517 22.9491 262.614 24.0458C263.711 25.1424 264.259 26.4608 264.259 28.0008V61.6008C264.259 63.1408 263.711 64.4591 262.614 65.5558C261.517 66.6524 260.199 67.2008 258.659 67.2008H213.859ZM213.859 61.6008H258.659V28.0008H247.319L242.209 22.4008H230.309L225.199 28.0008H213.859V61.6008Z" fill="#DBF4FF"/>
</svg>
