<svg width="607" height="600" viewBox="0 0 607 600" fill="none" xmlns="http://www.w3.org/2000/svg">
<rect x="12.4523" y="12.2336" width="581.543" height="575.533" rx="287.489" fill="#006EA0"/>
<rect x="12.4523" y="12.2336" width="581.543" height="575.533" rx="287.489" stroke="#8CDBFF" stroke-width="24.4671"/>
<path d="M283.552 301.431L270.744 288.624L280.807 278.56H239.18V260.264H280.807L270.744 250.201L283.552 237.393L315.573 269.412L283.552 301.431ZM239.18 251.115V132.187C239.18 127.156 240.971 122.848 244.555 119.265C248.138 115.682 252.446 113.891 257.478 113.891H348.967C353.999 113.891 358.307 115.682 361.89 119.265C365.473 122.848 367.265 127.156 367.265 132.187V251.115H348.967V236.936C342.868 232.514 335.968 229.198 328.268 226.987C320.567 224.776 312.219 223.67 303.222 223.67C294.226 223.67 285.877 224.776 278.177 226.987C270.477 229.198 263.577 232.514 257.478 236.936V251.115H239.18ZM257.478 215.894C264.797 212.388 272.307 209.757 280.007 208.004C287.707 206.251 295.446 205.374 303.222 205.374C310.999 205.374 318.738 206.251 326.438 208.004C334.138 209.757 341.648 212.388 348.967 215.894V132.187H257.478V215.894ZM321.52 278.56V260.264H367.265V278.56H321.52ZM303.222 196.225C295.598 196.225 289.118 193.557 283.781 188.221C278.444 182.884 275.776 176.404 275.776 168.781C275.776 161.157 278.444 154.677 283.781 149.34C289.118 144.004 295.598 141.336 303.222 141.336C310.847 141.336 317.327 144.004 322.664 149.34C328.001 154.677 330.669 161.157 330.669 168.781C330.669 176.404 328.001 182.884 322.664 188.221C317.327 193.557 310.847 196.225 303.222 196.225ZM303.222 177.929C305.815 177.929 307.987 177.052 309.741 175.299C311.495 173.545 312.371 171.373 312.371 168.781C312.371 166.189 311.495 164.016 309.741 162.262C307.987 160.509 305.815 159.632 303.222 159.632C300.63 159.632 298.457 160.509 296.704 162.262C294.95 164.016 294.073 166.189 294.073 168.781C294.073 171.373 294.95 173.545 296.704 175.299C298.457 177.052 300.63 177.929 303.222 177.929Z" fill="#DBF4FF"/>
<path d="M207.719 380.569C203.606 380.569 199.92 379.901 196.661 378.565C193.402 377.23 190.785 375.253 188.808 372.636C186.885 370.018 185.87 366.866 185.763 363.18H200.347C200.561 365.263 201.282 366.866 202.511 367.988C203.74 369.056 205.342 369.59 207.319 369.59C209.349 369.59 210.952 369.136 212.127 368.228C213.302 367.267 213.89 365.958 213.89 364.302C213.89 362.913 213.409 361.764 212.447 360.856C211.539 359.948 210.391 359.2 209.002 358.612C207.666 358.025 205.743 357.357 203.232 356.609C199.599 355.487 196.634 354.365 194.337 353.243C192.04 352.121 190.063 350.465 188.407 348.275C186.751 346.085 185.923 343.227 185.923 339.701C185.923 334.465 187.82 330.378 191.613 327.44C195.406 324.449 200.347 322.953 206.437 322.953C212.634 322.953 217.629 324.449 221.422 327.44C225.215 330.378 227.245 334.492 227.512 339.781H212.688C212.581 337.964 211.913 336.549 210.684 335.534C209.456 334.465 207.88 333.931 205.957 333.931C204.3 333.931 202.965 334.385 201.95 335.293C200.935 336.148 200.427 337.403 200.427 339.06C200.427 340.876 201.282 342.292 202.992 343.307C204.701 344.322 207.372 345.417 211.005 346.592C214.638 347.821 217.576 348.996 219.82 350.118C222.117 351.24 224.093 352.869 225.75 355.006C227.406 357.143 228.234 359.894 228.234 363.26C228.234 366.465 227.406 369.377 225.75 371.994C224.147 374.612 221.796 376.696 218.698 378.245C215.599 379.794 211.94 380.569 207.719 380.569ZM250.369 334.732V346.111H268.72V356.689H250.369V369.03H271.124V380.008H236.666V323.754H271.124V334.732H250.369ZM293.723 369.43H311.673V380.008H280.02V323.754H293.723V369.43ZM354.83 323.754V334.732H331.911V346.592H349.06V357.25H331.911V380.008H318.209V323.754H354.83ZM375.734 323.754V380.008H362.032V323.754H375.734ZM399.368 334.732V346.111H417.718V356.689H399.368V369.03H420.122V380.008H385.665V323.754H420.122V334.732H399.368Z" fill="#DBF4FF"/>
<path d="M249.471 412.425V415.713H245.007V429.273H240.903V415.713H236.439V412.425H249.471ZM259.499 429.441C257.915 429.441 256.459 429.073 255.131 428.337C253.819 427.601 252.771 426.577 251.987 425.265C251.219 423.937 250.835 422.449 250.835 420.801C250.835 419.153 251.219 417.673 251.987 416.361C252.771 415.049 253.819 414.025 255.131 413.289C256.459 412.553 257.915 412.185 259.499 412.185C261.083 412.185 262.531 412.553 263.843 413.289C265.171 414.025 266.211 415.049 266.963 416.361C267.731 417.673 268.115 419.153 268.115 420.801C268.115 422.449 267.731 423.937 266.963 425.265C266.195 426.577 265.155 427.601 263.843 428.337C262.531 429.073 261.083 429.441 259.499 429.441ZM259.499 425.697C260.843 425.697 261.915 425.249 262.715 424.353C263.531 423.457 263.939 422.273 263.939 420.801C263.939 419.313 263.531 418.129 262.715 417.249C261.915 416.353 260.843 415.905 259.499 415.905C258.139 415.905 257.051 416.345 256.235 417.225C255.435 418.105 255.035 419.297 255.035 420.801C255.035 422.289 255.435 423.481 256.235 424.377C257.051 425.257 258.139 425.697 259.499 425.697ZM269.702 420.825C269.702 419.161 270.062 417.681 270.782 416.385C271.502 415.073 272.502 414.057 273.782 413.337C275.078 412.601 276.542 412.233 278.174 412.233C280.174 412.233 281.886 412.761 283.31 413.817C284.734 414.873 285.686 416.313 286.166 418.137H281.654C281.318 417.433 280.838 416.897 280.214 416.529C279.606 416.161 278.91 415.977 278.126 415.977C276.862 415.977 275.838 416.417 275.054 417.297C274.27 418.177 273.878 419.353 273.878 420.825C273.878 422.297 274.27 423.473 275.054 424.353C275.838 425.233 276.862 425.673 278.126 425.673C278.91 425.673 279.606 425.489 280.214 425.121C280.838 424.753 281.318 424.217 281.654 423.513H286.166C285.686 425.337 284.734 426.777 283.31 427.833C281.886 428.873 280.174 429.393 278.174 429.393C276.542 429.393 275.078 429.033 273.782 428.313C272.502 427.577 271.502 426.561 270.782 425.265C270.062 423.969 269.702 422.489 269.702 420.825ZM299.167 426.297H292.879L291.871 429.273H287.575L293.671 412.425H298.423L304.519 429.273H300.175L299.167 426.297ZM298.111 423.129L296.023 416.961L293.959 423.129H298.111ZM321.949 426.297H315.661L314.653 429.273H310.357L316.453 412.425H321.205L327.301 429.273H322.957L321.949 426.297ZM320.893 423.129L318.805 416.961L316.741 423.129H320.893ZM341.156 432.153L338.996 429.249C338.356 429.377 337.732 429.441 337.124 429.441C335.54 429.441 334.084 429.073 332.756 428.337C331.444 427.601 330.396 426.577 329.612 425.265C328.844 423.937 328.46 422.449 328.46 420.801C328.46 419.153 328.844 417.673 329.612 416.361C330.396 415.049 331.444 414.025 332.756 413.289C334.084 412.553 335.54 412.185 337.124 412.185C338.708 412.185 340.156 412.553 341.468 413.289C342.796 414.025 343.836 415.049 344.588 416.361C345.356 417.673 345.74 419.153 345.74 420.801C345.74 422.241 345.444 423.561 344.852 424.761C344.276 425.945 343.468 426.929 342.428 427.713L346.124 432.153H341.156ZM332.66 420.801C332.66 422.289 333.06 423.481 333.86 424.377C334.676 425.257 335.764 425.697 337.124 425.697C338.468 425.697 339.54 425.249 340.34 424.353C341.156 423.457 341.564 422.273 341.564 420.801C341.564 419.313 341.156 418.129 340.34 417.249C339.54 416.353 338.468 415.905 337.124 415.905C335.764 415.905 334.676 416.345 333.86 417.225C333.06 418.105 332.66 419.297 332.66 420.801ZM352.102 412.425V422.505C352.102 423.513 352.35 424.289 352.846 424.833C353.342 425.377 354.07 425.649 355.03 425.649C355.99 425.649 356.726 425.377 357.238 424.833C357.75 424.289 358.006 423.513 358.006 422.505V412.425H362.11V422.481C362.11 423.985 361.79 425.257 361.15 426.297C360.51 427.337 359.646 428.121 358.558 428.649C357.486 429.177 356.286 429.441 354.958 429.441C353.63 429.441 352.438 429.185 351.382 428.673C350.342 428.145 349.518 427.361 348.91 426.321C348.302 425.265 347.998 423.985 347.998 422.481V412.425H352.102ZM369.096 412.425V429.273H364.992V412.425H369.096ZM369.84 409.041L364.056 411.465V408.633L369.84 405.849V409.041Z" fill="#DBF4FF"/>
<path d="M241.796 458.3V461.588H237.332V475.148H233.228V461.588H228.764V458.3H241.796ZM251.823 475.316C250.239 475.316 248.783 474.948 247.455 474.212C246.143 473.476 245.095 472.452 244.311 471.14C243.543 469.812 243.159 468.324 243.159 466.676C243.159 465.028 243.543 463.548 244.311 462.236C245.095 460.924 246.143 459.9 247.455 459.164C248.783 458.428 250.239 458.06 251.823 458.06C253.407 458.06 254.855 458.428 256.167 459.164C257.495 459.9 258.535 460.924 259.287 462.236C260.055 463.548 260.439 465.028 260.439 466.676C260.439 468.324 260.055 469.812 259.287 471.14C258.519 472.452 257.479 473.476 256.167 474.212C254.855 474.948 253.407 475.316 251.823 475.316ZM251.823 471.572C253.167 471.572 254.239 471.124 255.039 470.228C255.855 469.332 256.263 468.148 256.263 466.676C256.263 465.188 255.855 464.004 255.039 463.124C254.239 462.228 253.167 461.78 251.823 461.78C250.463 461.78 249.375 462.22 248.559 463.1C247.759 463.98 247.359 465.172 247.359 466.676C247.359 468.164 247.759 469.356 248.559 470.252C249.375 471.132 250.463 471.572 251.823 471.572ZM266.754 458.3V468.38C266.754 469.388 267.002 470.164 267.498 470.708C267.994 471.252 268.722 471.524 269.682 471.524C270.642 471.524 271.378 471.252 271.89 470.708C272.402 470.164 272.658 469.388 272.658 468.38V458.3H276.762V468.356C276.762 469.86 276.442 471.132 275.802 472.172C275.162 473.212 274.298 473.996 273.21 474.524C272.138 475.052 270.938 475.316 269.61 475.316C268.282 475.316 267.09 475.06 266.034 474.548C264.994 474.02 264.17 473.236 263.562 472.196C262.954 471.14 262.65 469.86 262.65 468.356V458.3H266.754ZM278.948 466.7C278.948 465.036 279.308 463.556 280.028 462.26C280.748 460.948 281.748 459.932 283.028 459.212C284.324 458.476 285.788 458.108 287.42 458.108C289.42 458.108 291.132 458.636 292.556 459.692C293.98 460.748 294.932 462.188 295.412 464.012H290.9C290.564 463.308 290.084 462.772 289.46 462.404C288.852 462.036 288.156 461.852 287.372 461.852C286.108 461.852 285.084 462.292 284.3 463.172C283.516 464.052 283.124 465.228 283.124 466.7C283.124 468.172 283.516 469.348 284.3 470.228C285.084 471.108 286.108 471.548 287.372 471.548C288.156 471.548 288.852 471.364 289.46 470.996C290.084 470.628 290.564 470.092 290.9 469.388H295.412C294.932 471.212 293.98 472.652 292.556 473.708C291.132 474.748 289.42 475.268 287.42 475.268C285.788 475.268 284.324 474.908 283.028 474.188C281.748 473.452 280.748 472.436 280.028 471.14C279.308 469.844 278.948 468.364 278.948 466.7ZM312.518 458.3V475.148H308.414V468.212H302.03V475.148H297.926V458.3H302.03V464.9H308.414V458.3H312.518ZM335.158 458.3V475.148H331.054V468.212H324.67V475.148H320.566V458.3H324.67V464.9H331.054V458.3H335.158ZM342.225 461.588V464.996H347.721V468.164H342.225V471.86H348.441V475.148H338.121V458.3H348.441V461.588H342.225ZM359.697 475.148L356.193 468.788H355.209V475.148H351.105V458.3H357.993C359.321 458.3 360.449 458.532 361.377 458.996C362.321 459.46 363.025 460.1 363.489 460.916C363.953 461.716 364.185 462.612 364.185 463.604C364.185 464.724 363.865 465.724 363.225 466.604C362.601 467.484 361.673 468.108 360.441 468.476L364.329 475.148H359.697ZM355.209 465.884H357.753C358.505 465.884 359.065 465.7 359.433 465.332C359.817 464.964 360.009 464.444 360.009 463.772C360.009 463.132 359.817 462.628 359.433 462.26C359.065 461.892 358.505 461.708 357.753 461.708H355.209V465.884ZM370.865 461.588V464.996H376.361V468.164H370.865V471.86H377.081V475.148H366.761V458.3H377.081V461.588H370.865Z" fill="#EBC714"/>
</svg>
