<svg width="32" height="32" viewBox="0 0 32 32" fill="none" xmlns="http://www.w3.org/2000/svg">
<circle cx="15.8481" cy="15.849" r="14.9644" fill="#C7EEFF" stroke="#DBF4FF" stroke-width="0.92563"/>
<circle cx="15.8032" cy="15.8036" r="9.61627" stroke="#0089C7" stroke-width="1.54272"/>
<path d="M14.7368 21.0537H16.8421V14.7379H14.7368V21.0537ZM15.7894 12.6326C16.0877 12.6326 16.3377 12.5317 16.5394 12.33C16.7412 12.1282 16.8421 11.8782 16.8421 11.58C16.8421 11.2817 16.7412 11.0317 16.5394 10.83C16.3377 10.6282 16.0877 10.5273 15.7894 10.5273C15.4912 10.5273 15.2412 10.6282 15.0394 10.83C14.8377 11.0317 14.7368 11.2817 14.7368 11.58C14.7368 11.8782 14.8377 12.1282 15.0394 12.33C15.2412 12.5317 15.4912 12.6326 15.7894 12.6326Z" fill="#0089C7"/>
</svg>
