<svg width="72" height="72" viewBox="0 0 72 72" fill="none" xmlns="http://www.w3.org/2000/svg">
<circle cx="35.6603" cy="35.6603" r="33.6698" fill="#C7EEFF" stroke="#DBF4FF" stroke-width="2.08267"/>
<path d="M34.4237 49.3817C33.8097 49.3817 33.2341 49.25 32.6969 48.9867C32.1597 48.7233 31.7047 48.3502 31.3319 47.8674L24.1616 38.7484L24.7866 38.09C25.2251 37.6291 25.7514 37.3548 26.3653 37.267C26.9793 37.1792 27.5494 37.2999 28.0757 37.6291L30.5096 39.1105V28.3126C30.5096 27.9395 30.6357 27.6268 30.8879 27.3744C31.14 27.122 31.4525 26.9958 31.8253 26.9958C32.1981 26.9958 32.516 27.122 32.7791 27.3744C33.0423 27.6268 33.1738 27.9395 33.1738 28.3126V43.8511L29.9834 41.8758L33.4041 46.2543C33.5356 46.4079 33.6891 46.5286 33.8645 46.6164C34.04 46.7042 34.2263 46.7481 34.4237 46.7481H41.6927C42.4163 46.7481 43.0357 46.4902 43.551 45.9744C44.0663 45.4587 44.324 44.8387 44.324 44.1144V38.8472C44.324 38.4741 44.1979 38.1613 43.9457 37.9089C43.6935 37.6565 43.3811 37.5303 43.0083 37.5303H35.8051V34.8967H43.0083C44.1047 34.8967 45.0366 35.2808 45.8041 36.0489C46.5715 36.8171 46.9553 37.7498 46.9553 38.8472V44.1144C46.9553 45.5629 46.44 46.8029 45.4094 47.8345C44.3788 48.866 43.1399 49.3817 41.6927 49.3817H34.4237ZM26.1351 31.6047C25.85 31.1218 25.6308 30.6006 25.4773 30.0409C25.3238 29.4813 25.247 28.9052 25.247 28.3126C25.247 26.491 25.8884 24.9383 27.1712 23.6544C28.4539 22.3705 30.0053 21.7285 31.8253 21.7285C33.6453 21.7285 35.1966 22.3705 36.4794 23.6544C37.7622 24.9383 38.4035 26.491 38.4035 28.3126C38.4035 28.9052 38.3268 29.4813 38.1733 30.0409C38.0198 30.6006 37.8005 31.1218 37.5155 31.6047L35.246 30.2878C35.4214 29.9806 35.553 29.6678 35.6407 29.3496C35.7284 29.0314 35.7722 28.6857 35.7722 28.3126C35.7722 27.2153 35.3885 26.2825 34.621 25.5144C33.8536 24.7462 32.9217 24.3622 31.8253 24.3622C30.7289 24.3622 29.797 24.7462 29.0295 25.5144C28.2621 26.2825 27.8783 27.2153 27.8783 28.3126C27.8783 28.6857 27.9222 29.0314 28.0099 29.3496C28.0976 29.6678 28.2292 29.9806 28.4046 30.2878L26.1351 31.6047Z" fill="#0089C7"/>
<circle cx="35.5587" cy="35.5558" r="21.6366" stroke="#0089C7" stroke-width="3.47111"/>
</svg>
