<svg width="186" height="186" viewBox="0 0 186 186" fill="none" xmlns="http://www.w3.org/2000/svg">
<circle cx="92.5988" cy="92.5988" r="91.5988" fill="#C7EEFF"/>
<circle cx="91.5988" cy="92.5988" r="88.5455" stroke="white" stroke-width="6.10659" stroke-dasharray="2.44 2.44"/>
<path d="M108.306 127.504C107.41 129.762 99.7254 134.794 95.9948 137.028L79.5803 134.559C76.7202 129.503 71 118.968 71 117.275C71 115.582 72.4922 107.399 73.2383 103.518L82.1917 94.3474V85H103.083L108.306 97.1693C109.549 99.8736 112.036 105.847 112.036 108.104V117.275C112.036 120.802 109.425 124.682 108.306 127.504Z" fill="#FFE14E"/>
<path d="M92.9835 141.141C85.5181 141.141 79.1544 138.51 73.8927 133.248C68.6309 127.986 66 121.622 66 114.157C66 109.84 66.9444 105.815 68.8333 102.082C70.7221 98.3492 73.3755 95.1787 76.7934 92.5703V60.1901C76.7934 55.6928 78.3674 51.8702 81.5155 48.7221C84.6636 45.574 88.4862 44 92.9835 44C97.4807 44 101.303 45.574 104.451 48.7221C107.6 51.8702 109.174 55.6928 109.174 60.1901V92.5703C112.591 95.1787 115.245 98.3492 117.134 102.082C119.023 105.815 119.967 109.84 119.967 114.157C119.967 121.622 117.336 127.986 112.074 133.248C106.813 138.51 100.449 141.141 92.9835 141.141ZM92.9835 130.347C97.4807 130.347 101.303 128.773 104.451 125.625C107.6 122.477 109.174 118.654 109.174 114.157C109.174 111.549 108.611 109.12 107.487 106.872C106.363 104.623 104.766 102.734 102.698 101.205L98.3802 97.967V60.1901C98.3802 58.661 97.863 57.3793 96.8286 56.3449C95.7943 55.3106 94.5125 54.7934 92.9835 54.7934C91.4544 54.7934 90.1727 55.3106 89.1383 56.3449C88.104 57.3793 87.5868 58.661 87.5868 60.1901V97.967L83.2694 101.205C81.2007 102.734 79.6042 104.623 78.4799 106.872C77.3555 109.12 76.7934 111.549 76.7934 114.157C76.7934 118.654 78.3674 122.477 81.5155 125.625C84.6636 128.773 88.4862 130.347 92.9835 130.347Z" fill="#0089C7"/>
</svg>
