<svg width="184" height="184" viewBox="0 0 184 184" fill="none" xmlns="http://www.w3.org/2000/svg">
<circle cx="92" cy="92" r="92" fill="#C7EEFF"/>
<circle cx="92" cy="92" r="88.9467" stroke="white" stroke-width="6.10659" stroke-dasharray="2.44 2.44"/>
<circle cx="92.3532" cy="89.3751" r="47.7755" fill="#FFE14E"/>
<path d="M92.4086 144.248C84.8255 144.248 77.6993 142.809 71.0298 139.931C64.3604 137.053 58.5589 133.147 53.6254 128.214C48.6918 123.28 44.7861 117.479 41.9082 110.809C39.0303 104.14 37.5913 97.0136 37.5913 89.4305C37.5913 81.8475 39.0303 74.7212 41.9082 68.0518C44.7861 61.3824 48.6918 55.5809 53.6254 50.6473C58.5589 45.7138 64.3604 41.808 71.0298 38.9301C77.6993 36.0522 84.8255 34.6133 92.4086 34.6133C99.9916 34.6133 107.118 36.0522 113.787 38.9301C120.457 41.808 126.258 45.7138 131.192 50.6473C136.125 55.5809 140.031 61.3824 142.909 68.0518C145.787 74.7212 147.226 81.8475 147.226 89.4305C147.226 97.0136 145.787 104.14 142.909 110.809C140.031 117.479 136.125 123.28 131.192 128.214C126.258 133.147 120.457 137.053 113.787 139.931C107.118 142.809 99.9916 144.248 92.4086 144.248ZM92.4086 133.284C104.651 133.284 115.021 129.036 123.517 120.539C132.014 112.043 136.262 101.673 136.262 89.4305C136.262 77.188 132.014 66.8184 123.517 58.3217C115.021 49.8251 104.651 45.5767 92.4086 45.5767C80.166 45.5767 69.7964 49.8251 61.2998 58.3217C52.8031 66.8184 48.5548 77.188 48.5548 89.4305C48.5548 101.673 52.8031 112.043 61.2998 120.539C69.7964 129.036 80.166 133.284 92.4086 133.284Z" fill="#0089C7"/>
<rect x="68.2192" y="104.418" width="49.7126" height="9.54481" rx="4.77241" fill="#C4A300"/>
<circle cx="74.2078" cy="76.0794" r="9.83328" fill="#C4A300"/>
<circle cx="111.989" cy="76.0794" r="9.83328" fill="#C4A300"/>
</svg>
