<svg width="251" height="250" viewBox="0 0 251 250" fill="none" xmlns="http://www.w3.org/2000/svg">
<circle cx="125" cy="125" r="119.577" fill="#006EA0" stroke="#8CDBFF" stroke-width="10.8455"/>
<path d="M116.319 135.088V104.029H133.919V135.088H155.919V93.6761H169.119L125.119 47.0879L81.119 93.6761H94.319V135.088H116.319Z" fill="#DBF4FF"/>
<path d="M97.1017 148.152V165H92.9977V148.152H97.1017ZM108.236 151.464C109.804 151.464 111.052 151.976 111.98 153C112.924 154.008 113.396 155.4 113.396 157.176V165H109.316V157.728C109.316 156.832 109.084 156.136 108.62 155.64C108.156 155.144 107.532 154.896 106.748 154.896C105.964 154.896 105.34 155.144 104.876 155.64C104.412 156.136 104.18 156.832 104.18 157.728V165H100.076V151.608H104.18V153.384C104.596 152.792 105.156 152.328 105.86 151.992C106.564 151.64 107.356 151.464 108.236 151.464ZM118.312 150.216C117.592 150.216 117 150.008 116.536 149.592C116.088 149.16 115.864 148.632 115.864 148.008C115.864 147.368 116.088 146.84 116.536 146.424C117 145.992 117.592 145.776 118.312 145.776C119.016 145.776 119.592 145.992 120.04 146.424C120.504 146.84 120.736 147.368 120.736 148.008C120.736 148.632 120.504 149.16 120.04 149.592C119.592 150.008 119.016 150.216 118.312 150.216ZM120.352 151.608V165H116.248V151.608H120.352ZM122.51 158.304C122.51 156.912 122.79 155.696 123.35 154.656C123.926 153.616 124.718 152.816 125.726 152.256C126.75 151.696 127.918 151.416 129.23 151.416C130.91 151.416 132.31 151.856 133.43 152.736C134.566 153.616 135.31 154.856 135.662 156.456H131.294C130.926 155.432 130.214 154.92 129.158 154.92C128.406 154.92 127.806 155.216 127.358 155.808C126.91 156.384 126.686 157.216 126.686 158.304C126.686 159.392 126.91 160.232 127.358 160.824C127.806 161.4 128.406 161.688 129.158 161.688C130.214 161.688 130.926 161.176 131.294 160.152H135.662C135.31 161.72 134.566 162.952 133.43 163.848C132.294 164.744 130.894 165.192 129.23 165.192C127.918 165.192 126.75 164.912 125.726 164.352C124.718 163.792 123.926 162.992 123.35 161.952C122.79 160.912 122.51 159.696 122.51 158.304ZM139.921 150.216C139.201 150.216 138.609 150.008 138.145 149.592C137.697 149.16 137.473 148.632 137.473 148.008C137.473 147.368 137.697 146.84 138.145 146.424C138.609 145.992 139.201 145.776 139.921 145.776C140.625 145.776 141.201 145.992 141.649 146.424C142.113 146.84 142.345 147.368 142.345 148.008C142.345 148.632 142.113 149.16 141.649 149.592C141.201 150.008 140.625 150.216 139.921 150.216ZM141.961 151.608V165H137.857V151.608H141.961ZM151.031 165.192C149.719 165.192 148.535 164.912 147.479 164.352C146.439 163.792 145.615 162.992 145.007 161.952C144.415 160.912 144.119 159.696 144.119 158.304C144.119 156.928 144.423 155.72 145.031 154.68C145.639 153.624 146.471 152.816 147.527 152.256C148.583 151.696 149.767 151.416 151.079 151.416C152.391 151.416 153.575 151.696 154.631 152.256C155.687 152.816 156.519 153.624 157.127 154.68C157.735 155.72 158.039 156.928 158.039 158.304C158.039 159.68 157.727 160.896 157.103 161.952C156.495 162.992 155.655 163.792 154.583 164.352C153.527 164.912 152.343 165.192 151.031 165.192ZM151.031 161.64C151.815 161.64 152.479 161.352 153.023 160.776C153.583 160.2 153.863 159.376 153.863 158.304C153.863 157.232 153.591 156.408 153.047 155.832C152.519 155.256 151.863 154.968 151.079 154.968C150.279 154.968 149.615 155.256 149.087 155.832C148.559 156.392 148.295 157.216 148.295 158.304C148.295 159.376 148.551 160.2 149.063 160.776C149.591 161.352 150.247 161.64 151.031 161.64Z" fill="#DBF4FF"/>
<path d="M104.683 182.062V198.91H100.579V191.974H94.1954V198.91H90.0914V182.062H94.1954V188.662H100.579V182.062H104.683ZM113.742 199.102C112.43 199.102 111.246 198.822 110.19 198.262C109.15 197.702 108.326 196.902 107.718 195.862C107.126 194.822 106.83 193.606 106.83 192.214C106.83 190.838 107.134 189.63 107.742 188.59C108.35 187.534 109.182 186.726 110.238 186.166C111.294 185.606 112.478 185.326 113.79 185.326C115.102 185.326 116.286 185.606 117.342 186.166C118.398 186.726 119.23 187.534 119.838 188.59C120.446 189.63 120.75 190.838 120.75 192.214C120.75 193.59 120.438 194.806 119.814 195.862C119.206 196.902 118.366 197.702 117.294 198.262C116.238 198.822 115.054 199.102 113.742 199.102ZM113.742 195.55C114.526 195.55 115.19 195.262 115.734 194.686C116.294 194.11 116.574 193.286 116.574 192.214C116.574 191.142 116.302 190.318 115.758 189.742C115.23 189.166 114.574 188.878 113.79 188.878C112.99 188.878 112.326 189.166 111.798 189.742C111.27 190.302 111.006 191.126 111.006 192.214C111.006 193.286 111.262 194.11 111.774 194.686C112.302 195.262 112.958 195.55 113.742 195.55ZM140.015 185.374C141.679 185.374 142.999 185.878 143.975 186.886C144.967 187.894 145.463 189.294 145.463 191.086V198.91H141.383V191.638C141.383 190.774 141.151 190.11 140.687 189.646C140.239 189.166 139.615 188.926 138.815 188.926C138.015 188.926 137.383 189.166 136.919 189.646C136.471 190.11 136.247 190.774 136.247 191.638V198.91H132.167V191.638C132.167 190.774 131.935 190.11 131.471 189.646C131.023 189.166 130.399 188.926 129.599 188.926C128.799 188.926 128.167 189.166 127.703 189.646C127.255 190.11 127.031 190.774 127.031 191.638V198.91H122.927V185.518H127.031V187.198C127.447 186.638 127.991 186.198 128.663 185.878C129.335 185.542 130.095 185.374 130.943 185.374C131.951 185.374 132.847 185.59 133.631 186.022C134.431 186.454 135.055 187.07 135.503 187.87C135.967 187.134 136.599 186.534 137.399 186.07C138.199 185.606 139.071 185.374 140.015 185.374ZM160.958 191.998C160.958 192.382 160.934 192.782 160.886 193.198H151.598C151.662 194.03 151.926 194.67 152.39 195.118C152.87 195.55 153.454 195.766 154.142 195.766C155.166 195.766 155.878 195.334 156.278 194.47H160.646C160.422 195.35 160.014 196.142 159.422 196.846C158.846 197.55 158.118 198.102 157.238 198.502C156.358 198.902 155.374 199.102 154.286 199.102C152.974 199.102 151.806 198.822 150.782 198.262C149.758 197.702 148.958 196.902 148.382 195.862C147.806 194.822 147.518 193.606 147.518 192.214C147.518 190.822 147.798 189.606 148.358 188.566C148.934 187.526 149.734 186.726 150.758 186.166C151.782 185.606 152.958 185.326 154.286 185.326C155.582 185.326 156.734 185.598 157.742 186.142C158.75 186.686 159.534 187.462 160.094 188.47C160.67 189.478 160.958 190.654 160.958 191.998ZM156.758 190.918C156.758 190.214 156.518 189.654 156.038 189.238C155.558 188.822 154.958 188.614 154.238 188.614C153.55 188.614 152.966 188.814 152.486 189.214C152.022 189.614 151.734 190.182 151.622 190.918H156.758Z" fill="#EBC714"/>
</svg>
