<svg width="32" height="32" viewBox="0 0 32 32" fill="none" xmlns="http://www.w3.org/2000/svg">
<path d="M16.0339 4.00006L16.3341 4.00569C21.7175 4.18686 26.0182 8.71837 25.9999 14.2632L25.9997 14.386C25.9385 17.6936 24.316 20.9503 21.6241 23.8568C20.2961 25.2677 18.8132 26.5168 17.2047 27.5792L17.2165 27.5704L17.1598 27.6194C16.5168 28.0906 15.6648 28.1243 14.992 27.7204L14.8401 27.6194L14.7691 27.5626L14.2827 27.2286C12.2625 25.8081 10.4633 24.0846 8.94932 22.1211L8.5768 21.6252C6.99067 19.5049 6.09013 16.9313 6 14.2316L6.00544 13.8897C6.18247 8.38168 10.6115 3.98133 16.0339 4.00006ZM16.0278 5.82102L15.7452 5.82492C11.3357 5.96204 7.79481 9.65472 7.77971 14.1999L7.80217 14.6283C7.955 16.7649 8.71433 18.8131 9.99572 20.5261C11.5866 22.6997 13.5388 24.5699 15.7631 26.0513L15.8599 26.1257C15.9403 26.1969 16.0596 26.1969 16.14 26.1257L16.2395 26.0494C17.7326 25.0631 19.1093 23.9036 20.3372 22.599C22.7452 19.999 24.1687 17.1418 24.2202 14.3688L24.2164 13.971C24.0823 9.45936 20.4732 5.83652 16.0278 5.82102ZM15.9999 10.4815C18.1039 10.4815 19.8095 12.2267 19.8095 14.3793C19.8095 16.532 18.1039 18.2771 15.9999 18.2771C13.8959 18.2771 12.1903 16.532 12.1903 14.3793C12.1903 12.2267 13.8959 10.4815 15.9999 10.4815ZM15.9999 12.3025C14.8788 12.3025 13.97 13.2323 13.97 14.3793C13.97 15.5264 14.8788 16.4562 15.9999 16.4562C17.121 16.4562 18.0298 15.5264 18.0298 14.3793C18.0298 13.2323 17.121 12.3025 15.9999 12.3025Z" fill="#0089C7"/>
</svg>
