<svg width="186" height="186" viewBox="0 0 186 186" fill="none" xmlns="http://www.w3.org/2000/svg">
<circle cx="92.5988" cy="92.5988" r="91.5988" fill="#C7EEFF"/>
<circle cx="91.5988" cy="92.5988" r="88.5455" stroke="white" stroke-width="6.10659" stroke-dasharray="2.44 2.44"/>
<rect x="41" y="44" width="35.6625" height="97.0947" rx="17.8312" fill="#0089C7"/>
<mask id="mask0_88_5823" style="mask-type:alpha" maskUnits="userSpaceOnUse" x="50" y="54" width="18" height="77">
<rect x="50.5859" y="54.75" width="16.4878" height="75.5385" rx="8.24389" fill="white"/>
</mask>
<g mask="url(#mask0_88_5823)">
<rect x="40.2046" y="89.8027" width="38.3494" height="47.8146" fill="#AAFFD3"/>
</g>
<rect x="51.1985" y="55.3528" width="15.2665" height="74.3172" rx="7.63323" stroke="#B3E7FF" stroke-width="1.22132"/>
<rect x="96.3867" y="71.5391" width="42.7461" height="21.0067" fill="#AAFFD3"/>
<rect x="100.295" y="58.3438" width="35.1739" height="13.1902" fill="#EEFAFF"/>
<path d="M101.639 93.73V96.4579C101.639 97.2308 101.377 97.8787 100.855 98.4015C100.332 98.9244 99.6838 99.1858 98.9109 99.1858H96.183C95.4101 99.1858 94.7622 98.9244 94.2394 98.4015C93.7165 97.8787 93.4551 97.2308 93.4551 96.4579V74.6345L99.1837 58.267C99.4565 57.4486 99.9453 56.7894 100.65 56.2892C101.355 55.7891 102.139 55.5391 103.003 55.5391H133.01C133.874 55.5391 134.658 55.7891 135.363 56.2892C136.067 56.7894 136.556 57.4486 136.829 58.267L142.558 74.6345V96.4579C142.558 97.2308 142.296 97.8787 141.773 98.4015C141.251 98.9244 140.603 99.1858 139.83 99.1858H137.102C136.329 99.1858 135.681 98.9244 135.158 98.4015C134.635 97.8787 134.374 97.2308 134.374 96.4579V93.73H101.639ZM101.093 69.1787H134.919L132.055 60.9949H103.958L101.093 69.1787ZM105.731 85.5462C106.867 85.5462 107.833 85.1484 108.629 84.3527C109.425 83.5571 109.823 82.5909 109.823 81.4543C109.823 80.3177 109.425 79.3515 108.629 78.5559C107.833 77.7603 106.867 77.3624 105.731 77.3624C104.594 77.3624 103.628 77.7603 102.832 78.5559C102.037 79.3515 101.639 80.3177 101.639 81.4543C101.639 82.5909 102.037 83.5571 102.832 84.3527C103.628 85.1484 104.594 85.5462 105.731 85.5462ZM130.282 85.5462C131.419 85.5462 132.385 85.1484 133.18 84.3527C133.976 83.5571 134.374 82.5909 134.374 81.4543C134.374 80.3177 133.976 79.3515 133.18 78.5559C132.385 77.7603 131.419 77.3624 130.282 77.3624C129.145 77.3624 128.179 77.7603 127.384 78.5559C126.588 79.3515 126.19 80.3177 126.19 81.4543C126.19 82.5909 126.588 83.5571 127.384 84.3527C128.179 85.1484 129.145 85.5462 130.282 85.5462ZM98.9109 88.2741H137.102V74.6345H98.9109V88.2741Z" fill="#65CFFF"/>
<path d="M114.688 121.651C113.936 121.651 113.305 121.397 112.797 120.888C112.288 120.379 112.034 119.749 112.034 118.997V108.381C112.034 107.629 112.288 106.998 112.797 106.49C113.305 105.981 113.936 105.727 114.688 105.727H122.65C123.402 105.727 124.032 105.981 124.541 106.49C125.05 106.998 125.304 107.629 125.304 108.381V118.997C125.304 119.749 125.05 120.379 124.541 120.888C124.032 121.397 123.402 121.651 122.65 121.651H114.688ZM116.015 117.67H121.323V109.708H116.015V117.67ZM96.1092 121.651C95.3572 121.651 94.7268 121.397 94.2181 120.888C93.7094 120.379 93.4551 119.749 93.4551 118.997V108.381C93.4551 107.629 93.7094 106.998 94.2181 106.49C94.7268 105.981 95.3572 105.727 96.1092 105.727H104.071C104.823 105.727 105.454 105.981 105.962 106.49C106.471 106.998 106.725 107.629 106.725 108.381V111.035H102.744V109.708H97.4362V117.67H102.744V116.343H106.725V118.997C106.725 119.749 106.471 120.379 105.962 120.888C105.454 121.397 104.823 121.651 104.071 121.651H96.1092ZM130.612 129.613V122.978C130.612 122.226 130.867 121.596 131.375 121.087C131.884 120.578 132.514 120.324 133.266 120.324H138.574V117.67H130.612V113.689H139.901C140.653 113.689 141.284 113.943 141.792 114.452C142.301 114.961 142.556 115.591 142.556 116.343V120.324C142.556 121.076 142.301 121.706 141.792 122.215C141.284 122.724 140.653 122.978 139.901 122.978H134.593V125.632H142.556V129.613H130.612Z" fill="#0089C7"/>
<circle cx="105.728" cy="81.4335" r="1.83198" fill="#C7EEFF"/>
<circle cx="130.34" cy="81.4335" r="1.83198" fill="#C7EEFF"/>
<rect x="114.217" y="89.7969" width="7.63323" height="1.58771" rx="0.793856" fill="#65CFFF"/>
<path fill-rule="evenodd" clip-rule="evenodd" d="M132.139 69.2435H130.469C129.906 68.0221 128.671 67.1744 127.238 67.1744C125.806 67.1744 124.571 68.0221 124.008 69.2435H122.338C122.974 67.1404 124.928 65.6094 127.238 65.6094C129.549 65.6094 131.503 67.1404 132.139 69.2435Z" fill="#0089C7"/>
</svg>
