<svg width="257" height="256" viewBox="0 0 257 256" fill="none" xmlns="http://www.w3.org/2000/svg">
<circle cx="128.637" cy="127.836" r="122.29" fill="#006EA0" stroke="#8CDBFF" stroke-width="11.0915"/>
<path d="M122.612 108.965L135.359 96.2191L125.344 86.2042H166.771V67.9954H125.344L135.359 57.9805L122.612 45.2344L90.7444 77.0998L122.612 108.965Z" fill="#DBF4FF"/>
<path d="M107.042 151.282H100.754L99.7464 154.258H95.4504L101.546 137.41H106.298L112.394 154.258H108.05L107.042 151.282ZM105.986 148.114L103.898 141.946L101.834 148.114H105.986ZM121.714 150.778V154.258H119.626C118.138 154.258 116.978 153.898 116.146 153.178C115.314 152.442 114.898 151.25 114.898 149.602V144.274H113.266V140.866H114.898V137.602H119.002V140.866H121.69V144.274H119.002V149.65C119.002 150.05 119.098 150.338 119.29 150.514C119.482 150.69 119.802 150.778 120.25 150.778H121.714ZM128.104 143.098C128.584 142.362 129.184 141.786 129.904 141.37C130.624 140.938 131.424 140.722 132.304 140.722V145.066H131.176C130.152 145.066 129.384 145.29 128.872 145.738C128.36 146.17 128.104 146.938 128.104 148.042V154.258H124V140.866H128.104V143.098ZM133.449 147.538C133.449 146.162 133.705 144.954 134.217 143.914C134.745 142.874 135.457 142.074 136.353 141.514C137.249 140.954 138.249 140.674 139.353 140.674C140.297 140.674 141.121 140.866 141.825 141.25C142.545 141.634 143.097 142.138 143.481 142.762V140.866H147.585V154.258H143.481V152.362C143.081 152.986 142.521 153.49 141.801 153.874C141.097 154.258 140.273 154.45 139.329 154.45C138.241 154.45 137.249 154.17 136.353 153.61C135.457 153.034 134.745 152.226 134.217 151.186C133.705 150.13 133.449 148.914 133.449 147.538ZM143.481 147.562C143.481 146.538 143.193 145.73 142.617 145.138C142.057 144.546 141.369 144.25 140.553 144.25C139.737 144.25 139.041 144.546 138.465 145.138C137.905 145.714 137.625 146.514 137.625 147.538C137.625 148.562 137.905 149.378 138.465 149.986C139.041 150.578 139.737 150.874 140.553 150.874C141.369 150.874 142.057 150.578 142.617 149.986C143.193 149.394 143.481 148.586 143.481 147.562ZM143.793 137.53L138.009 139.954V137.122L143.793 134.338V137.53ZM156.002 154.45C154.834 154.45 153.794 154.25 152.882 153.85C151.97 153.45 151.25 152.906 150.722 152.218C150.194 151.514 149.898 150.73 149.834 149.866H153.89C153.938 150.33 154.154 150.706 154.538 150.994C154.922 151.282 155.394 151.426 155.954 151.426C156.466 151.426 156.858 151.33 157.13 151.138C157.418 150.93 157.562 150.666 157.562 150.346C157.562 149.962 157.362 149.682 156.962 149.506C156.562 149.314 155.914 149.106 155.018 148.882C154.058 148.658 153.258 148.426 152.618 148.186C151.978 147.93 151.426 147.538 150.962 147.01C150.498 146.466 150.266 145.738 150.266 144.826C150.266 144.058 150.474 143.362 150.89 142.738C151.322 142.098 151.946 141.594 152.762 141.226C153.594 140.858 154.578 140.674 155.714 140.674C157.394 140.674 158.714 141.09 159.674 141.922C160.65 142.754 161.21 143.858 161.354 145.234H157.562C157.498 144.77 157.29 144.402 156.938 144.13C156.602 143.858 156.154 143.722 155.594 143.722C155.114 143.722 154.746 143.818 154.49 144.01C154.234 144.186 154.106 144.434 154.106 144.754C154.106 145.138 154.306 145.426 154.706 145.618C155.122 145.81 155.762 146.002 156.626 146.194C157.618 146.45 158.426 146.706 159.05 146.962C159.674 147.202 160.218 147.602 160.682 148.162C161.162 148.706 161.41 149.442 161.426 150.37C161.426 151.154 161.202 151.858 160.754 152.482C160.322 153.09 159.69 153.57 158.858 153.922C158.042 154.274 157.09 154.45 156.002 154.45Z" fill="#DBF4FF"/>
<path d="M109.708 191.274C110.684 191.482 111.468 191.97 112.06 192.738C112.652 193.49 112.948 194.354 112.948 195.33C112.948 196.738 112.452 197.858 111.46 198.69C110.484 199.506 109.116 199.914 107.356 199.914H99.5075V183.066H107.092C108.804 183.066 110.14 183.458 111.1 184.242C112.076 185.026 112.564 186.09 112.564 187.434C112.564 188.426 112.3 189.25 111.772 189.906C111.26 190.562 110.572 191.018 109.708 191.274ZM103.612 189.882H106.3C106.972 189.882 107.484 189.738 107.836 189.45C108.204 189.146 108.388 188.706 108.388 188.13C108.388 187.554 108.204 187.114 107.836 186.81C107.484 186.506 106.972 186.354 106.3 186.354H103.612V189.882ZM106.636 196.602C107.324 196.602 107.852 196.45 108.22 196.146C108.604 195.826 108.796 195.37 108.796 194.778C108.796 194.186 108.596 193.722 108.196 193.386C107.812 193.05 107.276 192.882 106.588 192.882H103.612V196.602H106.636ZM114.512 193.194C114.512 191.818 114.768 190.61 115.28 189.57C115.808 188.53 116.52 187.73 117.416 187.17C118.312 186.61 119.312 186.33 120.416 186.33C121.36 186.33 122.184 186.522 122.888 186.906C123.608 187.29 124.16 187.794 124.544 188.418V186.522H128.648V199.914H124.544V198.018C124.144 198.642 123.584 199.146 122.864 199.53C122.16 199.914 121.336 200.106 120.392 200.106C119.304 200.106 118.312 199.826 117.416 199.266C116.52 198.69 115.808 197.882 115.28 196.842C114.768 195.786 114.512 194.57 114.512 193.194ZM124.544 193.218C124.544 192.194 124.256 191.386 123.68 190.794C123.12 190.202 122.432 189.906 121.616 189.906C120.8 189.906 120.104 190.202 119.528 190.794C118.968 191.37 118.688 192.17 118.688 193.194C118.688 194.218 118.968 195.034 119.528 195.642C120.104 196.234 120.8 196.53 121.616 196.53C122.432 196.53 123.12 196.234 123.68 195.642C124.256 195.05 124.544 194.242 124.544 193.218ZM130.801 193.218C130.801 191.826 131.081 190.61 131.641 189.57C132.217 188.53 133.009 187.73 134.017 187.17C135.041 186.61 136.209 186.33 137.521 186.33C139.201 186.33 140.601 186.77 141.721 187.65C142.857 188.53 143.601 189.77 143.953 191.37H139.585C139.217 190.346 138.505 189.834 137.449 189.834C136.697 189.834 136.097 190.13 135.649 190.722C135.201 191.298 134.977 192.13 134.977 193.218C134.977 194.306 135.201 195.146 135.649 195.738C136.097 196.314 136.697 196.602 137.449 196.602C138.505 196.602 139.217 196.09 139.585 195.066H143.953C143.601 196.634 142.857 197.866 141.721 198.762C140.585 199.658 139.185 200.106 137.521 200.106C136.209 200.106 135.041 199.826 134.017 199.266C133.009 198.706 132.217 197.906 131.641 196.866C131.081 195.826 130.801 194.61 130.801 193.218ZM154.332 199.914L150.252 194.298V199.914H146.148V182.154H150.252V191.97L154.308 186.522H159.372L153.804 193.242L159.42 199.914H154.332Z" fill="#EBC714"/>
</svg>
