<svg width="186" height="186" viewBox="0 0 186 186" fill="none" xmlns="http://www.w3.org/2000/svg">
<circle cx="92.5988" cy="92.5988" r="91.5988" fill="#C7EEFF"/>
<circle cx="91.5988" cy="92.5988" r="88.5455" stroke="white" stroke-width="6.10659" stroke-dasharray="2.44 2.44"/>
<circle cx="93.3925" cy="94.9589" r="48.2948" fill="#FB8282"/>
<path d="M93.4131 148.826C85.7476 148.826 78.5439 147.372 71.802 144.462C65.0601 141.553 59.1955 137.605 54.2083 132.618C49.2212 127.631 45.273 121.766 42.3638 115.024C39.4546 108.282 38 101.079 38 93.4131C38 85.7476 39.4546 78.5439 42.3638 71.802C45.273 65.0601 49.2212 59.1955 54.2083 54.2083C59.1955 49.2212 65.0601 45.273 71.802 42.3638C78.5439 39.4546 85.7476 38 93.4131 38C101.079 38 108.282 39.4546 115.024 42.3638C121.766 45.273 127.631 49.2212 132.618 54.2083C137.605 59.1955 141.553 65.0601 144.462 71.802C147.372 78.5439 148.826 85.7476 148.826 93.4131C148.826 101.079 147.372 108.282 144.462 115.024C141.553 121.766 137.605 127.631 132.618 132.618C127.631 137.605 121.766 141.553 115.024 144.462C108.282 147.372 101.079 148.826 93.4131 148.826ZM93.4131 137.744C105.789 137.744 116.271 133.449 124.86 124.86C133.449 116.271 137.744 105.789 137.744 93.4131C137.744 81.0375 133.449 70.5552 124.86 61.9662C116.271 53.3771 105.789 49.0826 93.4131 49.0826C81.0375 49.0826 70.5552 53.3771 61.9662 61.9662C53.3771 70.5552 49.0826 81.0375 49.0826 93.4131C49.0826 105.789 53.3771 116.271 61.9662 124.86C70.5552 133.449 81.0375 137.744 93.4131 137.744Z" fill="#0089C7"/>
<circle cx="93.3261" cy="92.9589" r="48.2948" fill="#AAFFD3"/>
<path d="M93.4131 146.826C85.7476 146.826 78.5439 145.372 71.802 142.462C65.0601 139.553 59.1955 135.605 54.2083 130.618C49.2212 125.631 45.273 119.766 42.3638 113.024C39.4546 106.282 38 99.0786 38 91.4131C38 83.7476 39.4546 76.5439 42.3638 69.802C45.273 63.0601 49.2212 57.1955 54.2083 52.2083C59.1955 47.2212 65.0601 43.273 71.802 40.3638C78.5439 37.4546 85.7476 36 93.4131 36C101.079 36 108.282 37.4546 115.024 40.3638C121.766 43.273 127.631 47.2212 132.618 52.2083C137.605 57.1955 141.553 63.0601 144.462 69.802C147.372 76.5439 148.826 83.7476 148.826 91.4131C148.826 99.0786 147.372 106.282 144.462 113.024C141.553 119.766 137.605 125.631 132.618 130.618C127.631 135.605 121.766 139.553 115.024 142.462C108.282 145.372 101.079 146.826 93.4131 146.826ZM93.4131 135.744C105.789 135.744 116.271 131.449 124.86 122.86C133.449 114.271 137.744 103.789 137.744 91.4131C137.744 79.0375 133.449 68.5552 124.86 59.9662C116.271 51.3771 105.789 47.0826 93.4131 47.0826C81.0375 47.0826 70.5552 51.3771 61.9662 59.9662C53.3771 68.5552 49.0826 79.0375 49.0826 91.4131C49.0826 103.789 53.3771 114.271 61.9662 122.86C70.5552 131.449 81.0375 135.744 93.4131 135.744Z" fill="#0089C7"/>
<path fill-rule="evenodd" clip-rule="evenodd" d="M65.9891 108.224C64.2779 105.21 66.7451 101.839 70.211 101.839C72.2275 101.839 74.0151 103.045 75.1257 104.728C79.0345 110.651 85.7491 114.559 93.3764 114.559C101.004 114.559 107.718 110.651 111.627 104.728C112.738 103.045 114.525 101.839 116.542 101.839C120.008 101.839 122.475 105.21 120.764 108.224C115.354 117.752 105.116 124.18 93.3764 124.18C81.637 124.18 71.3989 117.752 65.9891 108.224Z" fill="#00AA52"/>
<circle cx="74.3288" cy="79.5183" r="9.94017" fill="#00AA52"/>
<circle cx="112.52" cy="79.5183" r="9.94017" fill="#00AA52"/>
</svg>
