<svg width="184" height="184" viewBox="0 0 184 184" fill="none" xmlns="http://www.w3.org/2000/svg">
<circle cx="92" cy="92" r="92" fill="#C7EEFF"/>
<circle cx="92" cy="92" r="88.9467" stroke="white" stroke-width="6.10659" stroke-dasharray="2.44 2.44"/>
<rect x="41" y="44" width="35.6625" height="97.0947" rx="17.8312" fill="#0089C7"/>
<mask id="mask0_88_5822" style="mask-type:alpha" maskUnits="userSpaceOnUse" x="50" y="54" width="18" height="77">
<rect x="50.5859" y="54.75" width="16.4878" height="75.5385" rx="8.24389" fill="white"/>
</mask>
<g mask="url(#mask0_88_5822)">
<rect x="40" y="69" width="39" height="69" fill="#FB8282"/>
</g>
<rect x="51.1985" y="55.3528" width="15.2665" height="74.3172" rx="7.63323" stroke="#B3E7FF" stroke-width="1.22132"/>
<rect x="96.3867" y="71.5391" width="42.7461" height="21.0067" fill="#FB8282"/>
<rect x="100.295" y="58.3438" width="35.1739" height="13.1902" fill="#EEFAFF"/>
<path d="M100.546 92.7216V95.4202C100.546 96.1848 100.287 96.8257 99.7701 97.343C99.2529 97.8602 98.612 98.1188 97.8474 98.1188H95.1488C94.3842 98.1188 93.7433 97.8602 93.226 97.343C92.7088 96.8257 92.4502 96.1848 92.4502 95.4202V73.8315L98.1172 57.64C98.3871 56.8304 98.8706 56.1783 99.5677 55.6835C100.265 55.1888 101.041 54.9414 101.895 54.9414H131.58C132.434 54.9414 133.21 55.1888 133.907 55.6835C134.604 56.1783 135.088 56.8304 135.358 57.64L141.025 73.8315V95.4202C141.025 96.1848 140.766 96.8257 140.249 97.343C139.732 97.8602 139.091 98.1188 138.326 98.1188H135.628C134.863 98.1188 134.222 97.8602 133.705 97.343C133.188 96.8257 132.929 96.1848 132.929 95.4202V92.7216H100.546ZM100.006 68.4343H133.469L130.635 60.3386H102.84L100.006 68.4343ZM104.594 84.6259C105.718 84.6259 106.674 84.2323 107.461 83.4452C108.248 82.6582 108.642 81.7024 108.642 80.578C108.642 79.4536 108.248 78.4978 107.461 77.7107C106.674 76.9237 105.718 76.5301 104.594 76.5301C103.469 76.5301 102.514 76.9237 101.727 77.7107C100.94 78.4978 100.546 79.4536 100.546 80.578C100.546 81.7024 100.94 82.6582 101.727 83.4452C102.514 84.2323 103.469 84.6259 104.594 84.6259ZM128.881 84.6259C130.006 84.6259 130.961 84.2323 131.748 83.4452C132.535 82.6582 132.929 81.7024 132.929 80.578C132.929 79.4536 132.535 78.4978 131.748 77.7107C130.961 76.9237 130.006 76.5301 128.881 76.5301C127.757 76.5301 126.801 76.9237 126.014 77.7107C125.227 78.4978 124.833 79.4536 124.833 80.578C124.833 81.7024 125.227 82.6582 126.014 83.4452C126.801 84.2323 127.757 84.6259 128.881 84.6259ZM97.8474 87.3245H135.628V73.8315H97.8474V87.3245Z" fill="#65CFFF"/>
<path d="M113.455 120.343C112.711 120.343 112.087 120.091 111.584 119.588C111.081 119.085 110.829 118.461 110.829 117.718V107.215C110.829 106.471 111.081 105.848 111.584 105.345C112.087 104.841 112.711 104.59 113.455 104.59H121.331C122.075 104.59 122.699 104.841 123.202 105.345C123.705 105.848 123.957 106.471 123.957 107.215V117.718C123.957 118.461 123.705 119.085 123.202 119.588C122.699 120.091 122.075 120.343 121.331 120.343H113.455ZM114.767 116.405H120.018V108.528H114.767V116.405ZM95.0757 120.343C94.3318 120.343 93.7083 120.091 93.205 119.588C92.7018 119.085 92.4502 118.461 92.4502 117.718V107.215C92.4502 106.471 92.7018 105.848 93.205 105.345C93.7083 104.841 94.3318 104.59 95.0757 104.59H102.952C103.696 104.59 104.32 104.841 104.823 105.345C105.326 105.848 105.578 106.471 105.578 107.215V109.841H101.64V108.528H96.3885V116.405H101.64V115.092H105.578V117.718C105.578 118.461 105.326 119.085 104.823 119.588C104.32 120.091 103.696 120.343 102.952 120.343H95.0757ZM129.208 128.22V121.656C129.208 120.912 129.459 120.288 129.963 119.785C130.466 119.282 131.089 119.03 131.833 119.03H137.084V116.405H129.208V112.466H138.397C139.141 112.466 139.765 112.718 140.268 113.221C140.771 113.725 141.023 114.348 141.023 115.092V119.03C141.023 119.774 140.771 120.398 140.268 120.901C139.765 121.404 139.141 121.656 138.397 121.656H133.146V124.281H141.023V128.22H129.208Z" fill="#0089C7"/>
<circle cx="105.728" cy="81.4335" r="1.83198" fill="#C7EEFF"/>
<circle cx="130.34" cy="81.4335" r="1.83198" fill="#C7EEFF"/>
<rect x="114.217" y="89.7969" width="7.63323" height="1.58771" rx="0.793856" fill="#65CFFF"/>
<path fill-rule="evenodd" clip-rule="evenodd" d="M132.139 69.2435H130.469C129.906 68.0221 128.671 67.1744 127.238 67.1744C125.806 67.1744 124.571 68.0221 124.008 69.2435H122.338C122.974 67.1404 124.928 65.6094 127.238 65.6094C129.549 65.6094 131.503 67.1404 132.139 69.2435Z" fill="#0089C7"/>
</svg>
