<svg width="32" height="32" viewBox="0 0 32 32" fill="none" xmlns="http://www.w3.org/2000/svg">
<circle cx="15.8481" cy="15.849" r="14.9644" fill="#C7EEFF" stroke="#DBF4FF" stroke-width="0.92563"/>
<circle cx="15.8032" cy="15.8036" r="9.61627" stroke="#0089C7" stroke-width="1.54272"/>
<path d="M14.4318 22.6329L13.5476 21.7487L14.2423 21.054H11.3687V19.7908H14.2423L13.5476 19.0961L14.4318 18.2119L16.6423 20.4224L14.4318 22.6329ZM11.3687 19.1592V10.9487C11.3687 10.6013 11.4923 10.304 11.7397 10.0566C11.9871 9.80923 12.2844 9.68555 12.6318 9.68555H18.9476C19.295 9.68555 19.5923 9.80923 19.8397 10.0566C20.0871 10.304 20.2108 10.6013 20.2108 10.9487V19.1592H18.9476V18.1803C18.5265 17.875 18.0502 17.6461 17.5187 17.4934C16.9871 17.3408 16.4108 17.2645 15.7897 17.2645C15.1687 17.2645 14.5923 17.3408 14.0608 17.4934C13.5292 17.6461 13.0529 17.875 12.6318 18.1803V19.1592H11.3687ZM12.6318 16.7277C13.1371 16.4855 13.6555 16.304 14.1871 16.1829C14.7187 16.0619 15.2529 16.0013 15.7897 16.0013C16.3265 16.0013 16.8608 16.0619 17.3923 16.1829C17.9239 16.304 18.4423 16.4855 18.9476 16.7277V10.9487H12.6318V16.7277ZM17.0529 21.054V19.7908H20.2108V21.054H17.0529ZM15.7897 15.3698C15.2634 15.3698 14.816 15.1855 14.4476 14.8171C14.0792 14.4487 13.895 14.0013 13.895 13.475C13.895 12.9487 14.0792 12.5013 14.4476 12.1329C14.816 11.7645 15.2634 11.5803 15.7897 11.5803C16.316 11.5803 16.7634 11.7645 17.1318 12.1329C17.5002 12.5013 17.6844 12.9487 17.6844 13.475C17.6844 14.0013 17.5002 14.4487 17.1318 14.8171C16.7634 15.1855 16.316 15.3698 15.7897 15.3698ZM15.7897 14.1066C15.9687 14.1066 16.1187 14.0461 16.2397 13.925C16.3608 13.804 16.4213 13.654 16.4213 13.475C16.4213 13.2961 16.3608 13.1461 16.2397 13.025C16.1187 12.904 15.9687 12.8434 15.7897 12.8434C15.6108 12.8434 15.4608 12.904 15.3397 13.025C15.2187 13.1461 15.1581 13.2961 15.1581 13.475C15.1581 13.654 15.2187 13.804 15.3397 13.925C15.4608 14.0461 15.6108 14.1066 15.7897 14.1066Z" fill="#0089C7"/>
</svg>
