<svg width="184" height="184" viewBox="0 0 184 184" fill="none" xmlns="http://www.w3.org/2000/svg">
<circle cx="92" cy="92" r="92" fill="#C7EEFF"/>
<circle cx="92" cy="92" r="88.9467" stroke="white" stroke-width="6.10659" stroke-dasharray="2.44 2.44"/>
<path d="M108.273 129.312C107.378 131.134 99.7 135.197 95.9727 137L79.5727 135.007C76.7152 130.925 71 122.421 71 121.054C71 119.687 72.4909 113.081 73.2364 109.949L82.1818 102.546V95H103.055L108.273 104.824C109.515 107.007 112 111.828 112 113.651V121.054C112 123.902 109.391 127.034 108.273 129.312Z" fill="#8CDBFF"/>
<path d="M91.9835 140.141C84.5181 140.141 78.1544 137.51 72.8927 132.248C67.6309 126.986 65 120.622 65 113.157C65 108.84 65.9444 104.815 67.8333 101.082C69.7221 97.3492 72.3755 94.1787 75.7934 91.5703V59.1901C75.7934 54.6928 77.3674 50.8702 80.5155 47.7221C83.6636 44.574 87.4862 43 91.9835 43C96.4807 43 100.303 44.574 103.451 47.7221C106.6 50.8702 108.174 54.6928 108.174 59.1901V91.5703C111.591 94.1787 114.245 97.3492 116.134 101.082C118.023 104.815 118.967 108.84 118.967 113.157C118.967 120.622 116.336 126.986 111.074 132.248C105.813 137.51 99.4489 140.141 91.9835 140.141ZM91.9835 129.347C96.4807 129.347 100.303 127.773 103.451 124.625C106.6 121.477 108.174 117.654 108.174 113.157C108.174 110.549 107.611 108.12 106.487 105.872C105.363 103.623 103.766 101.734 101.698 100.205L97.3802 96.967V59.1901C97.3802 57.661 96.863 56.3793 95.8286 55.3449C94.7943 54.3106 93.5125 53.7934 91.9835 53.7934C90.4544 53.7934 89.1727 54.3106 88.1383 55.3449C87.104 56.3793 86.5868 57.661 86.5868 59.1901V96.967L82.2694 100.205C80.2007 101.734 78.6042 103.623 77.4799 105.872C76.3555 108.12 75.7934 110.549 75.7934 113.157C75.7934 117.654 77.3674 121.477 80.5155 124.625C83.6636 127.773 87.4862 129.347 91.9835 129.347Z" fill="#0089C7"/>
</svg>
