<svg width="184" height="184" viewBox="0 0 184 184" fill="none" xmlns="http://www.w3.org/2000/svg">
<circle cx="92" cy="92" r="92" fill="#C7EEFF"/>
<circle cx="92" cy="92" r="88.9467" stroke="white" stroke-width="6.10659" stroke-dasharray="2.44 2.44"/>
<circle cx="93.3925" cy="93.9589" r="48.2948" fill="#FB8282"/>
<path d="M93.4131 147.826C85.7476 147.826 78.5439 146.372 71.802 143.462C65.0601 140.553 59.1955 136.605 54.2083 131.618C49.2212 126.631 45.273 120.766 42.3638 114.024C39.4546 107.282 38 100.079 38 92.4131C38 84.7476 39.4546 77.5439 42.3638 70.802C45.273 64.0601 49.2212 58.1955 54.2083 53.2083C59.1955 48.2212 65.0601 44.273 71.802 41.3638C78.5439 38.4546 85.7476 37 93.4131 37C101.079 37 108.282 38.4546 115.024 41.3638C121.766 44.273 127.631 48.2212 132.618 53.2083C137.605 58.1955 141.553 64.0601 144.462 70.802C147.372 77.5439 148.826 84.7476 148.826 92.4131C148.826 100.079 147.372 107.282 144.462 114.024C141.553 120.766 137.605 126.631 132.618 131.618C127.631 136.605 121.766 140.553 115.024 143.462C108.282 146.372 101.079 147.826 93.4131 147.826ZM93.4131 136.744C105.789 136.744 116.271 132.449 124.86 123.86C133.449 115.271 137.744 104.789 137.744 92.4131C137.744 80.0375 133.449 69.5552 124.86 60.9662C116.271 52.3771 105.789 48.0826 93.4131 48.0826C81.0375 48.0826 70.5552 52.3771 61.9662 60.9662C53.3771 69.5552 49.0826 80.0375 49.0826 92.4131C49.0826 104.789 53.3771 115.271 61.9662 123.86C70.5552 132.449 81.0375 136.744 93.4131 136.744Z" fill="#0089C7"/>
<path fill-rule="evenodd" clip-rule="evenodd" d="M120.784 112.564C122.495 115.578 120.028 118.949 116.562 118.949C114.546 118.949 112.758 117.744 111.647 116.061C107.738 110.138 101.024 106.23 93.3969 106.23C85.7697 106.23 79.0552 110.138 75.1464 116.061C74.0358 117.744 72.2482 118.949 70.2318 118.949C66.7658 118.949 64.2985 115.578 66.0099 112.564C71.4197 103.037 81.6577 96.6094 93.3969 96.6094C105.136 96.6094 115.374 103.037 120.784 112.564Z" fill="#DA0606"/>
<circle cx="75.3757" cy="80.5183" r="9.94017" fill="#DA0606"/>
<circle cx="113.567" cy="80.5183" r="9.94017" fill="#DA0606"/>
</svg>
