<svg width="758" height="183" viewBox="0 0 758 183" fill="none" xmlns="http://www.w3.org/2000/svg">
<g clip-path="url(#clip0_87_1768)">
<path fill-rule="evenodd" clip-rule="evenodd" d="M8.62843 111.034H8.529C7.7833 110.96 7.0376 110.786 6.36647 110.562L19.2174 136.585C20.1868 138.524 22.2002 139.866 24.5119 139.866C27.7681 139.866 30.4029 137.231 30.4029 133.975C30.4029 133.006 30.1544 132.061 29.7318 131.216L17.1792 105.889C15.7623 109.17 12.3818 111.332 8.62843 111.034ZM90.0592 2.71751H66.4701C66.9921 3.23946 67.4644 3.81111 67.8621 4.45734L67.9118 4.55675C69.8258 7.78786 69.3783 11.7646 67.0915 14.4986H113.052C110.74 11.7646 110.317 7.78786 112.231 4.55675L112.281 4.45734C112.679 3.81111 113.151 3.23946 113.673 2.71751H90.084H90.0592ZM90.0592 17.2078H61.6479C58.9882 17.3072 56.3783 16.0148 54.9117 13.579C53.2712 10.8698 54.1163 7.31562 56.8505 5.67522C59.2119 4.2585 62.2693 5.00414 63.711 7.34048C64.9041 9.32885 64.2827 11.9137 62.2942 13.1068L60.8773 10.7953C61.5733 10.3728 61.797 9.45313 61.3745 8.7572C60.7282 7.68845 59.3113 7.34048 58.2425 7.9867C56.8008 8.85662 56.3534 10.7456 57.2234 12.1871C58.1182 13.6784 59.7091 14.4986 61.3247 14.4986C62.145 14.4986 62.9653 14.2998 63.6861 13.8773C66.321 12.1623 67.1661 8.68263 65.5752 5.97347L65.5255 5.87405C64.3076 3.93539 62.2693 2.84178 60.1565 2.74236H59.4853C58.3916 2.79207 57.298 3.11518 56.3285 3.7117C45.4413 10.2485 52.8983 28.8149 27.1219 28.8149C24.3876 28.8149 21.5539 29.6848 20.4354 31.9963L6.19247 61.4491C6.96303 61.2006 7.80816 61.0763 8.65329 61.0515H8.75271C13.9229 61.1012 18.0989 65.3265 18.0989 70.4962C18.0989 83.4952 3.85593 88.5159 2.71252 101.018C2.6131 102.161 2.81195 103.255 3.20966 104.249L3.55765 104.945C4.60164 106.809 6.51561 108.126 8.80243 108.35C11.9592 108.598 14.7432 106.287 15.116 103.155C15.1658 102.31 14.9918 101.49 14.6189 100.769C13.8981 99.3028 12.4564 98.2589 10.7164 98.0849C9.05099 97.9358 7.55959 99.1785 7.41045 100.844C7.31102 102.087 8.23072 103.205 9.47356 103.304C10.2938 103.379 11.0147 102.782 11.0892 101.937L13.7986 102.186C13.5998 104.497 11.5615 106.212 9.24985 106.014C6.51561 105.765 4.47735 103.354 4.72592 100.62C4.99934 97.4636 7.80816 95.1024 10.965 95.3758C13.6743 95.5995 15.9363 97.2647 17.0549 99.5265L17.1046 99.6011L32.1429 129.998C32.7146 131.167 33.1123 132.509 33.1123 133.95C33.1123 136.137 32.3169 138.101 30.9747 139.642C36.3934 146.303 29.6572 154.53 33.5598 161.092C34.1563 162.086 34.9766 162.856 35.8963 163.428L36.5177 163.751C38.4565 164.646 40.7682 164.596 42.7319 163.453L42.8313 163.403C45.491 161.738 46.3858 158.258 44.8447 155.524C44.3724 154.803 43.751 154.257 43.055 153.884C41.5885 153.113 39.8237 153.113 38.3323 154.008C36.8906 154.878 36.4183 156.742 37.2883 158.184C37.9345 159.252 39.3265 159.6 40.3954 158.954C41.0913 158.532 41.3399 157.612 40.9173 156.916L43.2539 155.524C44.447 157.512 43.8007 160.097 41.8122 161.29C39.4508 162.707 36.3934 161.937 34.9766 159.575C33.336 156.841 34.206 153.312 36.9403 151.672C39.3762 150.205 42.2845 150.28 44.5713 151.597L72.734 166.311C74.7474 167.355 76.1891 169.095 76.9348 171.058C82.0056 171.009 86.5046 173.643 89.9597 176.8L90.0592 176.7L90.1586 176.8C93.6137 173.643 98.1127 171.009 103.184 171.058C103.929 169.095 105.346 167.355 107.384 166.311L135.547 151.597C137.834 150.28 140.767 150.205 143.203 151.672C145.937 153.312 146.807 156.841 145.167 159.575C143.75 161.937 140.692 162.707 138.331 161.29C136.342 160.097 135.696 157.512 136.889 155.524L139.226 156.916C138.803 157.612 139.027 158.532 139.748 158.954C140.817 159.6 142.209 159.252 142.855 158.184C143.725 156.742 143.253 154.878 141.811 154.008C140.32 153.113 138.53 153.113 137.088 153.884C136.392 154.257 135.746 154.803 135.298 155.524C133.757 158.258 134.652 161.738 137.312 163.403L137.411 163.453C139.375 164.596 141.687 164.621 143.625 163.751L144.247 163.428C145.191 162.881 145.987 162.086 146.583 161.092C150.486 154.53 143.75 146.303 149.169 139.642C147.851 138.126 147.031 136.137 147.031 133.95C147.031 132.509 147.404 131.167 148 129.998L163.039 99.6011L163.088 99.5265C164.207 97.2647 166.469 95.5995 169.178 95.3758C172.335 95.1024 175.144 97.4387 175.417 100.62C175.666 103.354 173.628 105.79 170.893 106.014C168.582 106.212 166.543 104.497 166.345 102.186L169.054 101.937C169.128 102.758 169.849 103.379 170.67 103.304C171.912 103.205 172.857 102.087 172.733 100.844C172.584 99.1785 171.117 97.9358 169.427 98.0849C167.687 98.2341 166.245 99.278 165.524 100.769C165.176 101.49 165.002 102.31 165.027 103.155C165.4 106.287 168.184 108.598 171.341 108.35C173.628 108.126 175.517 106.809 176.586 104.945L176.934 104.249C177.356 103.255 177.53 102.161 177.431 101.018C176.287 88.5159 162.044 83.4952 162.044 70.4962C162.044 65.3016 166.22 61.1012 171.39 61.0515H171.49C172.335 61.0515 173.18 61.2006 173.951 61.4491L159.708 31.9963C158.589 29.6848 155.756 28.8149 153.021 28.8149C127.245 28.8149 134.702 10.2485 123.815 3.7117C122.82 3.11518 121.727 2.79207 120.633 2.74236H119.962C117.849 2.84178 115.811 3.96024 114.593 5.87405L114.543 5.97347C112.952 8.68263 113.797 12.1871 116.432 13.8773C117.178 14.2998 117.973 14.4986 118.794 14.4986C120.409 14.4986 122 13.6784 122.895 12.1871C123.765 10.7456 123.317 8.88147 121.876 7.9867C120.807 7.34048 119.415 7.68845 118.744 8.7572C118.321 9.45313 118.545 10.3728 119.241 10.7953L117.824 13.1068C115.836 11.9137 115.214 9.304 116.407 7.34048C117.849 4.97928 120.906 4.23364 123.243 5.67522C125.952 7.31562 126.822 10.8698 125.182 13.579C123.715 16.0148 121.08 17.3072 118.446 17.2078H90.0592ZM90.0592 180.478L89.9597 180.578C86.5544 177.173 82.5773 173.941 77.4816 173.743C77.6059 176.402 76.5122 179.111 73.9271 180.975C71.1929 182.964 67.6881 183.113 64.8793 181.646L35.2997 166.162C35.0512 166.062 34.8274 165.938 34.6037 165.789C33.2615 165.019 32.0932 163.9 31.2232 162.459C26.7739 154.952 33.2118 146.85 28.8618 141.357C27.5693 142.127 26.0779 142.55 24.487 142.55C21.1065 142.55 18.1734 140.611 16.7814 137.778L1.14655 106.113C1.02226 105.914 0.922836 105.69 0.823409 105.467C0.177134 104.025 -0.121147 102.435 0.0279931 100.769C1.27083 87.298 15.3895 82.1034 15.3895 70.4962C15.3895 66.8177 12.4315 63.8103 8.75271 63.7358H8.65329C5.49648 63.7855 2.96109 66.3207 2.86166 69.4523C2.93623 72.0372 5.07391 74.1002 7.68387 74.1002C9.37413 74.1002 10.7413 72.7332 10.7413 71.043C10.7413 69.7755 9.72213 68.7813 8.47929 68.7813C7.65902 68.7813 6.98788 69.4523 6.98788 70.2725H4.2785C4.2785 67.9611 6.16761 66.0721 8.47929 66.0721C11.2384 66.0721 13.4506 68.309 13.4506 71.0679C13.4506 74.2493 10.8655 76.8342 7.68387 76.8342C3.63222 76.8342 0.326274 73.6528 0.152277 69.6512V69.4772V69.3032C0.226847 67.6131 0.773696 66.0472 1.6934 64.7299L1.59397 64.6802L17.9746 30.8033C19.7891 27.0254 24.0893 26.0809 27.097 26.0809C51.1832 26.0809 42.3839 8.88147 54.9117 1.3505C56.5771 0.381167 58.4165 -0.0662171 60.231 0.00834698H119.887C121.702 -0.0662171 123.541 0.356313 125.182 1.37535C137.71 8.90632 128.91 26.1058 152.996 26.1058C156.004 26.1058 160.304 27.0502 162.119 30.8282L178.499 64.7051L178.4 64.7548C179.32 66.0472 179.867 67.6379 179.941 69.3281V69.676C179.742 73.6776 176.461 76.859 172.41 76.859C169.228 76.859 166.643 74.2742 166.643 71.0928C166.643 68.3339 168.88 66.097 171.614 66.097C173.926 66.097 175.815 67.9859 175.815 70.2974H173.106C173.106 69.4772 172.434 68.8061 171.614 68.8061C170.371 68.8061 169.352 69.8252 169.352 71.0679C169.352 72.758 170.719 74.125 172.41 74.125C175.02 74.125 177.132 72.0621 177.232 69.4772C177.132 66.3455 174.597 63.8103 171.44 63.7606H171.341C167.662 63.8103 164.704 66.8177 164.704 70.5211C164.704 82.1034 178.847 87.3229 180.065 100.794C180.215 102.459 179.916 104.05 179.27 105.492C179.171 105.715 179.071 105.914 178.947 106.138L163.287 137.828C161.87 140.661 158.962 142.6 155.582 142.6C153.991 142.6 152.474 142.177 151.207 141.407C146.857 146.9 153.32 155.002 148.845 162.508C148 163.925 146.807 165.068 145.465 165.839C145.241 165.963 145.017 166.087 144.769 166.212L115.189 181.696C112.381 183.163 108.876 183.013 106.141 181.025C103.581 179.161 102.488 176.452 102.612 173.792C97.541 174.016 93.564 177.222 90.1337 180.627L90.0094 180.528L90.0592 180.478ZM66.1221 179.235C73.0074 182.815 78.5505 172.376 71.4663 168.722L48.101 156.518C48.8715 159.998 47.4298 163.751 44.2233 165.715L44.1239 165.764C43.4776 166.137 42.7816 166.435 42.1105 166.659L66.1221 179.235ZM113.996 179.235L138.008 166.659C137.312 166.46 136.641 166.162 135.994 165.764L135.895 165.715C132.688 163.751 131.247 159.998 132.017 156.518L108.677 168.722C101.593 172.4 107.136 182.815 114.021 179.235H113.996ZM171.465 111.034C167.712 111.308 164.331 109.145 162.914 105.889L150.362 131.216C149.939 132.061 149.691 133.006 149.691 133.975C149.691 137.231 152.325 139.866 155.582 139.866C157.893 139.866 159.907 138.524 160.876 136.585L173.727 110.562C173.031 110.786 172.31 110.96 171.564 111.034H171.465Z" fill="black"/>
<path d="M90.0321 37.9453H41.7852V125.484C41.7852 138.806 52.5978 149.617 65.9211 149.617H75.2423C81.0588 149.617 86.2787 152.053 89.9575 155.98L90.0321 156.08L90.1067 155.98C93.7855 152.053 99.0303 149.617 104.822 149.617H114.143C127.466 149.617 138.279 138.806 138.279 125.484V37.9453H90.0321Z" fill="#0089C7"/>
<path fill-rule="evenodd" clip-rule="evenodd" d="M90.0352 94.7969H138.282V125.492C138.282 138.815 127.469 149.626 114.146 149.626H104.825C99.0084 149.626 93.7885 152.062 90.1097 155.989L90.0352 156.089V94.7969Z" fill="#EDCE00"/>
<mask id="mask0_87_1768" style="mask-type:luminance" maskUnits="userSpaceOnUse" x="90" y="94" width="49" height="63">
<path d="M90.0366 94.7812H138.284V125.477C138.284 138.799 127.471 149.611 114.148 149.611H104.826C99.0099 149.611 93.79 152.046 90.0863 155.973L90.0117 156.073V94.7812H90.0366Z" fill="white"/>
</mask>
<g mask="url(#mask0_87_1768)">
<path d="M100.775 94.7812H95.4062V157.49H100.775V94.7812Z" fill="#B2321C"/>
<path d="M111.488 94.7812H106.119V157.49H111.488V94.7812Z" fill="#B2321C"/>
<path d="M122.205 94.7812H116.836V157.49H122.205V94.7812Z" fill="#B2321C"/>
<path d="M132.935 94.7812H127.566V157.49H132.935V94.7812Z" fill="#B2321C"/>
</g>
<path d="M90.0321 37.9453H41.7852V94.788H90.0321V37.9453Z" fill="#EDCE00"/>
<mask id="mask1_87_1768" style="mask-type:luminance" maskUnits="userSpaceOnUse" x="41" y="37" width="50" height="58">
<path d="M90.0302 37.9531H41.7832V94.7958H90.0302V37.9531Z" fill="white"/>
</mask>
<g mask="url(#mask1_87_1768)">
<path d="M52.496 37.9531H47.127V94.7958H52.496V37.9531Z" fill="#B2321C"/>
<path d="M63.2323 37.9531H57.8633V94.7958H63.2323V37.9531Z" fill="#B2321C"/>
<path d="M73.9491 37.9531H68.5801V94.7958H73.9491V37.9531Z" fill="#B2321C"/>
<path d="M84.6835 37.9531H79.3145V94.7958H84.6835V37.9531Z" fill="#B2321C"/>
</g>
<path fill-rule="evenodd" clip-rule="evenodd" d="M90.0124 159.964C85.9856 155.665 82.1826 152.309 75.1978 152.309H65.8765C51.0619 152.309 39.0312 140.304 39.0312 125.466V35.2188H140.944V125.466C140.944 140.28 128.938 152.309 114.099 152.309H104.777C97.7926 152.309 94.0144 155.689 89.9627 159.964H90.0124ZM90.0124 37.9279H41.7655V125.466C41.7655 138.788 52.5782 149.6 65.9014 149.6H75.2227C81.0392 149.6 86.2591 152.036 89.9379 155.963L90.0124 156.062L90.087 155.963C93.7658 152.036 99.0106 149.6 104.827 149.6H114.148C127.472 149.6 138.284 138.788 138.284 125.466V37.9279H90.0373H90.0124Z" fill="black"/>
<path fill-rule="evenodd" clip-rule="evenodd" d="M69.0045 133.029H68.3085H64.6048H64.1574H56.8247H55.5321H47.752V122.64H50.3371L51.0082 123.311L51.6793 122.64H52.8227L53.4939 123.311L54.165 122.64L54.1899 113.617H56.7501L57.4461 114.288L58.1172 113.617H59.3352L60.0063 114.288L60.7023 113.617H61.9203V104.57H64.4806L65.1765 105.241L65.8477 104.57H67.0656L67.7368 105.241L68.4328 104.57H70.993V113.617H72.2359L72.9318 114.288L73.603 113.617H74.7961L75.4921 114.288L76.1632 113.617H78.7483V122.64L79.4443 123.311L80.0906 122.64H81.1097L81.7808 123.311L82.452 122.64H85.0371V133.029H77.3812H75.9395H69.0045Z" fill="black"/>
<path fill-rule="evenodd" clip-rule="evenodd" d="M65.5739 131.668V129.53C65.5739 128.312 67.3885 128.312 67.3885 129.53V131.668H68.3082V122.621H69.6753V116.258H63.2871V122.621H64.6294V131.668H65.5988H65.5739Z" fill="#EDCE00"/>
<path fill-rule="evenodd" clip-rule="evenodd" d="M55.5352 122.618H56.8277H58.1451L58.8162 123.289L59.4874 122.618H60.5314L61.2025 123.289L61.8736 122.618L61.9233 114.938H60.7054V116.329H59.3382V114.938H58.1203V116.329H56.7531V114.938H55.5352V122.618Z" fill="#EDCE00"/>
<path fill-rule="evenodd" clip-rule="evenodd" d="M58.091 125.383V124.016H56.873V131.696H63.2612V124.016H62.0433V125.383H60.6761V124.016H59.4582V125.383H58.091Z" fill="#EDCE00"/>
<path fill-rule="evenodd" clip-rule="evenodd" d="M71.0444 122.618L71.7155 123.289L72.3867 122.618H73.4803L74.1266 123.289L74.7978 122.618H75.966H77.3829V114.938H76.1649V116.329H74.8226V114.938H73.6046V116.329H72.2375V114.938H71.0195V122.593L71.0444 122.618Z" fill="#EDCE00"/>
<path fill-rule="evenodd" clip-rule="evenodd" d="M70.8664 125.383V124.016H69.6484V131.696H75.9372V124.016H74.7938V125.383H73.4515V124.016H72.2335V125.383H70.8664Z" fill="#EDCE00"/>
<path fill-rule="evenodd" clip-rule="evenodd" d="M51.3792 131.696V129.558C51.3792 128.34 53.1937 128.34 53.1937 129.558V131.696H55.4805V124.016H54.2625V125.407H52.8954V124.016H51.6774V125.407H50.3352V124.016H49.1172V131.696H51.3792Z" fill="#EDCE00"/>
<path fill-rule="evenodd" clip-rule="evenodd" d="M65.5485 114.911V112.774C65.5485 111.556 67.3631 111.556 67.3631 112.774V114.911H69.6499V105.914H68.4319V107.306H67.0648V105.914H65.8468V107.306H64.4797V105.914H63.2617V114.911H65.5485Z" fill="#EDCE00"/>
<path fill-rule="evenodd" clip-rule="evenodd" d="M79.6434 131.696V129.558C79.6434 128.34 81.4579 128.34 81.4579 129.558V131.696H83.695V124.016H82.477V125.407H81.1348V124.016H79.9168V125.407H78.5497V124.016H77.4062V131.696H79.6682H79.6434Z" fill="#EDCE00"/>
<path fill-rule="evenodd" clip-rule="evenodd" d="M72.0156 130.163V127.976C72.0156 126.758 73.8302 126.758 73.8302 127.976V130.163H72.0156Z" fill="black"/>
<path fill-rule="evenodd" clip-rule="evenodd" d="M65.5527 122.668V120.481C65.5527 119.288 67.3673 119.288 67.3673 120.481V122.668H65.5527Z" fill="black"/>
<path fill-rule="evenodd" clip-rule="evenodd" d="M57.8223 120.89V118.702C57.8223 117.485 59.6368 117.485 59.6368 118.702V120.89H57.8223Z" fill="black"/>
<path fill-rule="evenodd" clip-rule="evenodd" d="M59.1836 130.163V127.976C59.1836 126.758 60.9981 126.758 60.9981 127.976V130.163H59.1836Z" fill="black"/>
<path fill-rule="evenodd" clip-rule="evenodd" d="M73.3535 120.89V118.702C73.3535 117.485 75.1681 117.485 75.1681 118.702V120.89H73.3535Z" fill="black"/>
<path fill-rule="evenodd" clip-rule="evenodd" d="M116.856 74.9821H116.16H112.456H112.009H104.676H103.384H95.6035V64.5928H98.1886L98.8598 65.2639L99.5309 64.5928H100.674L101.345 65.2639L102.017 64.5928L102.041 55.5705H104.602L105.298 56.2416L105.969 55.5705H107.187L107.858 56.2416L108.529 55.5705H109.772L109.747 46.5234H112.332L113.028 47.1945L113.699 46.5234H114.917L115.588 47.1945L116.284 46.5234H118.845V55.5705H120.087L120.783 56.2416L121.455 55.5705H122.648L123.344 56.2416L124.015 55.5705H126.6V64.5928L127.271 65.2639L127.942 64.5928H128.961L129.632 65.2639L130.304 64.5928H132.889V74.9821H125.233H123.791H116.856Z" fill="black"/>
<path fill-rule="evenodd" clip-rule="evenodd" d="M113.423 73.6287V71.4912C113.423 70.2981 115.238 70.2981 115.238 71.4912V73.6287H116.157V64.5815H117.5V58.2188H111.111V64.5815H112.454V73.6287H113.423Z" fill="#EDCE00"/>
<path fill-rule="evenodd" clip-rule="evenodd" d="M103.379 64.5942H104.671H105.989L106.66 65.2652L107.331 64.5942H108.375L109.046 65.2652L109.717 64.5942L109.767 56.9141H108.524V58.3059H107.182V56.9141H105.964V58.3059H104.597V56.9141H103.379V64.5942Z" fill="#EDCE00"/>
<path fill-rule="evenodd" clip-rule="evenodd" d="M105.943 67.3528V65.9609H104.725V73.641H111.113V65.9609H109.895V67.3528H108.528V65.9609H107.31V67.3528H105.943Z" fill="#EDCE00"/>
<path fill-rule="evenodd" clip-rule="evenodd" d="M118.896 64.5942L119.567 65.2652L120.238 64.5942H121.307L121.978 65.2652L122.649 64.5942H123.793H125.234V56.9141H124.016V58.3059H122.674V56.9141H121.431V58.3059H120.089V56.9141H118.871V64.5693L118.896 64.5942Z" fill="#EDCE00"/>
<path fill-rule="evenodd" clip-rule="evenodd" d="M118.72 67.3528V65.9609H117.502V73.641H123.791V65.9609H122.647V67.3528H121.305V65.9609H120.087V67.3528H118.72Z" fill="#EDCE00"/>
<path fill-rule="evenodd" clip-rule="evenodd" d="M99.2321 73.641V71.5035C99.2321 70.3105 101.047 70.3105 101.047 71.5035V73.641H103.333V65.9609H102.116V67.3528H100.748V65.9609H99.5304V67.3528H98.1633V65.9609H96.9453V73.641H99.2073H99.2321Z" fill="#EDCE00"/>
<path fill-rule="evenodd" clip-rule="evenodd" d="M113.399 56.8958V54.7583C113.399 53.5405 115.213 53.5405 115.213 54.7583V56.8958H117.5V47.8984H116.282V49.2903H114.94V47.8984H113.722V49.2903H112.355V47.8984H111.137V56.8958H113.424H113.399Z" fill="#EDCE00"/>
<path fill-rule="evenodd" clip-rule="evenodd" d="M127.495 73.641V71.5035C127.495 70.3105 129.309 70.3105 129.309 71.5035V73.641H131.547V65.9609H130.329V67.3528H128.986V65.9609H127.768V67.3528H126.401V65.9609H125.258V73.641H127.52H127.495Z" fill="#EDCE00"/>
<path fill-rule="evenodd" clip-rule="evenodd" d="M119.859 72.1289V69.9416C119.859 68.7486 121.674 68.7486 121.674 69.9416V72.1289H119.859Z" fill="black"/>
<path fill-rule="evenodd" clip-rule="evenodd" d="M113.396 64.621V62.4338C113.396 61.2408 115.211 61.2408 115.211 62.4338V64.621H113.396Z" fill="black"/>
<path fill-rule="evenodd" clip-rule="evenodd" d="M105.645 62.8632V60.676C105.645 59.483 107.459 59.483 107.459 60.676V62.8632H105.645Z" fill="black"/>
<path fill-rule="evenodd" clip-rule="evenodd" d="M107.037 72.1289V69.9416C107.037 68.7486 108.852 68.7486 108.852 69.9416V72.1289H107.037Z" fill="black"/>
<path fill-rule="evenodd" clip-rule="evenodd" d="M121.203 62.8632V60.676C121.203 59.483 123.018 59.483 123.018 60.676V62.8632H121.203Z" fill="black"/>
<path fill-rule="evenodd" clip-rule="evenodd" d="M80.2637 74.5391H99.7265V101.854C99.7265 107.148 95.4263 111.473 90.1069 111.473H89.8584C84.5639 111.473 80.2637 107.173 80.2637 101.854V74.5391Z" fill="#0089C7"/>
<path fill-rule="evenodd" clip-rule="evenodd" d="M85.4843 93.7637V85.0645L84.1172 83.6975V81.4854V80.0936V79.4225V78.7266H86.7271L87.3734 79.3976L88.0197 78.7266H89.362L90.0082 79.3976L90.6545 78.7266H91.9968L92.6679 79.3976L93.3142 78.7266H95.8744V79.4225V80.0936V81.4854V83.6975L94.5073 85.0645V93.7637L95.8744 95.1058V102.761V103.457V104.824H94.5073H85.4843H84.1172V103.457V102.761V95.1058L85.4843 93.7637Z" fill="black"/>
<path fill-rule="evenodd" clip-rule="evenodd" d="M89.1183 103.457V99.2567C89.1183 98.0637 90.9328 98.0637 90.9328 99.2567V103.457H94.537V95.6776L93.1948 94.3106V84.493L94.537 83.1509V80.0938H93.3439V81.4856H91.9768V80.0938H90.6842V81.4856H89.3171V80.0938H88.0246V81.4856H86.6574V80.0938H85.4395V83.126L86.7817 84.493V94.3106L85.4395 95.6776V103.457H89.0685H89.1183Z" fill="#EDCE00"/>
<path fill-rule="evenodd" clip-rule="evenodd" d="M89.1152 89.2647V87.0775C89.1152 85.8596 90.9298 85.8596 90.9298 87.0775V89.2647H89.1152Z" fill="black"/>
<path d="M99.0312 75.237H80.9603V101.856C80.9603 106.778 84.9374 110.754 89.8591 110.754H90.1076C95.0293 110.754 99.0312 106.778 99.0312 101.856V75.237ZM100.423 73.8203V101.832C100.423 107.523 95.8247 112.121 90.1076 112.121H89.8591C84.1669 112.121 79.5684 107.498 79.5684 101.832V73.8203H100.423Z" fill="black"/>
<path fill-rule="evenodd" clip-rule="evenodd" d="M234.252 63.4464H225.055L229.678 48.981L234.252 63.4464ZM232.214 44.9297H227.913L218.244 75.0784H221.376L224.036 66.2799H235.097L238.105 75.0784H241.933L232.238 44.9297H232.214Z" fill="black"/>
<path fill-rule="evenodd" clip-rule="evenodd" d="M248.695 44.9297H244.942V48.807H248.695V44.9297ZM248.496 52.7589H245.091V75.501C245.091 78.3095 244.743 80.1736 241.437 80.1736C240.567 80.1736 239.771 80.0494 238.951 79.8257V82.5845C239.995 82.8579 241.089 83.0319 242.158 83.0319C244.121 83.0319 246.16 82.3609 247.328 80.6956C248.372 79.2043 248.471 77.2159 248.471 75.501V52.7589H248.496Z" fill="black"/>
<path fill-rule="evenodd" clip-rule="evenodd" d="M272.208 52.7734H268.803V64.6291C268.803 66.7418 268.455 68.581 267.113 70.2711C265.944 71.7127 264.378 72.5578 262.539 72.5578C261.147 72.5578 259.631 71.6879 258.96 70.4451C258.313 69.3018 258.214 67.6365 258.214 66.369V52.7734H254.809V66.369C254.809 68.6556 255.057 71.2156 256.549 73.0549C257.941 74.7698 260.029 75.5652 262.216 75.5652C265.273 75.5652 267.908 73.4525 269.002 70.6937H269.076V75.1427H272.159V52.8231L272.208 52.7734Z" fill="black"/>
<path fill-rule="evenodd" clip-rule="evenodd" d="M281.556 52.7762H278.324V75.0957H281.73V63.414C281.73 61.1771 282.028 59.139 283.47 57.3992C284.638 55.9825 286.254 55.1623 288.043 55.1623C289.485 55.1623 291.101 55.9079 291.821 57.1755C292.468 58.3188 292.443 59.9841 292.443 61.3014V75.0957H295.848V62.7429C295.848 60.5557 295.923 57.5483 294.804 55.6593C293.412 53.323 291.2 52.1797 288.54 52.1797C285.408 52.1797 282.923 54.1184 281.655 56.8772H281.556V52.7513V52.7762Z" fill="black"/>
<path fill-rule="evenodd" clip-rule="evenodd" d="M312.402 72.552L309.792 72.7757C307.008 72.7757 306.262 71.4087 306.262 68.8238V55.3277H311.184V52.5937H306.262V46.7031L302.857 47.0511V52.5937H298.93V55.3277H302.857V68.2521C302.857 72.7011 304.299 75.5594 309.121 75.5594L312.377 75.286V72.552H312.402Z" fill="black"/>
<path fill-rule="evenodd" clip-rule="evenodd" d="M326.992 61.2502C324.257 61.2502 320.976 61.3745 318.515 62.5675C316.079 63.6611 314.414 66.072 314.414 68.7563C314.414 73.2053 317.993 75.5168 322.12 75.5168C325.649 75.5168 328.309 74.125 329.875 70.8939L330.273 75.0694H333.678C333.231 73.6279 333.206 71.9875 333.206 70.3719V61.7225C333.206 59.1624 333.206 56.3539 331.366 54.3903C329.726 52.4517 326.967 52.2031 324.58 52.2031C320.529 52.2031 315.657 53.6447 315.06 58.3174L318.242 58.8393C318.863 55.7573 321.498 54.8874 324.282 54.8874C328.21 54.8874 329.9 56.3787 329.9 60.2809V61.2502H327.016H326.992ZM329.85 65.3015C329.85 69.2534 327.016 72.8574 322.841 72.8574C320.405 72.8574 318.043 71.7141 318.043 68.9552C318.043 64.3322 323.536 63.86 327.016 63.86H329.85V65.3015Z" fill="black"/>
<path fill-rule="evenodd" clip-rule="evenodd" d="M339.199 52.7762V75.0957H342.605V62.2955C342.605 60.4563 342.828 58.6419 343.947 57.2003C344.867 56.0073 346.433 54.9883 347.949 54.9883C349.465 54.9883 350.857 55.8333 351.652 57.1506C352.299 58.2442 352.398 59.6858 352.398 60.9285V75.0709H355.804V63.0163C355.804 60.9037 355.754 59.2881 357.022 57.4737C358.016 56.0322 359.582 54.9634 361.297 54.9634C362.813 54.9634 364.255 55.8333 365.001 57.2998C365.696 58.6668 365.597 60.2575 365.597 61.7487V75.0709H369.002V61.7487C369.002 59.6858 369.052 57.2252 367.958 55.3859C366.84 53.4473 364.653 52.1797 362.391 52.1797C358.985 52.1797 356.475 54.4166 355.257 57.4986C354.561 54.3669 352.249 52.1797 349.042 52.1797C345.836 52.1797 343.549 54.3669 342.431 57.0512H342.331V52.7513H339.249L339.199 52.7762Z" fill="black"/>
<path fill-rule="evenodd" clip-rule="evenodd" d="M377.556 61.6479C377.68 58.1185 380.091 54.8377 383.77 54.8377C387.697 54.8377 389.735 57.9694 389.686 61.6479H377.531H377.556ZM389.86 68.3338C388.915 70.9684 386.802 72.6337 383.944 72.6337C381.632 72.6337 379.32 71.3661 378.276 69.2534C377.456 67.5882 377.357 65.9478 377.357 64.2079H393.414C393.588 58.0191 390.63 52.2031 383.745 52.2031C376.86 52.2031 373.504 57.7954 373.504 63.9345C373.504 70.0736 376.934 75.5417 383.645 75.5417C387.871 75.5417 391.749 73.0811 393.041 69.0049L389.81 68.3338H389.86Z" fill="black"/>
<path fill-rule="evenodd" clip-rule="evenodd" d="M401.661 52.7762H398.43V75.0957H401.835V63.414C401.835 61.1771 402.133 59.139 403.575 57.3992C404.743 55.9825 406.359 55.1623 408.149 55.1623C409.59 55.1623 411.206 55.9079 411.927 57.1755C412.573 58.3188 412.548 59.9841 412.548 61.3014V75.0957H415.954V62.7429C415.954 60.5557 416.053 57.5483 414.91 55.6593C413.518 53.323 411.305 52.1797 408.646 52.1797C405.514 52.1797 403.028 54.1184 401.761 56.8772H401.661V52.7513V52.7762Z" fill="black"/>
<path fill-rule="evenodd" clip-rule="evenodd" d="M432.508 72.552L429.898 72.7757C427.114 72.7757 426.368 71.4087 426.368 68.8238V55.3277H431.29V52.5937H426.368V46.7031L422.963 47.0511V52.5937H419.035V55.3277H422.963V68.2521C422.963 72.7011 424.404 75.5594 429.226 75.5594L432.483 75.286V72.552H432.508Z" fill="black"/>
<path fill-rule="evenodd" clip-rule="evenodd" d="M463.078 55.7926C461.512 53.5557 459.499 52.1887 456.69 52.1887C450.302 52.1887 447.543 58.3526 447.543 63.9201C447.543 66.6541 448.115 69.4627 449.631 71.7493C451.247 74.1354 453.459 75.5272 456.367 75.5272C459.623 75.5272 461.885 73.9365 463.277 71.1279H463.377V75.0798H466.459V44.9062H463.054V55.7677L463.078 55.7926ZM463.078 65.4114C463.078 67.0766 462.805 68.5431 461.761 69.9846C460.618 71.5753 458.853 72.6689 456.889 72.6689C452.141 72.6689 451.197 67.176 451.197 63.5224C451.197 61.5092 451.495 59.4711 452.514 57.7064C453.434 56.0909 455.075 54.8978 456.989 54.8978C458.903 54.8978 460.866 55.8175 461.96 57.4082C462.88 58.7255 463.103 60.3162 463.103 61.8571V65.4114H463.078Z" fill="black"/>
<path fill-rule="evenodd" clip-rule="evenodd" d="M474.988 61.6479C475.112 58.1185 477.523 54.8377 481.202 54.8377C485.129 54.8377 487.168 57.9694 487.118 61.6479H474.963H474.988ZM487.317 68.3338C486.372 70.9684 484.259 72.6337 481.401 72.6337C479.089 72.6337 476.777 71.3661 475.733 69.2534C474.913 67.5882 474.814 65.9478 474.814 64.2079H490.871C491.045 58.0191 488.087 52.2031 481.202 52.2031C474.317 52.2031 470.961 57.7954 470.961 63.9345C470.961 70.0736 474.391 75.5417 481.102 75.5417C485.328 75.5417 489.206 73.0811 490.498 69.0049L487.267 68.3338H487.317Z" fill="black"/>
<path fill-rule="evenodd" clip-rule="evenodd" d="M246.258 101.482C244.07 95.2185 238.975 93.0312 232.736 93.0312C229.455 93.0312 226.372 93.7769 223.787 95.9641C221.227 98.1265 219.935 101.059 219.935 104.415C219.935 112.294 226.174 114.183 232.537 115.5C234.724 115.972 238.776 116.544 238.776 119.551C238.776 122.559 235.594 123.429 233.208 123.429C229.504 123.429 226.795 122.111 225.776 118.333L218.07 120.123C219.686 127.157 225.776 130.114 232.487 130.114C236.067 130.114 239.969 129.419 242.852 127.182C245.612 125.019 247.277 121.664 247.277 118.134C247.277 114.605 245.512 111.573 242.604 109.609C240.093 107.919 236.191 107.198 233.283 106.552C231.244 106.179 228.137 105.558 228.137 102.923C228.137 100.14 230.847 99.568 233.084 99.568C236.265 99.568 238.179 100.786 239.223 103.818L246.308 101.457L246.258 101.482Z" fill="black"/>
<path fill-rule="evenodd" clip-rule="evenodd" d="M266.789 117.859C266.789 119.748 266.839 121.339 265.745 123.004C264.85 124.371 263.458 125.216 261.892 125.216C259.754 125.216 258.512 123.8 258.512 121.687C258.512 117.81 263.881 117.114 266.789 116.791V117.835V117.859ZM275.116 129.591C274.693 128.274 274.594 126.956 274.594 125.589V113.137C274.594 109.931 274.842 106.998 272.158 104.786C270.02 102.996 266.491 102.375 263.781 102.375C258.213 102.375 251.974 104.264 251.204 110.726L258.437 111.422C258.437 108.788 260.575 107.52 263.011 107.52C264.154 107.52 265.447 107.893 266.143 108.788C266.913 109.782 266.814 111.149 266.814 112.317V112.938C263.582 113.261 259.381 113.46 256.349 114.628C252.869 115.946 250.408 118.63 250.408 122.557C250.408 127.603 254.037 130.113 258.735 130.113C262.687 130.113 264.974 128.597 267.162 125.44C267.112 126.807 267.211 128.224 267.535 129.591H275.141H275.116Z" fill="black"/>
<path fill-rule="evenodd" clip-rule="evenodd" d="M279.269 129.597H286.925V115.256C286.925 113.566 287.024 112.05 287.795 110.534C288.416 109.316 289.659 108.545 291.026 108.545C294.879 108.545 294.506 112.547 294.506 115.281V129.622H302.162V113.119C302.162 110.708 302.162 107.327 300.696 105.339C299.13 103.177 296.694 102.406 294.183 102.406C290.33 102.406 288.143 104.047 286.577 107.452H286.477V102.928H279.244V129.622L279.269 129.597Z" fill="black"/>
<path fill-rule="evenodd" clip-rule="evenodd" d="M322.393 102.898H316.726V94.5469L310.064 95.0688L309.393 102.898H304.77V109.037H309.095V120.818C309.095 123.403 309.095 126.609 311.232 128.374C312.947 129.791 315.856 130.114 318.043 130.114C319.435 130.114 321.324 129.915 322.84 129.542V123.701C321.946 123.801 320.976 123.9 320.28 123.9C316.999 123.9 316.75 123.105 316.75 119.6V109.037H322.418V102.898H322.393Z" fill="black"/>
<path fill-rule="evenodd" clip-rule="evenodd" d="M356.948 93.5391H348.621V117.549C348.621 118.717 348.67 120.506 347.9 121.501C347.03 122.644 345.563 122.967 344.196 122.967C342.829 122.967 341.487 122.768 340.145 122.544V129.578L345.762 130.1C353.816 130.1 356.948 126.621 356.948 118.543V93.5391Z" fill="black"/>
<path fill-rule="evenodd" clip-rule="evenodd" d="M373.898 107.472C375.663 107.472 376.905 108.168 377.552 109.883C378.273 111.871 378.372 114.406 378.372 116.494C378.372 119.7 378.173 124.944 373.848 124.944C369.523 124.944 369.523 118.433 369.523 115.375C369.523 112.318 369.796 107.447 373.898 107.447V107.472ZM373.848 102.376C365.77 102.376 361.32 108.416 361.32 116.196C361.32 123.975 365.745 130.114 373.848 130.114C381.951 130.114 386.6 124.075 386.6 116.444C386.6 108.814 382.125 102.352 373.848 102.352V102.376Z" fill="black"/>
<path fill-rule="evenodd" clip-rule="evenodd" d="M410.982 109.359C409.168 104.363 405.787 102.375 400.567 102.375C394.95 102.375 389.282 104.736 389.282 111.323C389.282 114.678 391.37 117.412 394.477 118.531C396.143 119.102 400.518 119.898 402.332 120.096C403.724 120.246 405.29 120.569 405.29 122.358C405.29 124.347 402.108 124.869 400.667 124.869C398.231 124.869 395.372 124.023 394.85 121.289L388.238 122.234C389.655 128.224 394.8 130.113 400.319 130.113C403.227 130.113 406.135 129.591 408.546 127.901C410.783 126.285 412.076 123.8 412.076 121.016C412.076 108.986 396.217 114.653 396.217 109.657C396.217 107.719 398.604 107.296 400.17 107.296C402.655 107.296 404.644 108.34 405.315 110.875L410.982 109.359Z" fill="black"/>
<path fill-rule="evenodd" clip-rule="evenodd" d="M423.015 112.988C423.263 109.931 424.581 107.421 427.961 107.421C431.342 107.421 432.237 110.105 432.386 112.988H423.015ZM440.017 117.561C440.066 113.932 439.495 110.155 437.307 107.097C435.12 104.04 431.317 102.375 427.638 102.375C419.41 102.375 414.787 108.738 414.787 116.617C414.787 124.496 419.932 130.113 427.837 130.113C436.785 130.113 439.843 122.234 439.843 120.917L432.759 120.395C432.759 122.855 430.422 124.595 428.085 124.595C424.755 124.595 422.99 122.01 422.99 118.879L423.04 117.561H439.992H440.017Z" fill="black"/>
<path fill-rule="evenodd" clip-rule="evenodd" d="M444.316 102.903V138.595H451.972V126.664H452.072C453.165 129.026 455.552 130.144 458.162 130.144C465.867 130.144 468.253 122.887 468.253 116.325C468.253 113.069 467.93 109.863 466.265 107.029C464.5 103.972 461.99 102.406 458.46 102.406C454.93 102.406 452.991 103.922 451.599 106.88H451.5V102.928H444.316V102.903ZM451.972 114.61C451.972 113.044 451.972 111.404 452.743 109.987C453.414 108.67 454.657 107.825 456.173 107.825C460.026 107.825 460.225 113.342 460.225 116.076C460.225 118.81 460.076 124.651 456.123 124.651C454.781 124.651 453.414 123.806 452.693 122.663C451.798 121.196 451.972 118.935 451.972 117.244V114.61Z" fill="black"/>
<path fill-rule="evenodd" clip-rule="evenodd" d="M502.331 118.459C502.331 119.776 502.282 121.193 501.66 122.411C501.039 123.629 499.746 124.573 498.329 124.573C494.526 124.573 494.104 119.677 494.104 116.794C494.104 113.588 494.253 107.796 498.628 107.796C502.108 107.796 502.331 112.221 502.331 114.781V118.459ZM509.962 129.594V93.5547H502.307V105.733C500.641 103.273 498.653 102.378 495.695 102.378C487.989 102.378 486.025 110.207 486.025 116.57C486.025 122.933 488.113 130.141 495.546 130.141C498.926 130.141 501.113 128.302 502.58 125.468H502.679V129.619H509.962V129.594Z" fill="black"/>
<path fill-rule="evenodd" clip-rule="evenodd" d="M521.824 112.988C522.072 109.931 523.39 107.421 526.77 107.421C530.151 107.421 531.046 110.105 531.195 112.988H521.824ZM538.851 117.561C538.9 113.932 538.329 110.155 536.141 107.097C533.954 104.04 530.151 102.375 526.472 102.375C518.244 102.375 513.621 108.738 513.621 116.617C513.621 124.496 518.766 130.113 526.671 130.113C535.619 130.113 538.677 122.234 538.677 120.917L531.593 120.395C531.593 122.855 529.256 124.595 526.919 124.595C523.589 124.595 521.824 122.01 521.824 118.879L521.874 117.561H538.826H538.851Z" fill="black"/>
<path fill-rule="evenodd" clip-rule="evenodd" d="M578.717 109.359C576.902 104.363 573.522 102.375 568.302 102.375C562.684 102.375 557.017 104.736 557.017 111.323C557.017 114.678 559.105 117.412 562.212 118.531C563.877 119.102 568.252 119.898 570.066 120.096C571.458 120.246 573.024 120.569 573.024 122.358C573.024 124.347 569.843 124.869 568.401 124.869C565.965 124.869 563.107 124.023 562.585 121.289L555.973 122.234C557.389 128.224 562.535 130.113 568.053 130.113C570.961 130.113 573.87 129.591 576.281 127.901C578.518 126.285 579.81 123.8 579.81 121.016C579.81 108.986 563.952 114.653 563.952 109.657C563.952 107.719 566.338 107.296 567.904 107.296C570.414 107.296 572.378 108.34 573.049 110.875L578.717 109.359Z" fill="black"/>
<path fill-rule="evenodd" clip-rule="evenodd" d="M599.173 117.859C599.173 119.748 599.223 121.339 598.129 123.004C597.234 124.371 595.842 125.216 594.276 125.216C592.139 125.216 590.896 123.8 590.896 121.687C590.896 117.81 596.265 117.114 599.173 116.791V117.835V117.859ZM607.5 129.591C607.077 128.274 606.978 126.956 606.978 125.589V113.137C606.978 109.931 607.252 106.998 604.542 104.786C602.404 102.996 598.875 102.375 596.165 102.375C590.597 102.375 584.358 104.264 583.563 110.726L590.796 111.422C590.796 108.788 592.934 107.52 595.37 107.52C596.513 107.52 597.806 107.893 598.502 108.788C599.272 109.782 599.173 111.149 599.173 112.317V112.938C595.942 113.261 591.741 113.46 588.708 114.628C585.228 115.946 582.768 118.63 582.768 122.557C582.768 127.603 586.397 130.113 591.095 130.113C595.047 130.113 597.334 128.597 599.521 125.44C599.471 126.807 599.571 128.224 599.894 129.591H607.5Z" fill="black"/>
<path fill-rule="evenodd" clip-rule="evenodd" d="M651.394 93.5391H625.07V100.697H634.118V129.603H642.445V100.697H651.394V93.5391Z" fill="black"/>
<path fill-rule="evenodd" clip-rule="evenodd" d="M667.06 117.859C667.06 119.748 667.109 121.339 666.016 123.004C665.121 124.371 663.729 125.216 662.163 125.216C660.025 125.216 658.782 123.8 658.782 121.687C658.782 117.81 664.151 117.114 667.06 116.791V117.835V117.859ZM675.387 129.591C674.964 128.274 674.865 126.956 674.865 125.589V113.137C674.865 109.931 675.113 106.998 672.429 104.786C670.291 102.996 666.761 102.375 664.052 102.375C658.484 102.375 652.245 104.264 651.45 110.726L658.683 111.422C658.683 108.788 660.821 107.52 663.257 107.52C664.4 107.52 665.693 107.893 666.389 108.788C667.159 109.782 667.06 111.149 667.06 112.317V112.938C663.828 113.261 659.628 113.46 656.595 114.628C653.115 115.946 650.654 118.63 650.654 122.557C650.654 127.603 654.283 130.113 658.981 130.113C662.933 130.113 665.22 128.597 667.408 125.44C667.358 126.807 667.457 128.224 667.781 129.591H675.387Z" fill="black"/>
<path d="M687.439 93.5391H679.783V129.578H687.439V93.5391Z" fill="black"/>
<path fill-rule="evenodd" clip-rule="evenodd" d="M708.126 117.859C708.126 119.748 708.176 121.339 707.082 123.004C706.187 124.371 704.795 125.216 703.229 125.216C701.092 125.216 699.849 123.8 699.849 121.687C699.849 117.81 705.218 117.114 708.126 116.791V117.835V117.859ZM716.453 129.591C716.031 128.274 715.931 126.956 715.931 125.589V113.137C715.931 109.931 716.205 106.998 713.495 104.786C711.358 102.996 707.828 102.375 705.119 102.375C699.551 102.375 693.312 104.264 692.516 110.726L699.749 111.422C699.749 108.788 701.887 107.52 704.323 107.52C705.467 107.52 706.759 107.893 707.455 108.788C708.226 109.782 708.126 111.149 708.126 112.317V112.938C704.895 113.261 700.694 113.46 697.662 114.628C694.182 115.946 691.721 118.63 691.721 122.557C691.721 127.603 695.35 130.113 700.048 130.113C704 130.113 706.287 128.597 708.474 125.44C708.424 126.807 708.524 128.224 708.847 129.591H716.453Z" fill="black"/>
<path fill-rule="evenodd" clip-rule="evenodd" d="M728.533 93.0078H720.877V100.464H728.533V93.0078ZM728.533 102.9H720.877V129.594H728.533V102.9Z" fill="black"/>
<path fill-rule="evenodd" clip-rule="evenodd" d="M749.21 117.859C749.21 119.748 749.26 121.339 748.166 123.004C747.271 124.371 745.879 125.216 744.313 125.216C742.176 125.216 740.933 123.8 740.933 121.687C740.933 117.81 746.302 117.114 749.21 116.791V117.835V117.859ZM757.537 129.591C757.115 128.274 757.015 126.956 757.015 125.589V113.137C757.015 109.931 757.289 106.998 754.579 104.786C752.442 102.996 748.912 102.375 746.203 102.375C740.635 102.375 734.396 104.264 733.6 110.726L740.833 111.422C740.833 108.788 742.971 107.52 745.407 107.52C746.55 107.52 747.843 107.893 748.539 108.788C749.31 109.782 749.21 111.149 749.21 112.317V112.938C745.979 113.261 741.778 113.46 738.745 114.628C735.266 115.946 732.805 118.63 732.805 122.557C732.805 127.603 736.459 130.113 741.132 130.113C745.084 130.113 747.371 128.597 749.558 125.44C749.508 126.807 749.608 128.224 749.931 129.591H757.537Z" fill="black"/>
</g>
<defs>
<clipPath id="clip0_87_1768">
<rect width="757.534" height="182.607" fill="white"/>
</clipPath>
</defs>
</svg>
