<svg width="184" height="45" viewBox="0 0 184 45" fill="none" xmlns="http://www.w3.org/2000/svg">
<g clip-path="url(#clip0_87_1588)">
<path fill-rule="evenodd" clip-rule="evenodd" d="M2.71601 27.574H2.69203C2.51219 27.556 2.33236 27.514 2.17051 27.4601L5.26965 33.7358C5.50344 34.2033 5.98899 34.527 6.54647 34.527C7.33175 34.527 7.96716 33.8916 7.96716 33.1064C7.96716 32.8727 7.90722 32.6449 7.80531 32.4411L4.7781 26.3332C4.43642 27.1244 3.62117 27.6459 2.71601 27.574ZM22.3539 1.45223H16.6651C16.791 1.5781 16.9049 1.71597 17.0008 1.87181L17.0128 1.89579C17.4744 2.675 17.3665 3.63404 16.815 4.29338H27.8988C27.3413 3.63404 27.2394 2.675 27.701 1.89579L27.713 1.87181C27.8089 1.71597 27.9228 1.5781 28.0487 1.45223H22.3599H22.3539ZM22.3539 4.94672H15.5022C14.8608 4.9707 14.2314 4.65901 13.8777 4.0716C13.4821 3.41826 13.6859 2.56112 14.3453 2.16551C14.9148 1.82386 15.6521 2.00368 15.9998 2.56711C16.2875 3.04663 16.1376 3.67 15.6581 3.95771L15.3164 3.40027C15.4842 3.29838 15.5382 3.0766 15.4363 2.90877C15.2804 2.65103 14.9387 2.56711 14.681 2.72295C14.3333 2.93274 14.2254 3.38829 14.4352 3.73594C14.651 4.09557 15.0346 4.29338 15.4243 4.29338C15.6221 4.29338 15.8199 4.24542 15.9938 4.14353C16.6292 3.72994 16.833 2.89079 16.4493 2.23744L16.4374 2.21347C16.1436 1.74594 15.6521 1.4822 15.1425 1.45823H14.9807C14.7169 1.47021 14.4532 1.54813 14.2194 1.69199C11.5938 3.26841 13.3922 7.74591 7.17589 7.74591C6.5165 7.74591 5.83313 7.9557 5.56338 8.51313L2.12855 15.616C2.31438 15.5561 2.51819 15.5261 2.722 15.5201H2.74598C3.99283 15.5321 4.9999 16.5511 4.9999 17.7978C4.9999 20.9327 1.56507 22.1434 1.28932 25.1584C1.26534 25.4341 1.3133 25.6979 1.40921 25.9376L1.49313 26.1055C1.7449 26.555 2.20648 26.8727 2.75797 26.9266C3.51927 26.9866 4.19065 26.4291 4.28056 25.6739C4.29255 25.4701 4.25059 25.2723 4.16067 25.0985C3.98683 24.7448 3.63915 24.4931 3.21954 24.4511C2.81791 24.4152 2.45824 24.7149 2.42228 25.1164C2.3983 25.4161 2.62009 25.6859 2.91982 25.7099C3.11764 25.7278 3.29148 25.584 3.30946 25.3802L3.96286 25.4401C3.9149 25.9976 3.42335 26.4111 2.86587 26.3632C2.20648 26.3033 1.71493 25.7218 1.77487 25.0625C1.84081 24.3013 2.51819 23.7318 3.27949 23.7978C3.93288 23.8517 4.47838 24.2533 4.74813 24.7988L4.76012 24.8167L8.38678 32.1474C8.52465 32.4291 8.62056 32.7528 8.62056 33.1004C8.62056 33.6279 8.42874 34.1014 8.10504 34.473C9.41183 36.0794 7.78733 38.0634 8.72846 39.6458C8.87233 39.8856 9.07015 40.0714 9.29194 40.2093L9.4418 40.2872C9.90937 40.503 10.4669 40.491 10.9404 40.2153L10.9644 40.2033C11.6058 39.8017 11.8216 38.9625 11.45 38.3032C11.3361 38.1294 11.1862 37.9975 11.0184 37.9076C10.6647 37.7218 10.2391 37.7218 9.8794 37.9376C9.53172 38.1474 9.41783 38.5969 9.62763 38.9445C9.78349 39.2023 10.1192 39.2862 10.3769 39.1304C10.5448 39.0285 10.6047 38.8067 10.5028 38.6389L11.0663 38.3032C11.354 38.7827 11.1982 39.4061 10.7186 39.6938C10.1492 40.0355 9.41183 39.8496 9.07015 39.2802C8.67451 38.6209 8.88432 37.7697 9.54371 37.3741C10.1312 37.0205 10.8325 37.0385 11.384 37.3561L18.1758 40.9046C18.6613 41.1563 19.009 41.5759 19.1888 42.0494C20.4117 42.0374 21.4967 42.6728 22.3299 43.434L22.3539 43.4101L22.3779 43.434C23.2111 42.6728 24.2961 42.0374 25.519 42.0494C25.6988 41.5759 26.0405 41.1563 26.532 40.9046L33.3238 37.3561C33.8753 37.0385 34.5826 37.0205 35.1701 37.3741C35.8295 37.7697 36.0393 38.6209 35.6437 39.2802C35.302 39.8496 34.5646 40.0355 33.9952 39.6938C33.5156 39.4061 33.3598 38.7827 33.6475 38.3032L34.211 38.6389C34.1091 38.8067 34.163 39.0285 34.3369 39.1304C34.5946 39.2862 34.9303 39.2023 35.0862 38.9445C35.296 38.5969 35.1821 38.1474 34.8344 37.9376C34.4747 37.7218 34.0431 37.7218 33.6954 37.9076C33.5276 37.9975 33.3717 38.1294 33.2638 38.3032C32.8922 38.9625 33.108 39.8017 33.7494 40.2033L33.7734 40.2153C34.2469 40.491 34.8044 40.497 35.272 40.2872L35.4219 40.2093C35.6496 40.0774 35.8415 39.8856 35.9853 39.6458C36.9265 38.0634 35.302 36.0794 36.6088 34.473C36.291 34.1074 36.0932 33.6279 36.0932 33.1004C36.0932 32.7528 36.1832 32.4291 36.327 32.1474L39.9537 24.8167L39.9657 24.7988C40.2354 24.2533 40.7809 23.8517 41.4343 23.7978C42.1956 23.7318 42.873 24.2953 42.9389 25.0625C42.9989 25.7218 42.5073 26.3092 41.8479 26.3632C41.2904 26.4111 40.7989 25.9976 40.7509 25.4401L41.4043 25.3802C41.4223 25.578 41.5962 25.7278 41.794 25.7099C42.0937 25.6859 42.3215 25.4161 42.2915 25.1164C42.2555 24.7149 41.9019 24.4152 41.4943 24.4511C41.0746 24.4871 40.727 24.7388 40.5531 25.0985C40.4692 25.2723 40.4272 25.4701 40.4332 25.6739C40.5231 26.4291 41.1945 26.9866 41.9558 26.9266C42.5073 26.8727 42.9629 26.555 43.2207 26.1055L43.3046 25.9376C43.4065 25.6979 43.4484 25.4341 43.4245 25.1584C43.1487 22.1434 39.7139 20.9327 39.7139 17.7978C39.7139 16.5451 40.721 15.5321 41.9678 15.5201H41.9918C42.1956 15.5201 42.3994 15.5561 42.5852 15.616L39.1504 8.51313C38.8807 7.9557 38.1973 7.74591 37.5379 7.74591C31.3216 7.74591 33.12 3.26841 30.4944 1.69199C30.2546 1.54813 29.9909 1.47021 29.7271 1.45823H29.5653C29.0557 1.4822 28.5642 1.75193 28.2704 2.21347L28.2585 2.23744C27.8748 2.89079 28.0786 3.73594 28.714 4.14353C28.8939 4.24542 29.0857 4.29338 29.2835 4.29338C29.6732 4.29338 30.0568 4.09557 30.2726 3.73594C30.4824 3.38829 30.3745 2.93874 30.0268 2.72295C29.7691 2.56711 29.4334 2.65103 29.2715 2.90877C29.1696 3.0766 29.2236 3.29838 29.3914 3.40027L29.0497 3.95771C28.5702 3.67 28.4203 3.04064 28.708 2.56711C29.0557 1.99768 29.793 1.81786 30.3565 2.16551C31.0099 2.56112 31.2197 3.41826 30.8241 4.0716C30.4704 4.65901 29.835 4.9707 29.1996 4.94672H22.3539ZM22.3539 44.3211L22.3299 44.3451C21.5087 43.5239 20.5496 42.7447 19.3207 42.6968C19.3507 43.3381 19.0869 43.9915 18.4635 44.441C17.8041 44.9205 16.9589 44.9565 16.2815 44.6029L9.14808 40.8686C9.08813 40.8446 9.03418 40.8147 8.98023 40.7787C8.65653 40.5929 8.37479 40.3232 8.16498 39.9755C7.09197 38.1653 8.64454 36.2113 7.59551 34.8866C7.28379 35.0724 6.92413 35.1743 6.54048 35.1743C5.72523 35.1743 5.01788 34.7068 4.68219 34.0235L0.91167 26.3872C0.881697 26.3392 0.857719 26.2853 0.833742 26.2313C0.677885 25.8837 0.605952 25.5001 0.641918 25.0985C0.941642 21.8497 4.3465 20.597 4.3465 17.7978C4.3465 16.9107 3.63316 16.1854 2.74598 16.1674H2.722C1.9607 16.1794 1.34927 16.7908 1.32529 17.5461C1.34327 18.1694 1.8588 18.6669 2.48822 18.6669C2.89584 18.6669 3.22554 18.3373 3.22554 17.9297C3.22554 17.624 2.97976 17.3842 2.68004 17.3842C2.48222 17.3842 2.32037 17.5461 2.32037 17.7439H1.66697C1.66697 17.1864 2.12255 16.7309 2.68004 16.7309C3.34543 16.7309 3.87893 17.2703 3.87893 17.9357C3.87893 18.7029 3.25551 19.3263 2.48822 19.3263C1.51112 19.3263 0.713852 18.559 0.671891 17.594V17.5521V17.5101C0.689874 17.1025 0.821753 16.7249 1.04355 16.4072L1.01957 16.3952L4.96993 8.22542C5.40752 7.31434 6.44457 7.08657 7.1699 7.08657C12.9785 7.08657 10.8565 2.93874 13.8777 1.12256C14.2793 0.888798 14.7229 0.780906 15.1605 0.798888H29.5473C29.9849 0.780906 30.4285 0.882804 30.8241 1.12856C33.8453 2.94473 31.7233 7.09256 37.5319 7.09256C38.2572 7.09256 39.2943 7.32033 39.7319 8.23142L43.6822 16.4012L43.6583 16.4132C43.8801 16.7249 44.0119 17.1085 44.0299 17.5161V17.6C43.982 18.565 43.1907 19.3323 42.2136 19.3323C41.4463 19.3323 40.8229 18.7089 40.8229 17.9417C40.8229 17.2763 41.3624 16.7369 42.0218 16.7369C42.5793 16.7369 43.0348 17.1924 43.0348 17.7499H42.3814C42.3814 17.5521 42.2196 17.3902 42.0218 17.3902C41.722 17.3902 41.4763 17.636 41.4763 17.9357C41.4763 18.3433 41.806 18.6729 42.2136 18.6729C42.843 18.6729 43.3525 18.1754 43.3765 17.5521C43.3525 16.7968 42.7411 16.1854 41.9798 16.1734H41.9558C41.0686 16.1854 40.3553 16.9107 40.3553 17.8038C40.3553 20.597 43.7662 21.8557 44.0599 25.1045C44.0959 25.5061 44.0239 25.8897 43.8681 26.2373C43.8441 26.2913 43.8201 26.3392 43.7901 26.3932L40.0136 34.0355C39.6719 34.7188 38.9706 35.1863 38.1553 35.1863C37.7717 35.1863 37.406 35.0844 37.1003 34.8986C36.0513 36.2233 37.6098 38.1773 36.5308 39.9875C36.327 40.3292 36.0393 40.6049 35.7156 40.7907C35.6616 40.8207 35.6077 40.8506 35.5477 40.8806L28.4143 44.6148C27.7369 44.9685 26.8917 44.9325 26.2323 44.453C25.6149 44.0035 25.3511 43.3501 25.3811 42.7088C24.1582 42.7627 23.1991 43.5359 22.3719 44.3571L22.3419 44.3331L22.3539 44.3211ZM16.5812 44.0215C18.2417 44.8846 19.5785 42.3671 17.87 41.486L12.2352 38.543C12.4211 39.3821 12.0734 40.2872 11.3001 40.7607L11.2761 40.7727C11.1203 40.8626 10.9524 40.9346 10.7906 40.9885L16.5812 44.0215ZM28.1266 44.0215L33.9172 40.9885C33.7494 40.9405 33.5875 40.8686 33.4317 40.7727L33.4077 40.7607C32.6344 40.2872 32.2867 39.3821 32.4726 38.543L26.8438 41.486C25.1353 42.3731 26.4721 44.8846 28.1326 44.0215H28.1266ZM41.9858 27.574C41.0806 27.6399 40.2654 27.1184 39.9237 26.3332L36.8965 32.4411C36.7946 32.6449 36.7346 32.8727 36.7346 33.1064C36.7346 33.8916 37.3701 34.527 38.1553 34.527C38.7128 34.527 39.1984 34.2033 39.4322 33.7358L42.5313 27.4601C42.3634 27.514 42.1896 27.556 42.0098 27.574H41.9858Z" fill="black"/>
<path d="M22.3423 9.96875H10.707V31.0795C10.707 34.2923 13.3146 36.8997 16.5277 36.8997H18.7756C20.1783 36.8997 21.4371 37.4871 22.3243 38.4341L22.3423 38.4581L22.3603 38.4341C23.2475 37.4871 24.5123 36.8997 25.909 36.8997H28.1569C31.37 36.8997 33.9776 34.2923 33.9776 31.0795V9.96875H22.3423Z" fill="#0089C7"/>
<path fill-rule="evenodd" clip-rule="evenodd" d="M22.3438 23.6562H33.979V31.0588C33.979 34.2716 31.3714 36.879 28.1584 36.879H25.9105C24.5078 36.879 23.2489 37.4664 22.3617 38.4134L22.3438 38.4374V23.6562Z" fill="#EDCE00"/>
<mask id="mask0_87_1588" style="mask-type:luminance" maskUnits="userSpaceOnUse" x="22" y="23" width="12" height="16">
<path d="M22.338 23.6641H33.9733V31.0666C33.9733 34.2794 31.3657 36.8868 28.1527 36.8868H25.9047C24.502 36.8868 23.2432 37.4742 22.35 38.4212L22.332 38.4452V23.6641H22.338Z" fill="white"/>
</mask>
<g mask="url(#mask0_87_1588)">
<path d="M24.9257 23.6641H23.6309V38.7869H24.9257V23.6641Z" fill="#B2321C"/>
<path d="M27.5096 23.6641H26.2148V38.7869H27.5096V23.6641Z" fill="#B2321C"/>
<path d="M30.0878 23.6641H28.793V38.7869H30.0878V23.6641Z" fill="#B2321C"/>
<path d="M32.6835 23.6641H31.3887V38.7869H32.6835V23.6641Z" fill="#B2321C"/>
</g>
<path d="M22.3423 9.96875H10.707V23.677H22.3423V9.96875Z" fill="#EDCE00"/>
<mask id="mask1_87_1588" style="mask-type:luminance" maskUnits="userSpaceOnUse" x="10" y="9" width="13" height="15">
<path d="M22.3462 9.9375H10.7109V23.6457H22.3462V9.9375Z" fill="white"/>
</mask>
<g mask="url(#mask1_87_1588)">
<path d="M13.2929 9.9375H11.998V23.6457H13.2929V9.9375Z" fill="#B2321C"/>
<path d="M15.8807 9.9375H14.5859V23.6457H15.8807V9.9375Z" fill="#B2321C"/>
<path d="M18.4628 9.9375H17.168V23.6457H18.4628V9.9375Z" fill="#B2321C"/>
<path d="M21.0585 9.9375H19.7637V23.6457H21.0585V9.9375Z" fill="#B2321C"/>
</g>
<path fill-rule="evenodd" clip-rule="evenodd" d="M22.3376 39.3885C21.3665 38.3515 20.4494 37.5423 18.7649 37.5423H16.517C12.9443 37.5423 10.043 34.6472 10.043 31.0688V9.30469H34.6203V31.0688C34.6203 34.6412 31.725 37.5423 28.1463 37.5423H25.8984C24.2139 37.5423 23.3027 38.3575 22.3256 39.3885H22.3376ZM22.3376 9.95803H10.7024V31.0688C10.7024 34.2816 13.31 36.889 16.523 36.889H18.7709C20.1736 36.889 21.4325 37.4764 22.3197 38.4234L22.3376 38.4474L22.3556 38.4234C23.2428 37.4764 24.5076 36.889 25.9103 36.889H28.1583C31.3713 36.889 33.9789 34.2816 33.9789 31.0688V9.95803H22.3436H22.3376Z" fill="black"/>
<path fill-rule="evenodd" clip-rule="evenodd" d="M17.2718 32.8631H17.1039H16.2107H16.1028H14.3345H14.0228H12.1465V30.3576H12.7699L12.9318 30.5195L13.0936 30.3576H13.3694L13.5312 30.5195L13.6931 30.3576L13.6991 28.1818H14.3165L14.4843 28.3436L14.6462 28.1818H14.9399L15.1018 28.3436L15.2696 28.1818H15.5633V26H16.1808L16.3486 26.1618L16.5105 26H16.8042L16.966 26.1618L17.1339 26H17.7513V28.1818H18.051L18.2189 28.3436L18.3807 28.1818H18.6685L18.8363 28.3436L18.9982 28.1818H19.6216V30.3576L19.7894 30.5195L19.9453 30.3576H20.1911L20.3529 30.5195L20.5148 30.3576H21.1382V32.8631H19.2919H18.9442H17.2718Z" fill="black"/>
<path fill-rule="evenodd" clip-rule="evenodd" d="M16.4441 32.5522V32.0367C16.4441 31.743 16.8817 31.743 16.8817 32.0367V32.5522H17.1035V30.3704H17.4332V28.8359H15.8926V30.3704H16.2163V32.5522H16.4501H16.4441Z" fill="#EDCE00"/>
<path fill-rule="evenodd" clip-rule="evenodd" d="M14.0254 30.3669H14.337H14.6545L14.8163 30.5287L14.9781 30.3669H15.2297L15.3915 30.5287L15.5533 30.3669L15.5653 28.5156H15.2717V28.8511H14.9421V28.5156H14.6485V28.8511H14.319V28.5156H14.0254V30.3669Z" fill="#EDCE00"/>
<path fill-rule="evenodd" clip-rule="evenodd" d="M14.643 31.0247V30.6953H14.3496V32.5456H15.8887V30.6953H15.5952V31.0247H15.2659V30.6953H14.9724V31.0247H14.643Z" fill="#EDCE00"/>
<path fill-rule="evenodd" clip-rule="evenodd" d="M17.7638 30.3669L17.9256 30.5287L18.0874 30.3669H18.351L18.5068 30.5287L18.6686 30.3669H18.9502H19.2917V28.5156H18.9981V28.8511H18.6746V28.5156H18.381V28.8511H18.0514V28.5156H17.7578V30.3609L17.7638 30.3669Z" fill="#EDCE00"/>
<path fill-rule="evenodd" clip-rule="evenodd" d="M17.727 31.0247V30.6953H17.4336V32.5456H18.9487V30.6953H18.6732V31.0247H18.3498V30.6953H18.0564V31.0247H17.727Z" fill="#EDCE00"/>
<path fill-rule="evenodd" clip-rule="evenodd" d="M13.0215 32.5456V32.0306C13.0215 31.7372 13.4587 31.7372 13.4587 32.0306V32.5456H14.0096V30.6953H13.7162V31.0306H13.3868V30.6953H13.0934V31.0306H12.77V30.6953H12.4766V32.5456H13.0215Z" fill="#EDCE00"/>
<path fill-rule="evenodd" clip-rule="evenodd" d="M16.438 28.505V27.9897C16.438 27.6961 16.8755 27.6961 16.8755 27.9897V28.505H17.4268V26.3359H17.1331V26.6715H16.8036V26.3359H16.5099V26.6715H16.1803V26.3359H15.8867V28.505H16.438Z" fill="#EDCE00"/>
<path fill-rule="evenodd" clip-rule="evenodd" d="M19.8378 32.5456V32.0306C19.8378 31.7372 20.275 31.7372 20.275 32.0306V32.5456H20.8139V30.6953H20.5205V31.0306H20.1971V30.6953H19.9037V31.0306H19.5743V30.6953H19.2988V32.5456H19.8438H19.8378Z" fill="#EDCE00"/>
<path fill-rule="evenodd" clip-rule="evenodd" d="M17.9961 32.1942V31.6659C17.9961 31.3718 18.4344 31.3718 18.4344 31.6659V32.1942H17.9961Z" fill="black"/>
<path fill-rule="evenodd" clip-rule="evenodd" d="M16.4395 30.385V29.8567C16.4395 29.5686 16.8777 29.5686 16.8777 29.8567V30.385H16.4395Z" fill="black"/>
<path fill-rule="evenodd" clip-rule="evenodd" d="M14.5723 29.9598V29.4316C14.5723 29.1374 15.0105 29.1374 15.0105 29.4316V29.9598H14.5723Z" fill="black"/>
<path fill-rule="evenodd" clip-rule="evenodd" d="M14.9023 32.1942V31.6659C14.9023 31.3718 15.3406 31.3718 15.3406 31.6659V32.1942H14.9023Z" fill="black"/>
<path fill-rule="evenodd" clip-rule="evenodd" d="M18.3184 29.9598V29.4316C18.3184 29.1374 18.7566 29.1374 18.7566 29.4316V29.9598H18.3184Z" fill="black"/>
<path fill-rule="evenodd" clip-rule="evenodd" d="M28.8147 18.8787H28.6469H27.7537H27.6458H25.8774H25.5657H23.6895V16.3732H24.3129L24.4747 16.5351L24.6366 16.3732H24.9123L25.0742 16.5351L25.236 16.3732L25.242 14.1974H25.8595L26.0273 14.3593L26.1891 14.1974H26.4829L26.6447 14.3593L26.8066 14.1974H27.1063L27.1003 12.0156H27.7237L27.8916 12.1775L28.0534 12.0156H28.3472L28.509 12.1775L28.6769 12.0156H29.2943V14.1974H29.594L29.7619 14.3593L29.9237 14.1974H30.2114L30.3793 14.3593L30.5411 14.1974H31.1646V16.3732L31.3264 16.5351L31.4883 16.3732H31.734L31.8959 16.5351L32.0577 16.3732H32.6812V18.8787H30.8349H30.4872H28.8147Z" fill="black"/>
<path fill-rule="evenodd" clip-rule="evenodd" d="M27.9891 18.56V18.0445C27.9891 17.7568 28.4267 17.7568 28.4267 18.0445V18.56H28.6485V16.3782H28.9722V14.8438H27.4316V16.3782H27.7553V18.56H27.9891Z" fill="#EDCE00"/>
<path fill-rule="evenodd" clip-rule="evenodd" d="M25.5625 16.3669H25.8741H26.1916L26.3534 16.5287L26.5152 16.3669H26.7668L26.9286 16.5287L27.0904 16.3669L27.1024 14.5156H26.8028V14.8511H26.4792V14.5156H26.1856V14.8511H25.8561V14.5156H25.5625V16.3669Z" fill="#EDCE00"/>
<path fill-rule="evenodd" clip-rule="evenodd" d="M26.1802 17.0463V16.7109H25.8867V18.5612H27.4258V16.7109H27.1323V17.0463H26.803V16.7109H26.5095V17.0463H26.1802Z" fill="#EDCE00"/>
<path fill-rule="evenodd" clip-rule="evenodd" d="M29.3009 16.3669L29.4627 16.5287L29.6245 16.3669H29.8821L30.0439 16.5287L30.2057 16.3669H30.4813H30.8288V14.5156H30.5352V14.8511H30.2117V14.5156H29.9121V14.8511H29.5885V14.5156H29.2949V16.3609L29.3009 16.3669Z" fill="#EDCE00"/>
<path fill-rule="evenodd" clip-rule="evenodd" d="M29.2583 17.0463V16.7109H28.9648V18.5612H30.4799V16.7109H30.2045V17.0463H29.8811V16.7109H29.5877V17.0463H29.2583Z" fill="#EDCE00"/>
<path fill-rule="evenodd" clip-rule="evenodd" d="M24.5666 18.5612V18.0463C24.5666 17.7588 25.0037 17.7588 25.0037 18.0463V18.5612H25.5547V16.7109H25.2612V17.0463H24.9319V16.7109H24.6384V17.0463H24.3091V16.7109H24.0156V18.5612H24.5606H24.5666Z" fill="#EDCE00"/>
<path fill-rule="evenodd" clip-rule="evenodd" d="M27.9828 14.4972V13.9819C27.9828 13.6883 28.4203 13.6883 28.4203 13.9819V14.4972H28.9716V12.3281H28.6779V12.6637H28.3543V12.3281H28.0607V12.6637H27.7311V12.3281H27.4375V14.4972H27.9888H27.9828Z" fill="#EDCE00"/>
<path fill-rule="evenodd" clip-rule="evenodd" d="M31.3769 18.5612V18.0463C31.3769 17.7588 31.814 17.7588 31.814 18.0463V18.5612H32.353V16.7109H32.0596V17.0463H31.7362V16.7109H31.4427V17.0463H31.1134V16.7109H30.8379V18.5612H31.3828H31.3769Z" fill="#EDCE00"/>
<path fill-rule="evenodd" clip-rule="evenodd" d="M29.5371 18.1975V17.6692C29.5371 17.3811 29.9754 17.3811 29.9754 17.6692V18.1975H29.5371Z" fill="black"/>
<path fill-rule="evenodd" clip-rule="evenodd" d="M27.9785 16.3772V15.8489C27.9785 15.5608 28.4168 15.5608 28.4168 15.8489V16.3772H27.9785Z" fill="black"/>
<path fill-rule="evenodd" clip-rule="evenodd" d="M26.1074 15.9475V15.4192C26.1074 15.1311 26.5457 15.1311 26.5457 15.4192V15.9475H26.1074Z" fill="black"/>
<path fill-rule="evenodd" clip-rule="evenodd" d="M26.4434 18.1975V17.6692C26.4434 17.3811 26.8816 17.3811 26.8816 17.6692V18.1975H26.4434Z" fill="black"/>
<path fill-rule="evenodd" clip-rule="evenodd" d="M29.8613 15.9475V15.4192C29.8613 15.1311 30.2996 15.1311 30.2996 15.4192V15.9475H29.8613Z" fill="black"/>
<path fill-rule="evenodd" clip-rule="evenodd" d="M19.9902 18.7734H24.6839V25.3608C24.6839 26.6375 23.6469 27.6805 22.364 27.6805H22.3041C21.0273 27.6805 19.9902 26.6435 19.9902 25.3608V18.7734Z" fill="#0089C7"/>
<path fill-rule="evenodd" clip-rule="evenodd" d="M21.2496 23.4154V21.3175L20.9199 20.9879V20.4544V20.1187V19.9569V19.7891H21.5493L21.7052 19.9509L21.8611 19.7891H22.1848L22.3406 19.9509L22.4965 19.7891H22.8202L22.982 19.9509L23.1379 19.7891H23.7553V19.9569V20.1187V20.4544V20.9879L23.4256 21.3175V23.4154L23.7553 23.7391V25.5852V25.7531V26.0827H23.4256H21.2496H20.9199V25.7531V25.5852V23.7391L21.2496 23.4154Z" fill="black"/>
<path fill-rule="evenodd" clip-rule="evenodd" d="M22.1196 25.7437V24.7307C22.1196 24.443 22.5572 24.443 22.5572 24.7307V25.7437H23.4264V23.8676L23.1027 23.5379V21.1703L23.4264 20.8466V20.1094H23.1387V20.445H22.809V20.1094H22.4973V20.445H22.1676V20.1094H21.8558V20.445H21.5262V20.1094H21.2324V20.8406L21.5561 21.1703V23.5379L21.2324 23.8676V25.7437H22.1076H22.1196Z" fill="#EDCE00"/>
<path fill-rule="evenodd" clip-rule="evenodd" d="M22.123 22.327V21.7987C22.123 21.5046 22.5613 21.5046 22.5613 21.7987V22.327H22.123Z" fill="black"/>
<path d="M24.5159 18.9354H20.158V25.355C20.158 26.5418 21.1171 27.5008 22.304 27.5008H22.3639C23.5508 27.5008 24.5159 26.5418 24.5159 25.355V18.9354ZM24.8516 18.5938V25.349C24.8516 26.7216 23.7427 27.8305 22.3639 27.8305H22.304C20.9312 27.8305 19.8223 26.7156 19.8223 25.349V18.5938H24.8516Z" fill="black"/>
<path fill-rule="evenodd" clip-rule="evenodd" d="M57.1261 16.0905H54.9081L56.0231 12.602L57.1261 16.0905ZM56.6345 11.625H55.5975L53.2656 18.8957H54.0209L54.6623 16.7738H57.3299L58.0552 18.8957H58.9784L56.6405 11.625H56.6345Z" fill="black"/>
<path fill-rule="evenodd" clip-rule="evenodd" d="M60.6037 11.625H59.6986V12.5601H60.6037V11.625ZM60.5558 13.5131H59.7345V18.9976C59.7345 19.6749 59.6506 20.1245 58.8534 20.1245C58.6435 20.1245 58.4517 20.0945 58.2539 20.0405V20.7059C58.5057 20.7718 58.7694 20.8138 59.0272 20.8138C59.5008 20.8138 59.9923 20.6519 60.274 20.2503C60.5258 19.8907 60.5498 19.4112 60.5498 18.9976V13.5131H60.5558Z" fill="black"/>
<path fill-rule="evenodd" clip-rule="evenodd" d="M66.2782 13.5156H65.4569V16.3748C65.4569 16.8842 65.373 17.3278 65.0493 17.7354C64.7676 18.083 64.3899 18.2868 63.9463 18.2868C63.6106 18.2868 63.245 18.077 63.0831 17.7773C62.9273 17.5016 62.9033 17.1 62.9033 16.7943V13.5156H62.082V16.7943C62.082 17.3458 62.142 17.9632 62.5016 18.4067C62.8373 18.8203 63.3409 19.0121 63.8684 19.0121C64.6057 19.0121 65.2411 18.5026 65.5049 17.8373H65.5229V18.9102H66.2662V13.5276L66.2782 13.5156Z" fill="black"/>
<path fill-rule="evenodd" clip-rule="evenodd" d="M68.5351 13.5267H67.7559V18.9093H68.5771V16.0921C68.5771 15.5526 68.649 15.0611 68.9967 14.6415C69.2785 14.2999 69.6681 14.1021 70.0997 14.1021C70.4474 14.1021 70.837 14.2819 71.0109 14.5876C71.1667 14.8633 71.1607 15.2649 71.1607 15.5826V18.9093H71.982V15.9303C71.982 15.4028 71.9999 14.6775 71.7302 14.222C71.3945 13.6585 70.861 13.3828 70.2196 13.3828C69.4643 13.3828 68.8648 13.8503 68.5591 14.5157H68.5351V13.5207V13.5267Z" fill="black"/>
<path fill-rule="evenodd" clip-rule="evenodd" d="M75.9717 18.2884L75.3422 18.3424C74.6709 18.3424 74.491 18.0127 74.491 17.3893V14.1346H75.6779V13.4753H74.491V12.0547L73.6698 12.1386V13.4753H72.7227V14.1346H73.6698V17.2515C73.6698 18.3244 74.0175 19.0137 75.1804 19.0137L75.9657 18.9478V18.2884H75.9717Z" fill="black"/>
<path fill-rule="evenodd" clip-rule="evenodd" d="M79.4863 15.5646C78.8269 15.5646 78.0357 15.5946 77.4422 15.8823C76.8548 16.146 76.4531 16.7275 76.4531 17.3748C76.4531 18.4477 77.3163 19.0052 78.3114 19.0052C79.1626 19.0052 79.804 18.6695 80.1817 17.8903L80.2776 18.8973H81.0988C80.9909 18.5496 80.985 18.154 80.985 17.7644V15.6785C80.985 15.0611 80.9849 14.3838 80.5414 13.9103C80.1457 13.4428 79.4803 13.3828 78.9049 13.3828C77.9278 13.3828 76.7529 13.7305 76.609 14.8573L77.3763 14.9832C77.5261 14.24 78.1616 14.0302 78.8329 14.0302C79.7801 14.0302 80.1877 14.3898 80.1877 15.3309V15.5646H79.4923H79.4863ZM80.1757 16.5416C80.1757 17.4947 79.4923 18.3638 78.4853 18.3638C77.8978 18.3638 77.3283 18.0881 77.3283 17.4228C77.3283 16.3079 78.6531 16.194 79.4923 16.194H80.1757V16.5416Z" fill="black"/>
<path fill-rule="evenodd" clip-rule="evenodd" d="M82.4316 13.5267V18.9093H83.2529V15.8224C83.2529 15.3788 83.3068 14.9412 83.5766 14.5936C83.7984 14.3059 84.176 14.0601 84.5417 14.0601C84.9074 14.0601 85.243 14.2639 85.4349 14.5816C85.5907 14.8453 85.6147 15.193 85.6147 15.4927V18.9033H86.4359V15.9962C86.4359 15.4867 86.424 15.0971 86.7297 14.6595C86.9695 14.3119 87.3471 14.0541 87.7607 14.0541C88.1264 14.0541 88.4741 14.2639 88.6539 14.6176C88.8217 14.9472 88.7978 15.3309 88.7978 15.6905V18.9033H89.619V15.6905C89.619 15.193 89.631 14.5996 89.3672 14.156C89.0975 13.6885 88.57 13.3828 88.0245 13.3828C87.2032 13.3828 86.5978 13.9223 86.3041 14.6655C86.1362 13.9103 85.5787 13.3828 84.8054 13.3828C84.0322 13.3828 83.4807 13.9103 83.2109 14.5576H83.1869V13.5207H82.4436L82.4316 13.5267Z" fill="black"/>
<path fill-rule="evenodd" clip-rule="evenodd" d="M91.6841 15.6605C91.7141 14.8094 92.2956 14.0182 93.1828 14.0182C94.1299 14.0182 94.6214 14.7734 94.6094 15.6605H91.6781H91.6841ZM94.6514 17.2729C94.4236 17.9083 93.9141 18.3099 93.2247 18.3099C92.6672 18.3099 92.1097 18.0042 91.858 17.4947C91.6602 17.0931 91.6362 16.6975 91.6362 16.2779H95.5086C95.5506 14.7854 94.8372 13.3828 93.1768 13.3828C91.5163 13.3828 90.707 14.7315 90.707 16.212C90.707 17.6925 91.5343 19.0112 93.1528 19.0112C94.1718 19.0112 95.107 18.4178 95.4187 17.4347L94.6394 17.2729H94.6514Z" fill="black"/>
<path fill-rule="evenodd" clip-rule="evenodd" d="M97.4961 13.5267H96.7168V18.9093H97.538V16.0921C97.538 15.5526 97.61 15.0611 97.9577 14.6415C98.2394 14.2999 98.629 14.1021 99.0606 14.1021C99.4083 14.1021 99.798 14.2819 99.9718 14.5876C100.128 14.8633 100.122 15.2649 100.122 15.5826V18.9093H100.943V15.9303C100.943 15.4028 100.967 14.6775 100.691 14.222C100.355 13.6585 99.8219 13.3828 99.1805 13.3828C98.4252 13.3828 97.8258 13.8503 97.5201 14.5157H97.4961V13.5207V13.5267Z" fill="black"/>
<path fill-rule="evenodd" clip-rule="evenodd" d="M104.933 18.2884L104.303 18.3424C103.632 18.3424 103.452 18.0127 103.452 17.3893V14.1346H104.639V13.4753H103.452V12.0547L102.631 12.1386V13.4753H101.684V14.1346H102.631V17.2515C102.631 18.3244 102.978 19.0137 104.141 19.0137L104.927 18.9478V18.2884H104.933Z" fill="black"/>
<path fill-rule="evenodd" clip-rule="evenodd" d="M112.307 14.2504C111.929 13.7109 111.444 13.3812 110.767 13.3812C109.226 13.3812 108.561 14.8677 108.561 16.2104C108.561 16.8697 108.698 17.547 109.064 18.0985C109.454 18.6739 109.987 19.0096 110.689 19.0096C111.474 19.0096 112.019 18.626 112.355 17.9486H112.379V18.9017H113.122V11.625H112.301V14.2444L112.307 14.2504ZM112.307 16.57C112.307 16.9716 112.241 17.3253 111.989 17.6729C111.714 18.0565 111.288 18.3203 110.814 18.3203C109.67 18.3203 109.442 16.9956 109.442 16.1145C109.442 15.629 109.514 15.1375 109.759 14.7119C109.981 14.3223 110.377 14.0346 110.838 14.0346C111.3 14.0346 111.774 14.2564 112.037 14.64C112.259 14.9577 112.313 15.3413 112.313 15.7129V16.57H112.307Z" fill="black"/>
<path fill-rule="evenodd" clip-rule="evenodd" d="M115.176 15.6605C115.206 14.8094 115.788 14.0182 116.675 14.0182C117.622 14.0182 118.113 14.7734 118.101 15.6605H115.17H115.176ZM118.149 17.2729C117.922 17.9083 117.412 18.3099 116.723 18.3099C116.165 18.3099 115.608 18.0042 115.356 17.4947C115.158 17.0931 115.134 16.6975 115.134 16.2779H119.007C119.049 14.7854 118.335 13.3828 116.675 13.3828C115.014 13.3828 114.205 14.7315 114.205 16.212C114.205 17.6925 115.032 19.0112 116.651 19.0112C117.67 19.0112 118.605 18.4178 118.917 17.4347L118.137 17.2729H118.149Z" fill="black"/>
<path fill-rule="evenodd" clip-rule="evenodd" d="M60.0223 25.2801C59.4948 23.7697 58.266 23.2422 56.7613 23.2422C55.9701 23.2422 55.2268 23.422 54.6033 23.9495C53.9859 24.471 53.6742 25.1782 53.6742 25.9874C53.6742 27.8875 55.1788 28.3431 56.7134 28.6607C57.2409 28.7746 58.218 28.9125 58.218 29.6378C58.218 30.363 57.4507 30.5728 56.8752 30.5728C55.9821 30.5728 55.3287 30.2551 55.0829 29.3441L53.2246 29.7756C53.6143 31.4719 55.0829 32.1852 56.7014 32.1852C57.5646 32.1852 58.5057 32.0174 59.2011 31.4779C59.8665 30.9564 60.2681 30.1472 60.2681 29.2961C60.2681 28.445 59.8425 27.7137 59.1412 27.2402C58.5357 26.8326 57.5946 26.6588 56.8932 26.5029C56.4017 26.413 55.6524 26.2632 55.6524 25.6278C55.6524 24.9565 56.3058 24.8186 56.8453 24.8186C57.6126 24.8186 58.0741 25.1123 58.3259 25.8436L60.0343 25.2741L60.0223 25.2801Z" fill="black"/>
<path fill-rule="evenodd" clip-rule="evenodd" d="M64.9718 29.203C64.9718 29.6585 64.9838 30.0422 64.7201 30.4438C64.5043 30.7734 64.1686 30.9772 63.7909 30.9772C63.2754 30.9772 62.9757 30.6356 62.9757 30.1261C62.9757 29.191 64.2705 29.0232 64.9718 28.9453V29.197V29.203ZM66.98 32.0322C66.8781 31.7145 66.8541 31.3968 66.8541 31.0671V28.0641C66.8541 27.2909 66.9141 26.5836 66.2666 26.0502C65.7511 25.6186 64.8999 25.4688 64.2465 25.4688C62.9038 25.4688 61.3991 25.9243 61.2133 27.4827L62.9577 27.6506C62.9577 27.0152 63.4732 26.7095 64.0607 26.7095C64.3364 26.7095 64.6481 26.7994 64.816 27.0152C65.0018 27.255 64.9778 27.5846 64.9778 27.8663V28.0162C64.1986 28.0941 63.1855 28.1421 62.4542 28.4238C61.6149 28.7415 61.0215 29.3888 61.0215 30.3359C61.0215 31.5526 61.8967 32.158 63.0296 32.158C63.9828 32.158 64.5342 31.7924 65.0618 31.0312C65.0498 31.3608 65.0737 31.7025 65.1517 32.0322H66.986H66.98Z" fill="black"/>
<path fill-rule="evenodd" clip-rule="evenodd" d="M67.9826 32.0418H69.8289V28.5833C69.8289 28.1757 69.8528 27.81 70.0387 27.4444C70.1885 27.1507 70.4883 26.9649 70.8179 26.9649C71.7471 26.9649 71.6572 27.9299 71.6572 28.5893V32.0478H73.5035V28.0678C73.5035 27.4864 73.5035 26.6712 73.1498 26.1917C72.7721 25.6702 72.1847 25.4844 71.5792 25.4844C70.6501 25.4844 70.1226 25.88 69.7449 26.7012H69.721V25.6102H67.9766V32.0478L67.9826 32.0418Z" fill="black"/>
<path fill-rule="evenodd" clip-rule="evenodd" d="M78.379 25.6155H77.0122V23.6016L75.4057 23.7274L75.2439 25.6155H74.1289V27.096H75.1719V29.9372C75.1719 30.5606 75.1719 31.3338 75.6875 31.7594C76.1011 32.101 76.8024 32.1789 77.33 32.1789C77.6656 32.1789 78.1212 32.131 78.4869 32.0411V30.6325C78.2711 30.6565 78.0373 30.6804 77.8695 30.6804C77.0782 30.6804 77.0182 30.4886 77.0182 29.6435V27.096H78.385V25.6155H78.379Z" fill="black"/>
<path fill-rule="evenodd" clip-rule="evenodd" d="M86.7124 23.3672H84.7043V29.1574C84.7043 29.4391 84.7163 29.8707 84.5304 30.1104C84.3206 30.3861 83.967 30.4641 83.6373 30.4641C83.3076 30.4641 82.9839 30.4161 82.6602 30.3622V32.0585L84.0149 32.1843C85.9571 32.1843 86.7124 31.3452 86.7124 29.3971V23.3672Z" fill="black"/>
<path fill-rule="evenodd" clip-rule="evenodd" d="M90.8008 26.7035C91.2264 26.7035 91.5261 26.8713 91.682 27.2849C91.8558 27.7644 91.8798 28.3758 91.8798 28.8793C91.8798 29.6525 91.8318 30.9173 90.7888 30.9173C89.7458 30.9173 89.7458 29.3469 89.7458 28.6096C89.7458 27.8723 89.8117 26.6975 90.8008 26.6975V26.7035ZM90.7888 25.4747C88.8406 25.4747 87.7676 26.9313 87.7676 28.8074C87.7676 30.6835 88.8346 32.164 90.7888 32.164C92.743 32.164 93.864 30.7075 93.864 28.8673C93.864 27.0272 92.7849 25.4688 90.7888 25.4688V25.4747Z" fill="black"/>
<path fill-rule="evenodd" clip-rule="evenodd" d="M99.7467 27.1531C99.3091 25.9483 98.4938 25.4688 97.235 25.4688C95.8802 25.4688 94.5135 26.0382 94.5135 27.6266C94.5135 28.4358 95.017 29.0951 95.7663 29.3648C96.168 29.5027 97.223 29.6945 97.6606 29.7425C97.9963 29.7784 98.3739 29.8563 98.3739 30.2879C98.3739 30.7674 97.6066 30.8933 97.259 30.8933C96.6715 30.8933 95.9821 30.6895 95.8563 30.0302L94.2617 30.2579C94.6034 31.7025 95.8443 32.158 97.175 32.158C97.8764 32.158 98.5777 32.0322 99.1592 31.6246C99.6987 31.235 100.01 30.6356 100.01 29.9642C100.01 27.0631 96.1859 28.4298 96.1859 27.225C96.1859 26.7575 96.7614 26.6556 97.1391 26.6556C97.7385 26.6556 98.2181 26.9073 98.3799 27.5187L99.7467 27.1531Z" fill="black"/>
<path fill-rule="evenodd" clip-rule="evenodd" d="M102.648 28.0282C102.708 27.2909 103.026 26.6855 103.841 26.6855C104.656 26.6855 104.872 27.3329 104.908 28.0282H102.648ZM106.748 29.1311C106.76 28.2559 106.623 27.3449 106.095 26.6076C105.568 25.8703 104.65 25.4688 103.763 25.4688C101.779 25.4688 100.664 27.0032 100.664 28.9033C100.664 30.8034 101.905 32.158 103.811 32.158C105.969 32.158 106.706 30.2579 106.706 29.9403L104.998 29.8144C104.998 30.4078 104.435 30.8274 103.871 30.8274C103.068 30.8274 102.642 30.204 102.642 29.4488L102.654 29.1311H106.742H106.748Z" fill="black"/>
<path fill-rule="evenodd" clip-rule="evenodd" d="M107.785 25.6043V34.2116H109.631V31.3345H109.655C109.919 31.9039 110.495 32.1737 111.124 32.1737C112.982 32.1737 113.558 30.4234 113.558 28.841C113.558 28.0558 113.48 27.2826 113.078 26.5993C112.653 25.862 112.047 25.4844 111.196 25.4844C110.345 25.4844 109.877 25.85 109.542 26.5633H109.518V25.6102H107.785V25.6043ZM109.631 28.4274C109.631 28.0498 109.631 27.6542 109.817 27.3125C109.979 26.9949 110.279 26.7911 110.645 26.7911C111.574 26.7911 111.622 28.1217 111.622 28.7811C111.622 29.4404 111.586 30.849 110.633 30.849C110.309 30.849 109.979 30.6452 109.805 30.3695C109.589 30.0158 109.631 29.4704 109.631 29.0628V28.4274Z" fill="black"/>
<path fill-rule="evenodd" clip-rule="evenodd" d="M121.776 29.3732C121.776 29.6908 121.764 30.0325 121.614 30.3262C121.464 30.6199 121.153 30.8477 120.811 30.8477C119.894 30.8477 119.792 29.6669 119.792 28.9716C119.792 28.1983 119.828 26.8017 120.883 26.8017C121.722 26.8017 121.776 27.8687 121.776 28.486V29.3732ZM123.616 32.0585V23.3672H121.77V26.3042C121.369 25.7108 120.889 25.495 120.176 25.495C118.317 25.495 117.844 27.3832 117.844 28.9176C117.844 30.4521 118.347 32.1903 120.14 32.1903C120.955 32.1903 121.482 31.7468 121.836 31.0635H121.86V32.0644H123.616V32.0585Z" fill="black"/>
<path fill-rule="evenodd" clip-rule="evenodd" d="M126.474 28.0282C126.534 27.2909 126.852 26.6855 127.667 26.6855C128.482 26.6855 128.698 27.3329 128.734 28.0282H126.474ZM130.58 29.1311C130.592 28.2559 130.455 27.3449 129.927 26.6076C129.4 25.8703 128.482 25.4688 127.595 25.4688C125.611 25.4688 124.496 27.0032 124.496 28.9033C124.496 30.8034 125.737 32.158 127.643 32.158C129.801 32.158 130.539 30.2579 130.539 29.9403L128.83 29.8144C128.83 30.4078 128.267 30.8274 127.703 30.8274C126.9 30.8274 126.474 30.204 126.474 29.4488L126.486 29.1311H130.574H130.58Z" fill="black"/>
<path fill-rule="evenodd" clip-rule="evenodd" d="M140.194 27.1531C139.756 25.9483 138.941 25.4688 137.682 25.4688C136.327 25.4688 134.961 26.0382 134.961 27.6266C134.961 28.4358 135.464 29.0951 136.214 29.3648C136.615 29.5027 137.67 29.6945 138.108 29.7425C138.444 29.7784 138.821 29.8563 138.821 30.2879C138.821 30.7674 138.054 30.8933 137.706 30.8933C137.119 30.8933 136.429 30.6895 136.304 30.0302L134.709 30.2579C135.051 31.7025 136.292 32.158 137.622 32.158C138.324 32.158 139.025 32.0322 139.606 31.6246C140.146 31.235 140.458 30.6356 140.458 29.9642C140.458 27.0631 136.633 28.4298 136.633 27.225C136.633 26.7575 137.209 26.6556 137.586 26.6556C138.192 26.6556 138.665 26.9073 138.827 27.5187L140.194 27.1531Z" fill="black"/>
<path fill-rule="evenodd" clip-rule="evenodd" d="M145.13 29.203C145.13 29.6585 145.142 30.0422 144.878 30.4438C144.663 30.7734 144.327 30.9772 143.949 30.9772C143.434 30.9772 143.134 30.6356 143.134 30.1261C143.134 29.191 144.429 29.0232 145.13 28.9453V29.197V29.203ZM147.138 32.0322C147.036 31.7145 147.012 31.3968 147.012 31.0671V28.0641C147.012 27.2909 147.078 26.5836 146.425 26.0502C145.909 25.6186 145.058 25.4688 144.405 25.4688C143.062 25.4688 141.557 25.9243 141.366 27.4827L143.11 27.6506C143.11 27.0152 143.626 26.7095 144.213 26.7095C144.489 26.7095 144.8 26.7994 144.968 27.0152C145.154 27.255 145.13 27.5846 145.13 27.8663V28.0162C144.351 28.0941 143.338 28.1421 142.607 28.4238C141.767 28.7415 141.174 29.3888 141.174 30.3359C141.174 31.5526 142.049 32.158 143.182 32.158C144.135 32.158 144.687 31.7924 145.214 31.0312C145.202 31.3608 145.226 31.7025 145.304 32.0322H147.138Z" fill="black"/>
<path fill-rule="evenodd" clip-rule="evenodd" d="M157.727 23.3672H151.379V25.0935H153.561V32.0644H155.569V25.0935H157.727V23.3672Z" fill="black"/>
<path fill-rule="evenodd" clip-rule="evenodd" d="M161.499 29.203C161.499 29.6585 161.511 30.0422 161.248 30.4438C161.032 30.7734 160.696 30.9772 160.318 30.9772C159.803 30.9772 159.503 30.6356 159.503 30.1261C159.503 29.191 160.798 29.0232 161.499 28.9453V29.197V29.203ZM163.507 32.0322C163.406 31.7145 163.382 31.3968 163.382 31.0671V28.0641C163.382 27.2909 163.442 26.5836 162.794 26.0502C162.279 25.6186 161.427 25.4688 160.774 25.4688C159.431 25.4688 157.927 25.9243 157.735 27.4827L159.479 27.6506C159.479 27.0152 159.995 26.7095 160.582 26.7095C160.858 26.7095 161.17 26.7994 161.337 27.0152C161.523 27.255 161.499 27.5846 161.499 27.8663V28.0162C160.72 28.0941 159.707 28.1421 158.976 28.4238C158.136 28.7415 157.543 29.3888 157.543 30.3359C157.543 31.5526 158.418 32.158 159.551 32.158C160.504 32.158 161.056 31.7924 161.583 31.0312C161.571 31.3608 161.595 31.7025 161.673 32.0322H163.507Z" fill="black"/>
<path d="M166.415 23.3672H164.568V32.0585H166.415V23.3672Z" fill="black"/>
<path fill-rule="evenodd" clip-rule="evenodd" d="M171.404 29.203C171.404 29.6585 171.416 30.0422 171.152 30.4438C170.936 30.7734 170.6 30.9772 170.223 30.9772C169.707 30.9772 169.407 30.6356 169.407 30.1261C169.407 29.191 170.702 29.0232 171.404 28.9453V29.197V29.203ZM173.412 32.0322C173.31 31.7145 173.286 31.3968 173.286 31.0671V28.0641C173.286 27.2909 173.352 26.5836 172.698 26.0502C172.183 25.6186 171.332 25.4688 170.678 25.4688C169.336 25.4688 167.831 25.9243 167.639 27.4827L169.383 27.6506C169.383 27.0152 169.899 26.7095 170.486 26.7095C170.762 26.7095 171.074 26.7994 171.242 27.0152C171.428 27.255 171.404 27.5846 171.404 27.8663V28.0162C170.624 28.0941 169.611 28.1421 168.88 28.4238C168.041 28.7415 167.447 29.3888 167.447 30.3359C167.447 31.5526 168.322 32.158 169.455 32.158C170.409 32.158 170.96 31.7924 171.488 31.0312C171.476 31.3608 171.5 31.7025 171.577 32.0322H173.412Z" fill="black"/>
<path fill-rule="evenodd" clip-rule="evenodd" d="M176.327 23.2266H174.48V25.0248H176.327V23.2266ZM176.327 25.6122H174.48V32.0497H176.327V25.6122Z" fill="black"/>
<path fill-rule="evenodd" clip-rule="evenodd" d="M181.312 29.203C181.312 29.6585 181.324 30.0422 181.06 30.4438C180.844 30.7734 180.509 30.9772 180.131 30.9772C179.615 30.9772 179.316 30.6356 179.316 30.1261C179.316 29.191 180.61 29.0232 181.312 28.9453V29.197V29.203ZM183.32 32.0322C183.218 31.7145 183.194 31.3968 183.194 31.0671V28.0641C183.194 27.2909 183.26 26.5836 182.607 26.0502C182.091 25.6186 181.24 25.4688 180.586 25.4688C179.244 25.4688 177.739 25.9243 177.547 27.4827L179.292 27.6506C179.292 27.0152 179.807 26.7095 180.395 26.7095C180.67 26.7095 180.982 26.7994 181.15 27.0152C181.336 27.255 181.312 27.5846 181.312 27.8663V28.0162C180.533 28.0941 179.519 28.1421 178.788 28.4238C177.949 28.7415 177.355 29.3888 177.355 30.3359C177.355 31.5526 178.237 32.158 179.364 32.158C180.317 32.158 180.868 31.7924 181.396 31.0312C181.384 31.3608 181.408 31.7025 181.486 32.0322H183.32Z" fill="black"/>
</g>
<defs>
<clipPath id="clip0_87_1588">
<rect width="182.688" height="44.0377" fill="white" transform="translate(0.634766 0.796875)"/>
</clipPath>
</defs>
</svg>
