<svg width="179" height="46" viewBox="0 0 179 46" fill="none" xmlns="http://www.w3.org/2000/svg">
<path d="M63.7262 5.77344H67.4844C68.0352 5.77344 68.5264 5.8553 68.958 6.00414C69.3896 6.16042 69.7617 6.37625 70.0594 6.6516C70.3645 6.9344 70.5952 7.26929 70.7515 7.65628C70.9152 8.04327 70.9971 8.47491 70.9971 8.95121V8.98097C70.9971 9.5168 70.9004 9.98565 70.7069 10.3875C70.5134 10.7894 70.2529 11.1243 69.9106 11.3996C69.5682 11.675 69.1813 11.8759 68.7273 12.0099C68.2733 12.1439 67.7896 12.2108 67.2761 12.2108H65.743V14.9644H63.7188V5.77344H63.7262ZM67.343 10.4099C67.8491 10.4099 68.2435 10.2759 68.5263 10.008C68.8091 9.74006 68.9431 9.41261 68.9431 9.01818V8.98841C68.9431 8.53445 68.7942 8.18467 68.504 7.95397C68.2138 7.72326 67.8119 7.59675 67.3058 7.59675H65.743V10.4024H67.343V10.4099Z" fill="#575756"/>
<path d="M74.3636 5.38281H72.3691V14.9682H74.3636V5.38281Z" fill="#575756"/>
<path d="M78.237 15.1001C77.9021 15.1001 77.5896 15.0555 77.2993 14.9587C77.0091 14.8694 76.7486 14.728 76.5328 14.542C76.317 14.3559 76.1384 14.1327 76.0119 13.8648C75.8853 13.5968 75.8184 13.2917 75.8184 12.9419V12.9196C75.8184 12.5326 75.8854 12.1977 76.0268 11.9224C76.1682 11.6396 76.3616 11.4089 76.6072 11.2303C76.8602 11.0442 77.1579 10.9103 77.5003 10.8135C77.8426 10.7242 78.2296 10.6796 78.6463 10.6796C79.0036 10.6796 79.3161 10.7093 79.584 10.7614C79.852 10.8135 80.1124 10.8879 80.3655 10.9698V10.8507C80.3655 10.434 80.239 10.114 79.9859 9.89069C79.7329 9.67487 79.3534 9.56324 78.8547 9.56324C78.4678 9.56324 78.1329 9.59301 77.8352 9.65999C77.5449 9.72697 77.2324 9.81627 76.9124 9.94278L76.4137 8.41716C76.8007 8.25344 77.2026 8.11948 77.6193 8.00785C78.0361 7.89621 78.5496 7.85156 79.145 7.85156C79.6957 7.85156 80.1645 7.91854 80.559 8.05994C80.9459 8.1939 81.2734 8.38739 81.5264 8.64042C81.7869 8.90089 81.9804 9.22835 82.1069 9.60789C82.226 9.98744 82.293 10.4116 82.293 10.8879V14.9736H80.3581V14.2145C80.1125 14.4825 79.8222 14.6983 79.4798 14.862C79.1375 15.0257 78.7208 15.1076 78.2296 15.1076M78.8398 13.7234C79.3087 13.7234 79.6883 13.6117 79.9785 13.381C80.2613 13.1503 80.4027 12.8526 80.4027 12.488V12.1308C80.2241 12.0489 80.0306 11.9894 79.8222 11.9373C79.6064 11.8926 79.3757 11.8628 79.1301 11.8628C78.6985 11.8628 78.3636 11.9447 78.118 12.1084C77.8724 12.2722 77.7533 12.5177 77.7459 12.8303V12.8601C77.7459 13.128 77.85 13.3438 78.051 13.4927C78.2519 13.6415 78.5124 13.7159 78.8398 13.7159" fill="#575756"/>
<path d="M84.0215 7.94646H86.016V8.95114C86.1276 8.80229 86.2541 8.66089 86.3881 8.51949C86.522 8.38554 86.6783 8.25902 86.842 8.15483C87.0057 8.05065 87.1918 7.96878 87.3927 7.9018C87.5937 7.84226 87.8244 7.8125 88.0774 7.8125C88.8365 7.8125 89.4244 8.0432 89.8412 8.50461C90.2579 8.96602 90.4663 9.60604 90.4663 10.4247V14.9792H88.4718V11.0647C88.4718 10.5958 88.3677 10.2386 88.1593 10.0005C87.9509 9.76232 87.6532 9.64325 87.2662 9.64325C86.8792 9.64325 86.5741 9.76232 86.3509 10.0005C86.1276 10.2386 86.016 10.5958 86.016 11.0647V14.9792H84.0215V7.94646Z" fill="#575756"/>
<path d="M99.0204 15.1096C98.6111 15.1096 98.2092 15.0277 97.8297 14.8715C97.4427 14.7152 97.1004 14.477 96.8027 14.1645C96.505 13.8519 96.2668 13.4723 96.0882 13.0258C95.9096 12.5793 95.8203 12.0584 95.8203 11.4704V11.4407C95.8203 10.8527 95.9096 10.3392 96.0882 9.88527C96.2668 9.4313 96.505 9.05176 96.7952 8.73919C97.0929 8.42662 97.4278 8.19592 97.8148 8.03963C98.2018 7.88335 98.6036 7.80149 99.0204 7.80149C99.5562 7.80149 99.9953 7.90567 100.338 8.11405C100.68 8.32243 100.978 8.56802 101.208 8.85082V5.38281H103.203V14.9682H101.201V13.9561C100.955 14.291 100.658 14.5589 100.315 14.7747C99.973 14.9905 99.5339 15.0947 99.0055 15.0947M99.5265 13.4203C99.7646 13.4203 99.9804 13.3756 100.189 13.2863C100.397 13.197 100.576 13.063 100.725 12.8919C100.881 12.7207 101 12.5123 101.089 12.2742C101.179 12.036 101.231 11.7681 101.231 11.4779V11.4481C101.231 11.1579 101.186 10.8974 101.089 10.6518C101 10.4137 100.873 10.2053 100.725 10.0341C100.568 9.86294 100.39 9.72898 100.189 9.63968C99.9804 9.55037 99.7646 9.49828 99.5265 9.49828C99.2883 9.49828 99.0725 9.54293 98.8641 9.63224C98.6558 9.72154 98.4771 9.8555 98.3208 10.0267C98.1646 10.1978 98.038 10.3988 97.9487 10.6369C97.8594 10.8751 97.8073 11.143 97.8073 11.4407V11.4704C97.8073 11.7607 97.852 12.0211 97.9413 12.2667C98.0306 12.5049 98.1572 12.7133 98.3134 12.8844C98.4697 13.0556 98.6558 13.1895 98.8567 13.2789C99.0651 13.3682 99.2809 13.4203 99.519 13.4203" fill="#575756"/>
<path d="M108.327 15.1429C107.798 15.1429 107.315 15.0536 106.861 14.8825C106.407 14.7039 106.02 14.4583 105.692 14.1308C105.365 13.8034 105.112 13.4238 104.926 12.9847C104.74 12.5457 104.65 12.0545 104.65 11.5112V11.4814C104.65 10.9828 104.74 10.514 104.903 10.06C105.075 9.61348 105.313 9.2265 105.618 8.8916C105.923 8.55671 106.288 8.29624 106.712 8.10275C107.136 7.90925 107.605 7.8125 108.126 7.8125C108.714 7.8125 109.22 7.91669 109.651 8.12507C110.083 8.33345 110.433 8.61625 110.723 8.97347C111.006 9.33069 111.214 9.73256 111.356 10.194C111.49 10.6554 111.557 11.1317 111.557 11.6303C111.557 11.7122 111.557 11.794 111.557 11.8759C111.557 11.9652 111.542 12.0545 111.534 12.1512H106.637C106.734 12.6052 106.935 12.9475 107.233 13.1782C107.538 13.4089 107.91 13.528 108.357 13.528C108.691 13.528 108.989 13.4685 109.25 13.3568C109.51 13.2452 109.785 13.0592 110.061 12.8061L111.199 13.8183C110.865 14.2276 110.463 14.5476 109.994 14.7857C109.525 15.0239 108.967 15.1355 108.327 15.1355M109.614 10.9158C109.555 10.4693 109.398 10.1121 109.145 9.83674C108.892 9.56139 108.557 9.41999 108.133 9.41999C107.709 9.41999 107.374 9.55395 107.114 9.82931C106.853 10.0972 106.69 10.4619 106.608 10.9158H109.614Z" fill="#575756"/>
<path d="M117.188 5.79688H121.385C122.546 5.79688 123.439 6.10944 124.064 6.73458C124.592 7.26296 124.853 7.96252 124.853 8.83324V8.86301C124.853 9.60722 124.674 10.21 124.31 10.6789C123.945 11.1477 123.469 11.4901 122.888 11.7059L125.128 14.9878H122.769L120.797 12.0482H119.212V14.9878H117.188V5.79688ZM121.258 10.2621C121.757 10.2621 122.136 10.143 122.404 9.9049C122.672 9.66676 122.806 9.35419 122.806 8.95976V8.92999C122.806 8.4909 122.665 8.16345 122.39 7.94763C122.107 7.73181 121.72 7.62019 121.221 7.62019H119.212V10.2547H121.258V10.2621Z" fill="#575756"/>
<path d="M129.805 15.1586C129.277 15.1586 128.793 15.0693 128.339 14.8981C127.885 14.7195 127.498 14.4739 127.171 14.1464C126.843 13.819 126.59 13.4395 126.404 13.0004C126.218 12.5613 126.129 12.0701 126.129 11.5268V11.4971C126.129 10.9984 126.218 10.5296 126.382 10.0756C126.553 9.62911 126.791 9.24212 127.096 8.90723C127.401 8.57234 127.766 8.31186 128.19 8.11837C128.615 7.92487 129.083 7.82812 129.604 7.82812C130.192 7.82812 130.698 7.93231 131.13 8.14069C131.562 8.34907 131.911 8.63187 132.202 8.98909C132.484 9.34631 132.693 9.74818 132.834 10.2096C132.968 10.671 133.035 11.1473 133.035 11.6459C133.035 11.7278 133.035 11.8096 133.035 11.8915C133.035 11.9808 133.02 12.0701 133.013 12.1669H128.116C128.213 12.6208 128.414 12.9632 128.711 13.1939C129.016 13.4246 129.389 13.5436 129.835 13.5436C130.17 13.5436 130.468 13.4841 130.728 13.3725C130.989 13.2608 131.264 13.0748 131.539 12.8218L132.678 13.8339C132.343 14.2432 131.941 14.5632 131.472 14.8013C131.003 15.0395 130.445 15.1511 129.805 15.1511M131.093 10.9315C131.033 10.4849 130.877 10.1277 130.624 9.85237C130.371 9.57701 130.036 9.43562 129.612 9.43562C129.188 9.43562 128.853 9.56957 128.592 9.84493C128.332 10.1128 128.168 10.4775 128.086 10.9315H131.093Z" fill="#575756"/>
<path d="M137.835 15.1586C137.307 15.1586 136.823 15.0618 136.369 14.8683C135.915 14.6748 135.528 14.4144 135.208 14.0869C134.881 13.7595 134.628 13.3725 134.449 12.9334C134.263 12.4943 134.174 12.018 134.174 11.5194V11.4896C134.174 10.991 134.271 10.5222 134.449 10.0756C134.635 9.62911 134.888 9.24212 135.208 8.90723C135.528 8.57234 135.923 8.31186 136.369 8.11837C136.823 7.92487 137.314 7.82812 137.858 7.82812C138.52 7.82812 139.071 7.93231 139.51 8.14069C139.949 8.34907 140.328 8.63931 140.663 9.01142L139.443 10.3212C139.212 10.0831 138.981 9.89702 138.743 9.75562C138.505 9.61423 138.2 9.54724 137.843 9.54724C137.59 9.54724 137.359 9.59934 137.151 9.69609C136.942 9.80028 136.764 9.93423 136.615 10.1128C136.459 10.2915 136.347 10.4924 136.258 10.7231C136.176 10.9538 136.131 11.1994 136.131 11.4673V11.4971C136.131 11.765 136.176 12.0255 136.258 12.2562C136.339 12.4943 136.459 12.7027 136.615 12.8738C136.771 13.0525 136.957 13.1864 137.18 13.2906C137.396 13.3948 137.642 13.4394 137.917 13.4394C138.252 13.4394 138.542 13.3725 138.788 13.2385C139.041 13.1046 139.286 12.9185 139.532 12.6952L140.7 13.8785C140.358 14.2581 139.971 14.5632 139.532 14.8013C139.093 15.0395 138.527 15.1586 137.828 15.1586" fill="#575756"/>
<path d="M144.34 15.1351C143.581 15.1351 142.993 14.9044 142.576 14.4355C142.16 13.9741 141.951 13.3341 141.951 12.5155V7.96094H143.946V11.8755C143.946 12.3443 144.05 12.7015 144.258 12.9397C144.467 13.1778 144.764 13.2969 145.151 13.2969C145.538 13.2969 145.843 13.1778 146.067 12.9397C146.29 12.7015 146.402 12.3443 146.402 11.8755V7.96094H148.396V14.9937H146.394V13.989C146.282 14.1379 146.156 14.2793 146.022 14.4207C145.888 14.5546 145.732 14.6811 145.568 14.7853C145.404 14.8895 145.218 14.9788 145.017 15.0384C144.816 15.0979 144.586 15.1277 144.333 15.1277" fill="#575756"/>
<path d="M150.195 7.96245H152.19V8.97457C152.435 8.63968 152.733 8.37177 153.075 8.15595C153.418 7.94013 153.857 7.83594 154.385 7.83594C154.795 7.83594 155.196 7.9178 155.576 8.07408C155.955 8.23037 156.305 8.46851 156.603 8.78108C156.901 9.09365 157.139 9.47319 157.317 9.91971C157.496 10.3737 157.585 10.8872 157.585 11.4751V11.5049C157.585 12.0928 157.496 12.6137 157.317 13.0603C157.139 13.5142 156.901 13.8938 156.61 14.2064C156.32 14.5189 155.978 14.7496 155.591 14.9059C155.204 15.0622 154.802 15.1441 154.385 15.1441C153.849 15.1441 153.41 15.0399 153.068 14.8315C152.726 14.6231 152.428 14.3775 152.197 14.0947V17.1162H150.203V7.97733L150.195 7.96245ZM153.864 13.4398C154.102 13.4398 154.318 13.3952 154.527 13.3059C154.735 13.2166 154.914 13.0826 155.07 12.9114C155.226 12.7403 155.353 12.5393 155.442 12.3012C155.531 12.063 155.583 11.7951 155.583 11.4974V11.4677C155.583 11.1774 155.539 10.917 155.449 10.6714C155.36 10.4332 155.234 10.2248 155.077 10.0537C154.921 9.8825 154.735 9.74855 154.534 9.65924C154.326 9.56994 154.11 9.51784 153.872 9.51784C153.634 9.51784 153.418 9.56249 153.209 9.6518C153.001 9.7411 152.822 9.87506 152.674 10.0462C152.517 10.2174 152.398 10.4258 152.309 10.6639C152.22 10.9021 152.167 11.17 152.167 11.4602V11.49C152.167 11.7802 152.212 12.0407 152.309 12.2863C152.398 12.5244 152.525 12.7328 152.674 12.904C152.83 13.0752 153.008 13.2091 153.209 13.2984C153.418 13.3877 153.634 13.4398 153.872 13.4398" fill="#575756"/>
<path d="M162.38 15.1664C161.851 15.1664 161.367 15.0771 160.913 14.9059C160.459 14.7273 160.072 14.4817 159.745 14.1543C159.418 13.8268 159.165 13.4473 158.978 13.0082C158.792 12.5691 158.703 12.0779 158.703 11.5346V11.5049C158.703 11.0063 158.792 10.5374 158.964 10.0834C159.135 9.63692 159.373 9.24993 159.678 8.91504C159.983 8.58014 160.348 8.31967 160.772 8.12618C161.196 7.93268 161.665 7.83594 162.186 7.83594C162.774 7.83594 163.28 7.94013 163.712 8.1485C164.143 8.35688 164.493 8.63968 164.783 8.9969C165.066 9.35412 165.274 9.75599 165.416 10.2174C165.55 10.6788 165.617 11.1551 165.617 11.6537C165.617 11.7356 165.617 11.8174 165.617 11.8993C165.617 11.9886 165.602 12.0779 165.594 12.1747H160.698C160.794 12.6286 160.995 12.971 161.293 13.2017C161.598 13.4324 161.97 13.5514 162.417 13.5514C162.752 13.5514 163.049 13.4919 163.31 13.3803C163.57 13.2686 163.846 13.0826 164.121 12.8296L165.26 13.8417C164.925 14.251 164.523 14.571 164.054 14.8092C163.585 15.0399 163.027 15.1589 162.387 15.1589M163.667 10.9393C163.607 10.4928 163.451 10.1355 163.198 9.86018C162.945 9.58482 162.61 9.44342 162.186 9.44342C161.762 9.44342 161.427 9.57738 161.166 9.85274C160.906 10.1207 160.742 10.4853 160.66 10.9393H163.667Z" fill="#575756"/>
<path d="M167.102 7.96496H169.096V9.3864C169.297 8.90266 169.572 8.52311 169.922 8.23287C170.272 7.94263 170.748 7.81612 171.344 7.83844V9.92223H171.239C170.577 9.92223 170.049 10.1232 169.669 10.525C169.289 10.9269 169.096 11.552 169.096 12.4004V14.9977H167.102V7.96496Z" fill="#575756"/>
<path d="M174.579 15.1392C174.244 15.1392 173.931 15.0946 173.641 14.9978C173.351 14.9085 173.09 14.7671 172.875 14.5811C172.659 14.395 172.48 14.1717 172.354 13.9038C172.227 13.6359 172.16 13.3308 172.16 12.981V12.9587C172.16 12.5717 172.227 12.2368 172.369 11.9614C172.51 11.6786 172.703 11.4479 172.949 11.2693C173.202 11.0833 173.492 10.9493 173.842 10.8526C174.184 10.7633 174.571 10.7186 174.988 10.7186C175.345 10.7186 175.658 10.7484 175.926 10.8005C176.194 10.8526 176.454 10.927 176.707 11.0089V10.8898C176.707 10.473 176.581 10.153 176.328 9.92976C176.075 9.71394 175.695 9.6023 175.197 9.6023C174.81 9.6023 174.475 9.63207 174.177 9.69905C173.887 9.76603 173.574 9.85534 173.254 9.98185L172.756 8.45622C173.143 8.2925 173.544 8.15854 173.961 8.04691C174.378 7.94272 174.891 7.89062 175.487 7.89062C176.037 7.89062 176.506 7.95761 176.901 8.09901C177.288 8.23297 177.608 8.42646 177.868 8.67949C178.129 8.93996 178.322 9.26741 178.449 9.64695C178.575 10.0265 178.635 10.4507 178.635 10.927V15.0127H176.7V14.2536C176.454 14.5215 176.164 14.7448 175.822 14.9011C175.479 15.0648 175.063 15.1466 174.571 15.1466M175.182 13.755C175.65 13.755 176.03 13.6434 176.32 13.4126C176.603 13.1819 176.744 12.8843 176.744 12.5196V12.1624C176.566 12.0805 176.372 12.021 176.164 11.9689C175.948 11.9242 175.717 11.8945 175.472 11.8945C175.04 11.8945 174.705 11.9763 174.46 12.14C174.214 12.3038 174.088 12.5494 174.088 12.8619V12.8917C174.088 13.1596 174.192 13.3754 174.393 13.5243C174.594 13.6731 174.854 13.7475 175.182 13.7475" fill="#575756"/>
<path d="M65.7322 21.4305H62.9414V19.5625L70.5546 19.5699V21.4305H67.7564L67.749 28.7535H65.7322V21.4305Z" fill="#575756"/>
<path d="M71.8965 21.715H73.891V23.1364C74.0919 22.6527 74.3672 22.2731 74.717 21.9829C75.0668 21.6926 75.5431 21.5661 76.1384 21.5884V23.6722H76.0343C75.3719 23.6722 74.8435 23.8732 74.464 24.275C74.0844 24.6769 73.891 25.302 73.891 26.1504V28.7477H71.8965V21.715Z" fill="#575756"/>
<path d="M79.3738 28.897C79.0389 28.897 78.7263 28.8524 78.436 28.7556C78.1458 28.6663 77.8853 28.5249 77.6695 28.3389C77.4537 28.1528 77.2751 27.9295 77.1486 27.6616C77.0221 27.3937 76.9551 27.0886 76.9551 26.7388V26.709C76.9551 26.3221 77.022 25.9946 77.1634 25.7118C77.3048 25.429 77.4983 25.1983 77.7439 25.0197C77.997 24.8336 78.2872 24.6997 78.637 24.6104C78.9793 24.5211 79.3663 24.469 79.7831 24.4764C80.1403 24.4764 80.4529 24.5062 80.7208 24.5583C80.9887 24.6104 81.2491 24.6848 81.5022 24.7667V24.6476C81.5022 24.2308 81.3757 23.9108 81.1226 23.6876C80.8696 23.4717 80.49 23.3601 79.9914 23.3601C79.6044 23.3601 79.2695 23.3899 78.9719 23.4569C78.6816 23.5238 78.3691 23.6131 78.049 23.7397L77.5504 22.214C77.9374 22.0503 78.3393 21.9164 78.756 21.8047C79.1728 21.7005 79.6863 21.6484 80.2817 21.6484C80.8324 21.6484 81.3012 21.7154 81.6957 21.8494C82.0827 21.9833 82.4101 22.1843 82.6631 22.4373C82.9236 22.6978 83.1171 23.0252 83.2436 23.4048C83.3627 23.7843 83.4297 24.2085 83.4297 24.6848V28.7705H81.4947V28.0114C81.2491 28.2793 80.9589 28.5026 80.6166 28.6589C80.2742 28.8226 79.8575 28.9045 79.3663 28.9045M79.9766 27.5128C80.4454 27.5128 80.8249 27.4012 81.1152 27.1705C81.398 26.9397 81.5394 26.6421 81.5394 26.2774V25.9202C81.3608 25.8383 81.1673 25.7788 80.9589 25.7267C80.7431 25.682 80.5124 25.6523 80.2668 25.6523C79.8352 25.6523 79.5002 25.7341 79.2547 25.8979C79.0091 26.0616 78.89 26.3072 78.8825 26.6197V26.6421C78.8825 26.9174 78.9868 27.1258 79.1877 27.2746C79.3886 27.4235 79.6491 27.4979 79.9766 27.4979" fill="#575756"/>
<path d="M85.1445 21.7199H87.139V22.7246C87.2506 22.5757 87.3771 22.4343 87.5111 22.2929C87.6451 22.159 87.8013 22.0325 87.9651 21.9283C88.1288 21.8241 88.3148 21.7422 88.5158 21.6752C88.7167 21.6157 88.9474 21.5859 89.2004 21.5859C89.9595 21.5859 90.5474 21.8166 90.9642 22.2855C91.3809 22.7469 91.5893 23.3869 91.5893 24.2055V28.7601H89.5949V24.8456C89.5949 24.3767 89.4907 24.0195 89.2823 23.7813C89.0739 23.5432 88.7763 23.4241 88.3893 23.4241C88.0023 23.4241 87.6971 23.5432 87.4739 23.7813C87.2506 24.0195 87.139 24.3767 87.139 24.8456V28.7601H85.1445V21.7273V21.7199Z" fill="#575756"/>
<path d="M95.7891 28.9045C95.2904 28.9045 94.7769 28.8226 94.256 28.6514C93.735 28.4803 93.2364 28.2123 92.7676 27.8402L93.6234 26.5304C94.0104 26.8132 94.39 27.0216 94.7695 27.163C95.149 27.3044 95.5063 27.3714 95.8412 27.3714C96.1314 27.3714 96.3398 27.3267 96.4812 27.23C96.6151 27.1332 96.6821 27.0067 96.6821 26.8504V26.8207C96.6821 26.7165 96.6449 26.6272 96.563 26.5453C96.4812 26.4635 96.377 26.3965 96.243 26.3444C96.1091 26.2849 95.9528 26.2328 95.7742 26.1807C95.5955 26.1286 95.4169 26.069 95.2235 26.0095C94.9779 25.9425 94.7323 25.8532 94.4792 25.7565C94.2337 25.6597 94.0029 25.5258 93.802 25.362C93.6011 25.1983 93.4374 25.0048 93.3108 24.7667C93.1843 24.5285 93.1173 24.2383 93.1173 23.9034V23.8736C93.1173 23.5164 93.1843 23.1964 93.3183 22.921C93.4522 22.6457 93.6383 22.415 93.869 22.2215C94.0997 22.028 94.3751 21.8866 94.6802 21.7898C94.9853 21.6931 95.3276 21.6484 95.6849 21.6484C96.1314 21.6484 96.5854 21.7229 97.0468 21.8643C97.5082 22.0057 97.9249 22.2066 98.3119 22.4596L97.5528 23.8364C97.203 23.6355 96.8607 23.4717 96.5258 23.3527C96.1909 23.2336 95.9007 23.1741 95.6477 23.1741C95.3946 23.1741 95.216 23.2187 95.097 23.3155C94.9704 23.4048 94.9109 23.5238 94.9109 23.6652V23.695C94.9109 23.7918 94.9481 23.8736 95.03 23.948C95.1118 24.0225 95.216 24.0894 95.3425 24.1564C95.4765 24.2234 95.6253 24.2829 95.7965 24.3499C95.9677 24.4095 96.1463 24.469 96.3398 24.536C96.5854 24.6178 96.8309 24.7071 97.084 24.8188C97.337 24.9304 97.5677 25.0644 97.7686 25.2206C97.9696 25.3769 98.1333 25.5704 98.2672 25.8011C98.4012 26.0318 98.4607 26.3072 98.4607 26.6272V26.657C98.4607 27.0514 98.3938 27.3863 98.2598 27.6765C98.1259 27.9593 97.9324 28.1975 97.6868 28.3761C97.4412 28.5547 97.1584 28.6961 96.8235 28.7928C96.4961 28.8821 96.1463 28.9268 95.7667 28.9268" fill="#575756"/>
<path d="M100.256 23.4399H99.4297V21.7952H100.256V21.3487C100.256 20.5896 100.442 20.0166 100.821 19.6445C101.186 19.2798 101.729 19.0938 102.436 19.0938C102.749 19.0938 103.017 19.1086 103.24 19.1458C103.463 19.1831 103.664 19.2277 103.85 19.2872V20.9394C103.701 20.8873 103.56 20.8426 103.419 20.8129C103.277 20.7831 103.121 20.7682 102.95 20.7682C102.466 20.7682 102.228 21.0212 102.228 21.5273V21.8027H103.843V23.4325H102.25V28.761H100.256V23.4325V23.4399Z" fill="#575756"/>
<path d="M108.387 28.9327C107.844 28.9327 107.345 28.836 106.877 28.6499C106.415 28.4639 106.013 28.2034 105.678 27.876C105.343 27.5485 105.075 27.1615 104.882 26.7225C104.689 26.2834 104.592 25.8071 104.592 25.301V25.2787C104.592 24.7726 104.689 24.2963 104.882 23.8573C105.075 23.4182 105.343 23.0312 105.686 22.6963C106.028 22.3614 106.43 22.1009 106.891 21.9074C107.353 21.7139 107.866 21.6172 108.417 21.6172C108.968 21.6172 109.459 21.7139 109.928 21.9C110.389 22.086 110.791 22.3465 111.126 22.674C111.461 23.0014 111.729 23.3884 111.922 23.8275C112.116 24.2666 112.212 24.7429 112.212 25.2489V25.2787C112.212 25.7847 112.116 26.261 111.922 26.7001C111.729 27.1392 111.461 27.5262 111.118 27.8611C110.776 28.196 110.374 28.4565 109.913 28.6499C109.451 28.8434 108.938 28.9402 108.387 28.9402M108.41 27.2136C108.7 27.2136 108.953 27.1615 109.176 27.0648C109.399 26.968 109.593 26.8266 109.749 26.648C109.905 26.4769 110.024 26.2685 110.106 26.0378C110.188 25.8071 110.233 25.5615 110.233 25.2936V25.2638C110.233 25.0033 110.188 24.7577 110.099 24.5196C110.01 24.2889 109.883 24.0805 109.719 23.9019C109.556 23.7233 109.355 23.5819 109.131 23.4777C108.901 23.3735 108.655 23.3214 108.38 23.3214C108.09 23.3214 107.837 23.3735 107.613 23.4703C107.39 23.5745 107.197 23.7084 107.04 23.887C106.884 24.0656 106.765 24.2666 106.676 24.4973C106.594 24.728 106.549 24.9736 106.549 25.2415V25.2712C106.549 25.5317 106.594 25.7773 106.683 26.0155C106.772 26.2462 106.899 26.4545 107.063 26.6331C107.226 26.8118 107.42 26.9532 107.643 27.0573C107.866 27.1615 108.119 27.2136 108.395 27.2136" fill="#575756"/>
<path d="M113.654 21.7306H115.649V23.152C115.85 22.6683 116.125 22.2887 116.475 21.9985C116.825 21.7083 117.301 21.5817 117.896 21.6041V23.6879H117.792C117.13 23.6879 116.601 23.8888 116.222 24.2907C115.842 24.6925 115.649 25.3177 115.649 26.1661V28.7633H113.654V21.7306Z" fill="#575756"/>
<path d="M119.135 21.7355H121.129V22.7402C121.241 22.5914 121.367 22.45 121.501 22.3086C121.635 22.1746 121.792 22.0481 121.955 21.9439C122.119 21.8397 122.305 21.7578 122.513 21.6909C122.722 21.6313 122.945 21.6016 123.206 21.6016C123.667 21.6016 124.069 21.6983 124.404 21.8918C124.739 22.0853 124.999 22.3607 125.185 22.7253C125.49 22.3532 125.833 22.0779 126.212 21.8844C126.592 21.6983 127.016 21.6016 127.5 21.6016C128.244 21.6016 128.824 21.8174 129.249 22.2565C129.665 22.6956 129.881 23.3356 129.881 24.184V28.7683H127.887V24.8538C127.887 24.3849 127.79 24.0277 127.589 23.7895C127.388 23.5514 127.098 23.4323 126.726 23.4323C126.354 23.4323 126.056 23.5514 125.84 23.7895C125.624 24.0277 125.52 24.3849 125.52 24.8538V28.7683H123.526V24.8538C123.526 24.3849 123.429 24.0277 123.228 23.7895C123.027 23.5514 122.737 23.4323 122.365 23.4323C121.992 23.4323 121.695 23.5514 121.479 23.7895C121.263 24.0277 121.159 24.3849 121.159 24.8538V28.7683H119.165V21.7355H119.135Z" fill="#575756"/>
<path d="M133.6 28.9048C133.265 28.9048 132.953 28.8602 132.663 28.7634C132.372 28.6741 132.112 28.5327 131.896 28.3467C131.68 28.1606 131.502 27.9374 131.375 27.6694C131.249 27.4015 131.182 27.0964 131.182 26.7466V26.7169C131.182 26.3299 131.249 26.0024 131.39 25.7196C131.531 25.4368 131.725 25.2061 131.97 25.0275C132.224 24.8415 132.521 24.7075 132.864 24.6182C133.206 24.5289 133.593 24.4768 134.01 24.4842C134.367 24.4842 134.679 24.514 134.947 24.5661C135.215 24.6182 135.476 24.6926 135.729 24.7745V24.6554C135.729 24.2387 135.602 23.9186 135.349 23.6954C135.096 23.4796 134.717 23.3679 134.218 23.3679C133.831 23.3679 133.496 23.3977 133.198 23.4647C132.908 23.5317 132.596 23.621 132.276 23.7475L131.777 22.2218C132.164 22.0581 132.566 21.9242 132.983 21.8125C133.399 21.7083 133.913 21.6562 134.508 21.6562C135.059 21.6562 135.528 21.7232 135.922 21.8572C136.309 21.9911 136.637 22.1921 136.89 22.4451C137.15 22.7056 137.344 23.033 137.47 23.4126C137.589 23.7921 137.656 24.2163 137.656 24.6926V28.7783H135.721V28.0192C135.476 28.2871 135.185 28.5104 134.843 28.6667C134.501 28.8304 134.084 28.9123 133.593 28.9123M134.211 27.528C134.679 27.528 135.059 27.4164 135.349 27.1857C135.632 26.955 135.773 26.6573 135.773 26.2927V25.9354C135.595 25.8536 135.401 25.794 135.193 25.742C134.977 25.6973 134.746 25.6675 134.501 25.6675C134.069 25.6675 133.734 25.7494 133.489 25.9131C133.243 26.0768 133.124 26.3224 133.117 26.635V26.6573C133.117 26.9327 133.221 27.1411 133.422 27.2899C133.623 27.4387 133.883 27.5132 134.211 27.5132" fill="#575756"/>
<path d="M142.699 28.9394C142.17 28.9394 141.686 28.8427 141.233 28.6492C140.779 28.4557 140.392 28.1952 140.072 27.8678C139.744 27.5403 139.491 27.1534 139.312 26.7143C139.126 26.2752 139.037 25.7989 139.037 25.3003V25.2705C139.037 24.7719 139.134 24.2956 139.312 23.8491C139.499 23.4025 139.752 23.0156 140.072 22.6807C140.399 22.3458 140.786 22.0853 141.233 21.8918C141.686 21.6983 142.178 21.6016 142.721 21.6016C143.383 21.6016 143.934 21.7058 144.373 21.9216C144.812 22.1299 145.192 22.4202 145.527 22.7849L144.306 24.0947C144.075 23.8565 143.845 23.6705 143.607 23.5291C143.368 23.3877 143.063 23.3207 142.706 23.3207C142.453 23.3207 142.222 23.3728 142.014 23.4695C141.806 23.5737 141.627 23.7077 141.478 23.8863C141.322 24.0649 141.21 24.2658 141.121 24.4965C141.039 24.7272 140.994 24.9728 140.994 25.2407V25.2705C140.994 25.5384 141.039 25.7915 141.121 26.0296C141.203 26.2677 141.322 26.4761 141.478 26.6473C141.634 26.8259 141.82 26.9599 142.044 27.064C142.26 27.1682 142.505 27.2129 142.78 27.2129C143.115 27.2129 143.406 27.1459 143.651 27.012C143.904 26.878 144.15 26.6919 144.395 26.4687L145.564 27.652C145.221 28.0315 144.834 28.3366 144.395 28.5748C143.956 28.8129 143.391 28.932 142.691 28.932" fill="#575756"/>
<path d="M146.916 19.2031H149.015V20.9743H146.916V19.2031ZM146.968 21.7483H148.963V28.7885H146.968V21.7483Z" fill="#575756"/>
<path d="M154.286 28.9408C153.742 28.9408 153.236 28.8441 152.775 28.658C152.314 28.472 151.912 28.2115 151.577 27.8841C151.242 27.5566 150.974 27.1696 150.78 26.7305C150.587 26.2914 150.49 25.8152 150.49 25.3091V25.2793C150.49 24.7733 150.587 24.297 150.78 23.8579C150.974 23.4188 151.242 23.0318 151.584 22.6969C151.927 22.362 152.328 22.1016 152.79 21.9081C153.251 21.7146 153.765 21.6178 154.315 21.6178C154.859 21.6178 155.357 21.7146 155.826 21.9006C156.288 22.0867 156.689 22.3472 157.024 22.6746C157.359 23.0021 157.627 23.389 157.821 23.8281C158.014 24.2672 158.111 24.7435 158.111 25.2496V25.2719C158.111 25.7779 158.014 26.2542 157.821 26.6933C157.627 27.1324 157.359 27.5194 157.017 27.8543C156.675 28.1892 156.273 28.4496 155.811 28.6431C155.35 28.8366 154.836 28.9334 154.286 28.9334M154.315 27.2217C154.606 27.2217 154.859 27.1696 155.082 27.0729C155.305 26.9687 155.499 26.8347 155.655 26.6561C155.811 26.4775 155.93 26.2766 156.012 26.0459C156.094 25.8152 156.139 25.5696 156.139 25.3017V25.2793C156.139 25.0189 156.094 24.7658 156.005 24.5351C155.915 24.3044 155.789 24.096 155.625 23.9174C155.462 23.7388 155.261 23.5974 155.037 23.4932C154.807 23.389 154.561 23.3369 154.286 23.3369C153.995 23.3369 153.742 23.389 153.519 23.4858C153.296 23.5825 153.102 23.7239 152.946 23.8951C152.79 24.0737 152.671 24.2746 152.581 24.5054C152.5 24.7361 152.455 24.9816 152.455 25.2496V25.2793C152.455 25.5398 152.5 25.7854 152.589 26.0235C152.678 26.2542 152.805 26.4626 152.968 26.6412C153.132 26.8198 153.326 26.9612 153.549 27.0654C153.772 27.1696 154.025 27.2217 154.301 27.2217M155.03 18.6484L156.749 19.4001L155.067 20.9778H153.541L155.022 18.6559L155.03 18.6484Z" fill="#575756"/>
<path d="M159.553 21.7511H161.547V22.7558C161.659 22.607 161.785 22.4656 161.919 22.3242C162.053 22.1902 162.21 22.0637 162.373 21.9595C162.537 21.8553 162.723 21.7735 162.924 21.7065C163.125 21.647 163.356 21.6172 163.609 21.6172C164.368 21.6172 164.956 21.8479 165.372 22.3167C165.789 22.7781 165.998 23.4182 165.998 24.2368V28.7913H164.003V24.8768C164.003 24.408 163.899 24.0507 163.691 23.8126C163.482 23.5745 163.184 23.4554 162.797 23.4554C162.41 23.4554 162.105 23.5745 161.882 23.8126C161.659 24.0507 161.547 24.408 161.547 24.8768V28.7913H159.553V21.7586V21.7511Z" fill="#575756"/>
<path d="M66.3598 44.1991C65.9951 44.1991 65.6677 44.1545 65.3923 44.0652C65.1095 43.9759 64.8416 43.8568 64.5886 43.708L65.2583 42.2642C65.3923 42.3461 65.5337 42.4056 65.6826 42.4577C65.8388 42.5098 65.9802 42.5396 66.1068 42.5396C66.2854 42.5396 66.4193 42.5098 66.5235 42.4428C66.6277 42.3758 66.717 42.2568 66.8063 42.0781L64.0527 35.0156H66.1663L67.7663 39.8083L69.3068 35.0156H71.3832L68.6743 42.2195C68.5403 42.5768 68.3989 42.8819 68.2575 43.1349C68.1087 43.3805 67.9449 43.5889 67.7663 43.7452C67.5877 43.9015 67.3868 44.0131 67.1561 44.0875C66.9254 44.1545 66.6649 44.1917 66.3672 44.1917" fill="#575756"/>
<path d="M76.7031 32.875H80.9005C82.0614 32.875 82.9545 33.1876 83.5796 33.8127C84.1005 34.3411 84.3685 35.0406 84.3685 35.9114V35.9411C84.3685 36.6853 84.1824 37.2881 83.8252 37.757C83.4605 38.2258 82.9843 38.5682 82.4038 38.784L84.6513 42.066H82.2847L80.32 39.1263H78.7274V42.066H76.7031V32.875ZM80.774 37.3402C81.2726 37.3402 81.6521 37.2212 81.92 36.983C82.1879 36.7449 82.3219 36.4323 82.3219 36.0379V36.0081C82.3219 35.569 82.1805 35.2416 81.9051 35.0258C81.6223 34.8099 81.2353 34.6983 80.7367 34.6983H78.7274V37.3328H80.774V37.3402Z" fill="#575756"/>
<path d="M89.3151 42.2367C88.7867 42.2367 88.3029 42.1474 87.8489 41.9762C87.4024 41.7976 87.008 41.552 86.6806 41.2246C86.3531 40.8971 86.1001 40.5176 85.914 40.0785C85.728 39.6394 85.6387 39.1482 85.6387 38.605V38.5752C85.6387 38.0766 85.728 37.6077 85.8991 37.1537C86.0703 36.7072 86.3085 36.3202 86.6136 35.9853C86.9187 35.6505 87.2834 35.39 87.7076 35.1965C88.1318 35.003 88.6006 34.9062 89.1216 34.9062C89.7095 34.9062 90.2155 35.0104 90.6472 35.2263C91.0788 35.4346 91.4286 35.7174 91.7188 36.0746C92.0016 36.4319 92.21 36.8337 92.3514 37.2951C92.4854 37.7566 92.5523 38.2329 92.5523 38.7315C92.5523 38.8133 92.5523 38.8952 92.5523 38.9771C92.5523 39.0664 92.5375 39.1557 92.53 39.2524H87.6331C87.7299 39.7064 87.9308 40.0487 88.2285 40.2794C88.5336 40.5101 88.9057 40.6292 89.3523 40.6292C89.6872 40.6292 89.9848 40.5697 90.2453 40.458C90.5058 40.3464 90.7812 40.1604 91.0565 39.9073L92.1951 40.9194C91.8602 41.3288 91.4584 41.6488 90.9895 41.8869C90.5207 42.1176 89.9625 42.2367 89.3225 42.2367M90.6025 38.0096C90.543 37.5631 90.3867 37.2058 90.1337 36.923C89.8806 36.6477 89.5458 36.5063 89.1216 36.5063C88.6974 36.5063 88.3625 36.6403 88.102 36.9156C87.8415 37.1835 87.6778 37.5482 87.5959 38.0022H90.6025V38.0096Z" fill="#575756"/>
<path d="M96.5004 42.2013C96.0018 42.2013 95.4957 42.1195 94.9747 41.9483C94.4538 41.7771 93.9552 41.5092 93.4863 41.1371L94.3422 39.8273C94.7292 40.1101 95.1087 40.3185 95.4882 40.4599C95.8678 40.6013 96.225 40.6683 96.5599 40.6683C96.8501 40.6683 97.0586 40.6236 97.1925 40.5269C97.3265 40.4301 97.3934 40.3036 97.3934 40.1473V40.1176C97.3934 40.0134 97.3562 39.9241 97.2744 39.8422C97.1925 39.7603 97.0883 39.6934 96.9544 39.6413C96.8204 39.5817 96.6641 39.5296 96.4855 39.4775C96.3069 39.4254 96.1283 39.3659 95.9348 39.3064C95.6892 39.2394 95.4436 39.1501 95.1906 39.0533C94.9376 38.9566 94.7143 38.8226 94.5133 38.6589C94.3124 38.4952 94.1487 38.3017 94.0222 38.0635C93.8957 37.8254 93.8287 37.5352 93.8287 37.2003V37.1705C93.8287 36.8133 93.8957 36.4933 94.0296 36.2179C94.1636 35.9425 94.3496 35.7118 94.5803 35.5184C94.811 35.3249 95.0864 35.1835 95.3915 35.0867C95.6966 34.99 96.039 34.9453 96.3962 34.9453C96.8427 34.9453 97.2967 35.0197 97.7581 35.1611C98.2195 35.3025 98.6362 35.5035 99.0232 35.7565L98.2642 37.1333C97.9144 36.9323 97.5721 36.7686 97.2372 36.6495C96.9023 36.5305 96.612 36.4709 96.359 36.4709C96.106 36.4709 95.9273 36.5156 95.8083 36.6123C95.6817 36.7016 95.6222 36.8207 95.6222 36.9621V36.9919C95.6222 37.0886 95.6594 37.1705 95.7413 37.2449C95.8232 37.3193 95.9273 37.3863 96.0539 37.4533C96.1878 37.5203 96.3366 37.5798 96.5078 37.6468C96.679 37.7063 96.8576 37.7659 97.0511 37.8328C97.2967 37.9147 97.5423 38.004 97.7953 38.1156C98.0483 38.2273 98.279 38.3612 98.48 38.5175C98.6809 38.6738 98.8446 38.8673 98.9786 39.098C99.1125 39.3287 99.1721 39.6041 99.1721 39.9241V39.9538C99.1721 40.3483 99.1051 40.6832 98.9711 40.9734C98.8372 41.2562 98.6437 41.4943 98.3981 41.6729C98.1525 41.859 97.8697 41.993 97.5348 42.0897C97.2074 42.179 96.8502 42.2237 96.4781 42.2237" fill="#575756"/>
<path d="M100.662 32.4844H102.761V34.2556H100.662V32.4844ZM100.714 35.037H102.709V42.0772H100.714V35.037Z" fill="#575756"/>
<path d="M106.676 32.4844H104.682V42.0698H106.676V32.4844Z" fill="#575756"/>
<path d="M108.59 32.4844H110.688V34.2556H108.59V32.4844ZM108.642 35.0296H110.636V42.0698H108.642V35.0296Z" fill="#575756"/>
<path d="M115.848 42.2367C115.32 42.2367 114.836 42.1474 114.382 41.9762C113.928 41.7976 113.541 41.552 113.214 41.2246C112.886 40.8971 112.633 40.5176 112.447 40.0785C112.261 39.6394 112.172 39.1482 112.172 38.605V38.5752C112.172 38.0766 112.261 37.6077 112.432 37.1538C112.603 36.7072 112.842 36.3202 113.147 35.9853C113.452 35.6505 113.817 35.39 114.241 35.1965C114.665 35.003 115.134 34.9062 115.655 34.9062C116.243 34.9062 116.749 35.0104 117.18 35.2263C117.612 35.4346 117.962 35.7174 118.252 36.0747C118.535 36.4319 118.743 36.8338 118.885 37.2952C119.019 37.7566 119.086 38.2329 119.086 38.7315C119.086 38.8133 119.086 38.8952 119.086 38.9771C119.086 39.0664 119.071 39.1557 119.063 39.2524H114.166C114.263 39.7064 114.464 40.0487 114.762 40.2794C115.067 40.5101 115.439 40.6292 115.885 40.6292C116.22 40.6292 116.518 40.5697 116.779 40.458C117.039 40.3464 117.314 40.1604 117.59 39.9073L118.728 40.9194C118.393 41.3288 117.992 41.6488 117.523 41.8869C117.054 42.1176 116.496 42.2367 115.856 42.2367M117.136 38.0096C117.076 37.5631 116.92 37.2059 116.667 36.9231C116.414 36.6477 116.079 36.5063 115.655 36.5063C115.231 36.5063 114.896 36.6403 114.635 36.9156C114.375 37.1835 114.211 37.5482 114.129 38.0022H117.136V38.0096Z" fill="#575756"/>
<path d="M120.559 35.0558H122.553V36.0605C122.665 35.9117 122.791 35.7703 122.925 35.6289C123.059 35.4949 123.215 35.3684 123.379 35.2642C123.543 35.16 123.729 35.0782 123.93 35.0112C124.131 34.9517 124.362 34.9219 124.615 34.9219C125.374 34.9219 125.962 35.1526 126.378 35.6214C126.795 36.0828 127.003 36.7229 127.003 37.5415V42.096H125.009V38.1815C125.009 37.7127 124.905 37.3554 124.696 37.1173C124.488 36.8791 124.19 36.7601 123.803 36.7601C123.416 36.7601 123.111 36.8791 122.888 37.1173C122.665 37.3554 122.553 37.7127 122.553 38.1815V42.096H120.559V35.0633V35.0558Z" fill="#575756"/>
<path d="M132.052 42.2441C131.524 42.2441 131.04 42.1474 130.586 41.9539C130.132 41.7604 129.745 41.4999 129.425 41.1725C129.098 40.845 128.845 40.458 128.666 40.019C128.48 39.5799 128.391 39.1036 128.391 38.605V38.5752C128.391 38.0766 128.487 37.6003 128.666 37.1538C128.852 36.7072 129.105 36.3202 129.425 35.9853C129.745 35.6505 130.14 35.39 130.586 35.1965C131.04 35.003 131.531 34.9062 132.074 34.9062C132.737 34.9062 133.287 35.0104 133.727 35.2263C134.166 35.4346 134.545 35.7249 134.88 36.0895L133.66 37.3993C133.429 37.1612 133.198 36.9751 132.96 36.8337C132.722 36.6923 132.417 36.6254 132.06 36.6254C131.807 36.6254 131.576 36.6775 131.367 36.7742C131.159 36.8784 130.98 37.0124 130.832 37.191C130.675 37.3696 130.564 37.5705 130.474 37.8012C130.393 38.0319 130.348 38.2775 130.348 38.5454V38.5752C130.348 38.8431 130.393 39.0961 130.474 39.3343C130.556 39.5724 130.675 39.7808 130.832 39.952C130.988 40.1306 131.174 40.2645 131.397 40.3687C131.613 40.4729 131.859 40.5176 132.134 40.5176C132.469 40.5176 132.759 40.4506 133.005 40.3166C133.25 40.1827 133.503 39.9966 133.749 39.7734L134.917 40.9567C134.575 41.3362 134.188 41.6413 133.749 41.8795C133.31 42.1176 132.744 42.2367 132.045 42.2367" fill="#575756"/>
<path d="M136.275 32.5H138.374V34.2712H136.275V32.5ZM136.327 35.0526H138.322V42.0928H136.327V35.0526Z" fill="#575756"/>
<path d="M142.19 42.2251C141.855 42.2251 141.543 42.1805 141.252 42.0837C140.962 41.9944 140.702 41.853 140.486 41.667C140.27 41.4809 140.092 41.2577 139.965 40.9898C139.838 40.7218 139.771 40.4167 139.771 40.0669V40.0372C139.771 39.6502 139.838 39.3227 139.98 39.0399C140.121 38.7571 140.315 38.5264 140.56 38.3478C140.813 38.1618 141.104 38.0278 141.453 37.9385C141.796 37.8492 142.183 37.7971 142.599 37.8046C142.957 37.8046 143.269 37.8343 143.537 37.8864C143.805 37.9385 144.066 38.0129 144.319 38.0948V37.9757C144.319 37.559 144.192 37.239 143.939 37.0157C143.686 36.7999 143.306 36.6882 142.808 36.6882C142.421 36.6882 142.086 36.718 141.788 36.785C141.498 36.852 141.186 36.9413 140.865 37.0678L140.367 35.5422C140.754 35.3784 141.156 35.2445 141.572 35.1329C141.989 35.0287 142.503 34.9766 143.098 34.9766C143.649 34.9766 144.118 35.0435 144.512 35.1775C144.899 35.3115 145.219 35.5124 145.48 35.7654C145.74 36.0259 145.934 36.3533 146.06 36.7329C146.187 37.1124 146.246 37.5366 146.246 38.0129V42.0986H144.311V41.3395C144.066 41.6075 143.775 41.8307 143.433 41.987C143.091 42.1507 142.674 42.2326 142.183 42.2326M142.793 40.8484C143.262 40.8484 143.641 40.7367 143.932 40.506C144.214 40.2753 144.356 39.9776 144.356 39.613V39.2558C144.177 39.1739 143.984 39.1144 143.775 39.0623C143.56 39.0176 143.329 38.9878 143.083 38.9878C142.652 38.9878 142.317 39.0697 142.071 39.2334C141.826 39.3972 141.699 39.6427 141.699 39.9553V39.9776C141.699 40.253 141.803 40.4614 142.004 40.6102C142.205 40.7591 142.466 40.8335 142.793 40.8335" fill="#575756"/>
<path d="M35.7621 0.241444L35.7547 9.23891L27.5461 9.23147L27.5312 45.4148H17.797L17.8118 9.22403H9.55859V0.226562L35.7621 0.241444Z" fill="#CE0E2D"/>
<path d="M45.3679 31.0312L44.006 31.4629C41.7957 32.1699 39.5184 32.609 37.2188 32.7801L34.748 32.8397L43.686 45.3944H55.6901L45.3604 31.0312H45.3679Z" fill="#CE0E2D"/>
<path d="M15.9374 39.3306L13.0424 39.1594L12.581 36.5547L11.1298 39.0478L8.08594 38.8692L10.1995 40.685L8.74829 43.2674L11.5093 41.8311L14.2331 43.5874L13.3921 40.9604L15.9374 39.3306Z" fill="#FFCD00"/>
<path d="M7.73744 30.3677L5.03597 30.2114L4.60432 27.8672L3.26475 30.1073L0.421875 29.9435L2.39404 31.5808L0.652577 33.8804L3.61455 32.6152L5.75783 34.1781L5.37087 31.8338L7.73744 30.3677Z" fill="#FFCD00"/>
<path d="M6.81441 20.6433L4.38084 20.5019L3.98644 18.5L2.78078 20.4052L0.220703 20.2563L1.99937 21.6554L0.436552 23.6127L3.10823 22.541L5.0432 23.8806L4.68595 21.8861L6.81441 20.6433Z" fill="#FFCD00"/>
<path d="M11.3707 13.0949L9.24965 12.9683L8.89989 11.3906L7.85798 12.8865L5.63281 12.76L7.18823 13.8688L5.83376 15.4093L8.14824 14.5758L9.8376 15.64L9.525 14.0623L11.3707 13.0949Z" fill="#FFCD00"/>
<path d="M53.0782 9.57782C52.2447 7.65776 51.0465 6.01306 49.4837 4.62884C47.9283 3.25205 46.0306 2.16551 43.7905 1.42874C40.1662 0.230571 36.7056 0.297552 36.7056 0.297552C36.7056 3.29671 36.7205 6.25865 36.7056 9.28013C38.2834 9.43642 39.9727 9.86061 41.4909 11.029C43.0016 12.19 43.7607 13.8942 43.7607 16.1343V16.2608C43.7607 18.2032 43.0388 19.8256 41.5876 21.1428C40.1439 22.46 38.1047 23.1149 35.4851 23.1149H28.4375C28.4524 26.0918 28.4375 29.0016 28.4375 31.9636H35.1428C37.8071 31.9636 40.3076 31.6361 42.6295 30.9663C44.9589 30.2965 46.9906 29.2993 48.732 27.9672C50.4734 26.635 51.8428 24.9755 52.8326 22.9959C53.8298 21.0163 54.3285 18.7092 54.3285 16.0822V15.9557C54.3285 13.6263 53.9117 11.5053 53.0782 9.5927" fill="#FFCD00"/>
</svg>
