<svg width="249" height="248" viewBox="0 0 249 248" fill="none" xmlns="http://www.w3.org/2000/svg">
<circle cx="124.458" cy="124.329" r="118.113" fill="#006EA0" stroke="#8CDBFF" stroke-width="10.7127"/>
<path fill-rule="evenodd" clip-rule="evenodd" d="M161.264 66.2552L112.748 115.061L87.0156 89.3291L99.4876 76.8572L112.71 90.08L148.755 53.8203L161.264 66.2552Z" fill="#AAFFD3"/>
<path d="M80.649 143.434V146.8H86.0777V149.93H80.649V153.58H86.7889V156.828H76.5952V140.186H86.7889V143.434H80.649ZM97.4807 143.458C99.0295 143.458 100.262 143.964 101.179 144.975C102.111 145.971 102.577 147.346 102.577 149.1V156.828H98.5475V149.645C98.5475 148.76 98.3183 148.073 97.86 147.583C97.4017 147.093 96.7853 146.848 96.0109 146.848C95.2365 146.848 94.6201 147.093 94.1618 147.583C93.7035 148.073 93.4743 148.76 93.4743 149.645V156.828H89.4206V143.6H93.4743V145.354C93.8853 144.77 94.4384 144.311 95.1338 143.979C95.8292 143.632 96.6115 143.458 97.4807 143.458ZM111.345 153.035L114.213 143.6H118.528L113.834 156.828H108.832L104.138 143.6H108.476L111.345 153.035ZM122.273 142.225C121.561 142.225 120.977 142.02 120.518 141.609C120.076 141.182 119.855 140.661 119.855 140.044C119.855 139.412 120.076 138.891 120.518 138.48C120.977 138.053 121.561 137.84 122.273 137.84C122.968 137.84 123.537 138.053 123.979 138.48C124.438 138.891 124.667 139.412 124.667 140.044C124.667 140.661 124.438 141.182 123.979 141.609C123.537 142.02 122.968 142.225 122.273 142.225ZM124.288 143.6V156.828H120.234V143.6H124.288ZM126.419 150.19C126.419 148.831 126.672 147.638 127.178 146.611C127.699 145.584 128.403 144.793 129.288 144.24C130.173 143.687 131.161 143.41 132.251 143.41C133.183 143.41 133.997 143.6 134.693 143.979C135.404 144.359 135.949 144.857 136.328 145.473V143.6H140.382V156.828H136.328V154.955C135.933 155.572 135.38 156.07 134.669 156.449C133.974 156.828 133.16 157.018 132.227 157.018C131.153 157.018 130.173 156.741 129.288 156.188C128.403 155.619 127.699 154.821 127.178 153.794C126.672 152.751 126.419 151.55 126.419 150.19ZM136.328 150.214C136.328 149.203 136.044 148.405 135.475 147.82C134.922 147.235 134.242 146.943 133.436 146.943C132.63 146.943 131.943 147.235 131.374 147.82C130.821 148.389 130.544 149.179 130.544 150.19C130.544 151.202 130.821 152.008 131.374 152.608C131.943 153.193 132.63 153.486 133.436 153.486C134.242 153.486 134.922 153.193 135.475 152.608C136.044 152.024 136.328 151.226 136.328 150.214ZM142.509 150.19C142.509 148.831 142.762 147.638 143.268 146.611C143.789 145.584 144.492 144.793 145.377 144.24C146.262 143.687 147.25 143.41 148.341 143.41C149.21 143.41 150 143.592 150.711 143.956C151.438 144.319 152.007 144.809 152.418 145.425V139.286H156.472V156.828H152.418V154.932C152.039 155.564 151.494 156.07 150.782 156.449C150.087 156.828 149.273 157.018 148.341 157.018C147.25 157.018 146.262 156.741 145.377 156.188C144.492 155.619 143.789 154.821 143.268 153.794C142.762 152.751 142.509 151.55 142.509 150.19ZM152.418 150.214C152.418 149.203 152.134 148.405 151.565 147.82C151.012 147.235 150.332 146.943 149.526 146.943C148.72 146.943 148.032 147.235 147.463 147.82C146.91 148.389 146.634 149.179 146.634 150.19C146.634 151.202 146.91 152.008 147.463 152.608C148.032 153.193 148.72 153.486 149.526 153.486C150.332 153.486 151.012 153.193 151.565 152.608C152.134 152.024 152.418 151.226 152.418 150.214ZM158.599 150.19C158.599 148.831 158.851 147.638 159.357 146.611C159.879 145.584 160.582 144.793 161.467 144.24C162.352 143.687 163.34 143.41 164.43 143.41C165.363 143.41 166.177 143.6 166.872 143.979C167.583 144.359 168.128 144.857 168.508 145.473V143.6H172.561V156.828H168.508V154.955C168.113 155.572 167.559 156.07 166.848 156.449C166.153 156.828 165.339 157.018 164.407 157.018C163.332 157.018 162.352 156.741 161.467 156.188C160.582 155.619 159.879 154.821 159.357 153.794C158.851 152.751 158.599 151.55 158.599 150.19ZM168.508 150.214C168.508 149.203 168.223 148.405 167.654 147.82C167.101 147.235 166.422 146.943 165.616 146.943C164.81 146.943 164.122 147.235 163.553 147.82C163 148.389 162.723 149.179 162.723 150.19C162.723 151.202 163 152.008 163.553 152.608C164.122 153.193 164.81 153.486 165.616 153.486C166.422 153.486 167.101 153.193 167.654 152.608C168.223 152.024 168.508 151.226 168.508 150.214Z" fill="#DBF4FF"/>
<path d="M104.667 196.853C103.451 196.853 102.36 196.656 101.396 196.261C100.432 195.866 99.6575 195.281 99.0728 194.507C98.5038 193.732 98.2036 192.8 98.172 191.709H102.486C102.55 192.326 102.763 192.8 103.127 193.132C103.49 193.448 103.964 193.606 104.549 193.606C105.149 193.606 105.624 193.471 105.971 193.203C106.319 192.918 106.493 192.531 106.493 192.041C106.493 191.63 106.351 191.29 106.066 191.022C105.797 190.753 105.458 190.532 105.047 190.358C104.652 190.184 104.083 189.987 103.34 189.765C102.265 189.433 101.388 189.102 100.709 188.77C100.029 188.438 99.4442 187.948 98.9543 187.3C98.4643 186.652 98.2194 185.806 98.2194 184.763C98.2194 183.215 98.7804 182.006 99.9025 181.136C101.025 180.251 102.486 179.809 104.288 179.809C106.121 179.809 107.599 180.251 108.721 181.136C109.843 182.006 110.444 183.222 110.523 184.787H106.137C106.106 184.25 105.908 183.831 105.545 183.531C105.181 183.215 104.715 183.056 104.146 183.056C103.656 183.056 103.261 183.191 102.961 183.459C102.66 183.712 102.51 184.084 102.51 184.574C102.51 185.111 102.763 185.53 103.269 185.83C103.774 186.13 104.565 186.454 105.639 186.802C106.714 187.166 107.583 187.513 108.247 187.845C108.927 188.177 109.511 188.659 110.001 189.291C110.491 189.923 110.736 190.737 110.736 191.733C110.736 192.681 110.491 193.542 110.001 194.317C109.527 195.091 108.832 195.708 107.915 196.166C106.999 196.624 105.916 196.853 104.667 196.853ZM125.7 189.86C125.7 190.239 125.677 190.635 125.629 191.045H116.455C116.518 191.867 116.779 192.499 117.237 192.942C117.711 193.369 118.288 193.582 118.968 193.582C119.979 193.582 120.682 193.155 121.078 192.302H125.392C125.171 193.171 124.768 193.953 124.183 194.649C123.614 195.344 122.895 195.889 122.026 196.284C121.157 196.68 120.185 196.877 119.11 196.877C117.814 196.877 116.66 196.601 115.649 196.047C114.637 195.494 113.847 194.704 113.278 193.677C112.709 192.65 112.425 191.448 112.425 190.073C112.425 188.699 112.701 187.497 113.255 186.47C113.824 185.443 114.614 184.653 115.625 184.1C116.637 183.546 117.798 183.27 119.11 183.27C120.39 183.27 121.528 183.539 122.524 184.076C123.519 184.613 124.294 185.38 124.847 186.375C125.416 187.371 125.7 188.533 125.7 189.86ZM121.552 188.793C121.552 188.098 121.315 187.545 120.841 187.134C120.366 186.723 119.774 186.518 119.063 186.518C118.383 186.518 117.806 186.715 117.332 187.11C116.874 187.505 116.589 188.066 116.479 188.793H121.552ZM135.899 183.317C137.448 183.317 138.68 183.823 139.597 184.834C140.529 185.83 140.996 187.205 140.996 188.959V196.688H136.966V189.505C136.966 188.62 136.737 187.932 136.278 187.442C135.82 186.952 135.204 186.707 134.429 186.707C133.655 186.707 133.038 186.952 132.58 187.442C132.122 187.932 131.893 188.62 131.893 189.505V196.688H127.839V183.459H131.893V185.214C132.303 184.629 132.857 184.171 133.552 183.839C134.247 183.491 135.03 183.317 135.899 183.317ZM151.185 193.25V196.688H149.123C147.653 196.688 146.507 196.332 145.685 195.621C144.864 194.894 144.453 193.716 144.453 192.089V186.826H142.841V183.459H144.453V180.235H148.506V183.459H151.162V186.826H148.506V192.136C148.506 192.531 148.601 192.816 148.791 192.989C148.981 193.163 149.297 193.25 149.739 193.25H151.185Z" fill="#EBC714"/>
</svg>
