<svg width="204" height="52" viewBox="0 0 204 52" fill="none" xmlns="http://www.w3.org/2000/svg">
<path d="M74.6589 0.46875H0V51.1642H74.6589V0.46875Z" fill="white"/>
<path d="M73.2292 1.83594H1.43555V49.6959H73.2292V1.83594Z" fill="#034EA2"/>
<path d="M35.8057 12.2659L37.3239 11.157L38.8347 12.2659L38.2616 10.4798L39.7947 9.37092H37.9044L37.3239 7.5625L36.7434 9.37092H34.8457L36.3788 10.4798L35.8057 12.2659Z" fill="#F9E927"/>
<path d="M27.9675 14.3753L29.4782 13.2664L30.9964 14.3753L30.4159 12.5892L31.9564 11.4803H30.0587L29.4782 9.67188L28.8977 11.4803H27L28.5405 12.5892L27.9675 14.3753Z" fill="#F9E927"/>
<path d="M23.7423 15.3984L23.1618 17.2143H21.2715L22.8046 18.3157L22.2315 20.1093L23.7423 19.0004L25.2604 20.1093L24.6874 18.3157L26.2205 17.2143H24.3227L23.7423 15.3984Z" fill="#F9E927"/>
<path d="M21.6481 26.8442L23.1589 27.953L22.5858 26.1595L24.1189 25.0581H22.2286L21.6481 23.2422L21.0676 25.0581H19.1699L20.7104 26.1595L20.1299 27.953L21.6481 26.8442Z" fill="#F9E927"/>
<path d="M24.3227 32.91L23.7423 31.1016L23.1618 32.91H21.2715L22.8046 34.0189L22.2315 35.805L23.7423 34.6961L25.2604 35.805L24.68 34.0189L26.2205 32.91H24.3227Z" fill="#F9E927"/>
<path d="M30.0724 38.6756L29.4919 36.8672L28.9114 38.6756H27.0137L28.5542 39.7845L27.9737 41.5706L29.4919 40.4691L31.0026 41.5706L30.4296 39.7845L31.9701 38.6756H30.0724Z" fill="#F9E927"/>
<path d="M37.9044 40.7537L37.3239 38.9453L36.7434 40.7537H34.8457L36.3862 41.8626L35.8057 43.6487L37.3239 42.5398L38.8347 43.6487L38.2616 41.8626L39.8021 40.7537H37.9044Z" fill="#F9E927"/>
<path d="M45.7384 38.6756L45.1579 36.8672L44.5774 38.6756H42.6797L44.2202 39.7845L43.6397 41.5706L45.1579 40.4691L46.6686 41.5706L46.0956 39.7845L47.6361 38.6756H45.7384Z" fill="#F9E927"/>
<path d="M51.4786 32.91L50.8981 31.1016L50.3177 32.91H48.4199L49.9604 34.0189L49.3874 35.805L50.8981 34.6961L52.4163 35.805L51.8358 34.0189L53.3763 32.91H51.4786Z" fill="#F9E927"/>
<path d="M55.4623 25.0424H53.5646L52.9841 23.2266L52.4036 25.0424H50.5059L52.0464 26.1439L51.4659 27.9374L52.9841 26.8285L54.4948 27.9374L53.9218 26.1439L55.4623 25.0424Z" fill="#F9E927"/>
<path d="M49.3874 20.094L50.8981 18.9926L52.4163 20.094L51.8358 18.3079L53.3763 17.2065H51.4786L50.8981 15.3906L50.3177 17.2065H48.4199L49.9604 18.3079L49.3874 20.094Z" fill="#F9E927"/>
<path d="M45.1794 9.67188L44.5989 11.4877L42.7012 11.4803L44.2417 12.5892L43.6612 14.3753L45.1794 13.2664L46.6901 14.3753L46.1171 12.5892L47.6576 11.4803H45.7599L45.1794 9.67188Z" fill="#F9E927"/>
<path d="M82.1191 20.163V9.46875H89.4496V11.2772H84.2773V13.8149H88.7426V15.6159H84.2773V20.163H82.1191Z" fill="#034EA2"/>
<path d="M91.209 9.46875H93.2556V11.3665H91.209V9.46875ZM91.209 12.4158H93.2556V20.163H91.209V12.4158Z" fill="#034EA2"/>
<path d="M102.403 20.1606H100.356V16.2088C100.356 15.3753 100.312 14.832 100.222 14.5864C100.133 14.3408 99.9915 14.1474 99.798 14.0134C99.6045 13.8794 99.3664 13.8125 99.091 13.8125C98.7338 13.8125 98.4138 13.9092 98.131 14.1027C97.8482 14.2962 97.6547 14.5567 97.5505 14.8767C97.4463 15.1967 97.3942 15.7921 97.3942 16.6553V20.1606H95.3477V12.4134H97.2528V13.552C97.9301 12.6738 98.7784 12.2422 99.8055 12.2422C100.259 12.2422 100.669 12.324 101.048 12.4878C101.42 12.6515 101.703 12.8599 101.897 13.1129C102.09 13.3659 102.224 13.6562 102.299 13.9762C102.373 14.2962 102.41 14.7576 102.41 15.353V20.168L102.403 20.1606Z" fill="#034EA2"/>
<path d="M106.014 14.7799L104.154 14.445C104.362 13.6934 104.719 13.1427 105.233 12.7855C105.746 12.4282 106.505 12.2422 107.51 12.2422C108.425 12.2422 109.103 12.3538 109.549 12.5696C109.996 12.7855 110.308 13.0608 110.494 13.3957C110.673 13.7306 110.77 14.3408 110.77 15.2265L110.747 17.6154C110.747 18.3 110.777 18.7987 110.844 19.1187C110.911 19.4387 111.03 19.7884 111.216 20.1606H109.192C109.14 20.0266 109.073 19.8257 108.998 19.5577C108.961 19.4387 108.939 19.3568 108.924 19.3196C108.574 19.6619 108.202 19.915 107.8 20.0861C107.398 20.2573 106.974 20.3392 106.52 20.3392C105.724 20.3392 105.091 20.1233 104.637 19.6917C104.176 19.2601 103.945 18.7093 103.945 18.047C103.945 17.6079 104.05 17.2209 104.258 16.8786C104.466 16.5363 104.756 16.2758 105.136 16.0897C105.516 15.9111 106.059 15.7474 106.766 15.6134C107.726 15.4348 108.388 15.2637 108.76 15.1074V14.9064C108.76 14.512 108.664 14.2292 108.47 14.0655C108.277 13.8943 107.912 13.8125 107.369 13.8125C107.004 13.8125 106.721 13.8869 106.513 14.0283C106.304 14.1697 106.141 14.4227 106.014 14.7799ZM108.76 16.4395C108.5 16.5288 108.083 16.633 107.51 16.7521C106.944 16.8712 106.572 16.9902 106.394 17.1093C106.126 17.2954 105.992 17.5409 105.992 17.8312C105.992 18.1214 106.096 18.367 106.312 18.5754C106.528 18.7838 106.796 18.888 107.131 18.888C107.503 18.888 107.852 18.7689 108.187 18.5233C108.433 18.3372 108.597 18.114 108.678 17.8461C108.731 17.6749 108.76 17.34 108.76 16.8488V16.4395Z" fill="#034EA2"/>
<path d="M119.838 20.1606H117.792V16.2088C117.792 15.3753 117.747 14.832 117.658 14.5864C117.568 14.3408 117.427 14.1474 117.234 14.0134C117.04 13.8794 116.802 13.8125 116.527 13.8125C116.169 13.8125 115.849 13.9092 115.567 14.1027C115.284 14.2962 115.09 14.5567 114.986 14.8767C114.882 15.1967 114.83 15.7921 114.83 16.6553V20.1606H112.783V12.4134H114.688V13.552C115.366 12.6738 116.214 12.2422 117.241 12.2422C117.695 12.2422 118.104 12.324 118.484 12.4878C118.856 12.6515 119.139 12.8599 119.332 13.1129C119.526 13.3659 119.66 13.6562 119.734 13.9762C119.809 14.2962 119.846 14.7576 119.846 15.353V20.168L119.838 20.1606Z" fill="#034EA2"/>
<path d="M128.667 14.7055L126.65 15.0702C126.583 14.6683 126.427 14.3632 126.189 14.1622C125.95 13.9539 125.638 13.8571 125.251 13.8571C124.737 13.8571 124.336 14.0357 124.03 14.3855C123.725 14.7353 123.576 15.3306 123.576 16.1567C123.576 17.0721 123.733 17.727 124.038 18.1065C124.343 18.4861 124.76 18.6721 125.281 18.6721C125.668 18.6721 125.988 18.5605 126.233 18.3372C126.479 18.114 126.657 17.7344 126.762 17.1986L128.771 17.5409C128.563 18.4638 128.161 19.1633 127.565 19.6322C126.97 20.101 126.174 20.3392 125.184 20.3392C124.053 20.3392 123.152 19.9819 122.475 19.2675C121.805 18.5531 121.463 17.5633 121.463 16.2981C121.463 15.033 121.798 14.0283 122.475 13.3138C123.152 12.5994 124.068 12.2422 125.221 12.2422C126.166 12.2422 126.91 12.4431 127.469 12.8524C128.027 13.2618 128.429 13.8794 128.667 14.7055Z" fill="#034EA2"/>
<path d="M130.217 9.46875H132.263V11.3665H130.217V9.46875ZM130.217 12.4158H132.263V20.163H130.217V12.4158Z" fill="#034EA2"/>
<path d="M135.901 14.7799L134.04 14.445C134.249 13.6934 134.606 13.1427 135.12 12.7855C135.633 12.4282 136.392 12.2422 137.397 12.2422C138.312 12.2422 138.989 12.3538 139.436 12.5696C139.882 12.7855 140.195 13.0608 140.381 13.3957C140.56 13.7306 140.656 14.3408 140.656 15.2265L140.634 17.6154C140.634 18.3 140.664 18.7987 140.731 19.1187C140.798 19.4387 140.917 19.7884 141.103 20.1606H139.079C139.027 20.0266 138.96 19.8257 138.885 19.5577C138.848 19.4387 138.826 19.3568 138.811 19.3196C138.461 19.6619 138.089 19.915 137.687 20.0861C137.285 20.2573 136.861 20.3392 136.407 20.3392C135.611 20.3392 134.978 20.1233 134.524 19.6917C134.063 19.2601 133.832 18.7093 133.832 18.047C133.832 17.6079 133.936 17.2209 134.145 16.8786C134.353 16.5363 134.643 16.2758 135.023 16.0897C135.402 15.9111 135.946 15.7474 136.653 15.6134C137.613 15.4348 138.275 15.2637 138.647 15.1074V14.9064C138.647 14.512 138.55 14.2292 138.357 14.0655C138.163 13.8943 137.799 13.8125 137.255 13.8125C136.891 13.8125 136.608 13.8869 136.4 14.0283C136.191 14.1697 136.027 14.4227 135.901 14.7799ZM138.64 16.4395C138.379 16.5288 137.962 16.633 137.389 16.7521C136.824 16.8712 136.452 16.9902 136.273 17.1093C136.005 17.2954 135.871 17.5409 135.871 17.8312C135.871 18.1214 135.975 18.367 136.191 18.5754C136.407 18.7838 136.675 18.888 137.01 18.888C137.382 18.888 137.732 18.7689 138.067 18.5233C138.312 18.3372 138.476 18.114 138.558 17.8461C138.61 17.6749 138.64 17.34 138.64 16.8488V16.4395Z" fill="#034EA2"/>
<path d="M149.782 20.1556H147.877V19.0169C147.557 19.4634 147.185 19.7909 146.76 20.0067C146.329 20.2225 145.897 20.3342 145.458 20.3342C144.565 20.3342 143.806 19.977 143.173 19.2551C142.541 18.5406 142.221 17.536 142.221 16.2559C142.221 14.9759 142.526 13.9489 143.144 13.2642C143.761 12.5795 144.543 12.2372 145.488 12.2372C146.351 12.2372 147.103 12.5944 147.735 13.3163V9.46875H149.782V20.163V20.1556ZM144.312 16.1145C144.312 16.9406 144.424 17.536 144.654 17.9081C144.982 18.4439 145.451 18.7118 146.038 18.7118C146.507 18.7118 146.909 18.5109 147.244 18.109C147.572 17.7071 147.743 17.1118 147.743 16.3155C147.743 15.4224 147.579 14.7824 147.259 14.3954C146.939 14.001 146.53 13.8075 146.024 13.8075C145.518 13.8075 145.131 14.001 144.803 14.388C144.476 14.7749 144.312 15.3554 144.312 16.122" fill="#034EA2"/>
<path d="M151.324 16.1787C151.324 15.5014 151.495 14.8391 151.83 14.1991C152.165 13.5665 152.641 13.0753 153.259 12.7404C153.877 12.4055 154.562 12.2344 155.321 12.2344C156.489 12.2344 157.449 12.6139 158.201 13.373C158.952 14.1321 159.324 15.0921 159.324 16.2605C159.324 17.4289 158.945 18.4039 158.193 19.1704C157.434 19.9369 156.489 20.3239 155.335 20.3239C154.628 20.3239 153.951 20.1602 153.304 19.8402C152.656 19.5202 152.173 19.0513 151.838 18.4262C151.503 17.8085 151.332 17.0494 151.332 16.1638M153.423 16.2903C153.423 17.0568 153.601 17.6448 153.966 18.0541C154.331 18.4634 154.777 18.6643 155.313 18.6643C155.849 18.6643 156.296 18.4634 156.66 18.0541C157.025 17.6448 157.203 17.0494 157.203 16.2754C157.203 15.5014 157.025 14.9358 156.66 14.5265C156.296 14.1172 155.849 13.9163 155.313 13.9163C154.777 13.9163 154.331 14.1172 153.966 14.5265C153.601 14.9358 153.423 15.5238 153.423 16.2903Z" fill="#034EA2"/>
<path d="M165.014 12.4134H166.926V13.552C167.172 13.165 167.507 12.845 167.931 12.6068C168.355 12.3613 168.824 12.2422 169.338 12.2422C170.238 12.2422 170.997 12.592 171.63 13.299C172.255 14.006 172.567 14.9883 172.567 16.246C172.567 17.5037 172.255 18.5456 171.622 19.2601C170.99 19.9745 170.223 20.3392 169.323 20.3392C168.898 20.3392 168.504 20.2573 168.162 20.0861C167.812 19.915 167.447 19.6247 167.068 19.208V23.1076H165.021V12.4134H165.014ZM167.038 16.1567C167.038 17.0274 167.209 17.6675 167.559 18.0842C167.901 18.501 168.325 18.7093 168.824 18.7093C169.323 18.7093 169.695 18.5159 170.015 18.1363C170.327 17.7568 170.491 17.1316 170.491 16.2609C170.491 15.4497 170.327 14.8469 170 14.4525C169.672 14.058 169.271 13.8646 168.787 13.8646C168.303 13.8646 167.871 14.0581 167.537 14.445C167.209 14.832 167.038 15.4051 167.038 16.1642" fill="#034EA2"/>
<path d="M173.723 16.1787C173.723 15.5014 173.894 14.8391 174.229 14.1991C174.564 13.5665 175.04 13.0753 175.658 12.7404C176.275 12.4055 176.96 12.2344 177.719 12.2344C178.887 12.2344 179.847 12.6139 180.599 13.373C181.351 14.1321 181.723 15.0921 181.723 16.2605C181.723 17.4289 181.343 18.4039 180.592 19.1704C179.833 19.9369 178.887 20.3239 177.734 20.3239C177.027 20.3239 176.35 20.1602 175.702 19.8402C175.055 19.5202 174.571 19.0513 174.236 18.4262C173.901 17.8085 173.73 17.0494 173.73 16.1638M175.821 16.2903C175.821 17.0568 176 17.6448 176.365 18.0541C176.729 18.4634 177.176 18.6643 177.712 18.6643C178.247 18.6643 178.694 18.4634 179.059 18.0541C179.423 17.6448 179.602 17.0494 179.602 16.2754C179.602 15.5014 179.423 14.9358 179.059 14.5265C178.694 14.1172 178.247 13.9163 177.712 13.9163C177.176 13.9163 176.729 14.1172 176.365 14.5265C176 14.9358 175.821 15.5238 175.821 16.2903Z" fill="#034EA2"/>
<path d="M185.283 20.1606H183.236V12.4134H185.141V13.5148C185.469 12.9938 185.759 12.6515 186.02 12.4878C186.28 12.324 186.578 12.2422 186.905 12.2422C187.374 12.2422 187.821 12.3687 188.252 12.6292L187.62 14.4153C187.277 14.192 186.95 14.0804 186.66 14.0804C186.369 14.0804 186.131 14.1622 185.93 14.3185C185.729 14.4748 185.573 14.765 185.462 15.1744C185.35 15.5911 185.29 16.4544 185.29 17.7716V20.1606H185.283Z" fill="#034EA2"/>
<path d="M84.1364 27.3984H82.0898V38.0927H84.1364V27.3984Z" fill="#034EA2"/>
<path d="M87.7798 32.7096L85.9193 32.3747C86.1277 31.6231 86.4849 31.0724 86.9984 30.7151C87.5119 30.3579 88.271 30.1719 89.2757 30.1719C90.1911 30.1719 90.8683 30.2835 91.3148 30.4993C91.7613 30.7151 92.0739 30.9905 92.26 31.3254C92.4386 31.6603 92.5353 32.2705 92.5353 33.1561L92.513 35.5451C92.513 36.2297 92.5428 36.7283 92.6097 37.0484C92.6767 37.3684 92.7958 37.7181 92.9818 38.0902H90.9576C90.9055 37.9563 90.8385 37.7554 90.7641 37.4874C90.7269 37.3684 90.7046 37.2865 90.6897 37.2493C90.3399 37.5916 89.9678 37.8447 89.5659 38.0158C89.1641 38.187 88.7399 38.2689 88.2859 38.2689C87.4896 38.2689 86.857 38.053 86.4031 37.6214C85.9416 37.1898 85.7109 36.639 85.7109 35.9767C85.7109 35.5376 85.8151 35.1506 86.0235 34.8083C86.2319 34.466 86.5221 34.2055 86.9017 34.0194C87.2812 33.8408 87.8245 33.6771 88.5315 33.5431C89.4915 33.3645 90.1539 33.1934 90.526 33.0371V32.8361C90.526 32.4417 90.4292 32.1589 90.2357 31.9952C90.0422 31.824 89.6776 31.7422 89.1343 31.7422C88.7696 31.7422 88.4868 31.8166 88.2785 31.958C88.0701 32.0994 87.9063 32.3524 87.7798 32.7096ZM90.5185 34.3692C90.258 34.4585 89.8413 34.5627 89.2682 34.6818C88.7026 34.8008 88.3305 34.9199 88.1519 35.039C87.884 35.225 87.7501 35.4706 87.7501 35.7609C87.7501 36.0511 87.8543 36.2967 88.0701 36.5051C88.2859 36.7135 88.5538 36.8176 88.8887 36.8176C89.2608 36.8176 89.6106 36.6986 89.9455 36.453C90.1911 36.2669 90.3548 36.0437 90.4367 35.7758C90.4888 35.6046 90.5185 35.2697 90.5185 34.7785V34.3692Z" fill="#034EA2"/>
<path d="M98.6934 27.3984H100.852V33.1884C100.852 34.1038 100.881 34.7066 100.933 34.9745C101.023 35.4136 101.246 35.7633 101.596 36.0312C101.946 36.2992 102.414 36.4257 103.025 36.4257C103.635 36.4257 104.096 36.2992 104.409 36.0536C104.721 35.8005 104.907 35.4954 104.967 35.1308C105.027 34.7661 105.064 34.1633 105.064 33.3149V27.3984H107.222V33.0172C107.222 34.2972 107.162 35.2052 107.051 35.7336C106.932 36.262 106.716 36.7085 106.403 37.0731C106.091 37.4378 105.674 37.728 105.146 37.9439C104.617 38.1597 103.933 38.2713 103.092 38.2713C102.072 38.2713 101.298 38.1522 100.77 37.9141C100.241 37.6759 99.8246 37.3708 99.5194 36.9987C99.2143 36.6192 99.0134 36.2247 98.9166 35.8154C98.7752 35.2052 98.7082 34.2972 98.7082 33.0991V27.3984H98.6934Z" fill="#034EA2"/>
<path d="M116.526 38.0902H114.479V34.1385C114.479 33.305 114.435 32.7617 114.345 32.5161C114.256 32.2705 114.115 32.077 113.921 31.9431C113.728 31.8091 113.489 31.7422 113.214 31.7422C112.857 31.7422 112.537 31.8389 112.254 32.0324C111.971 32.2259 111.778 32.4864 111.674 32.8064C111.569 33.1264 111.517 33.7217 111.517 34.585V38.0902H109.471V30.343H111.376V31.4817C112.053 30.6035 112.901 30.1719 113.928 30.1719C114.382 30.1719 114.792 30.2537 115.171 30.4175C115.543 30.5812 115.826 30.7896 116.02 31.0426C116.213 31.2956 116.347 31.5859 116.422 31.9059C116.496 32.2259 116.533 32.6873 116.533 33.2827V38.0977L116.526 38.0902Z" fill="#034EA2"/>
<path d="M118.6 27.3984H120.646V29.2962H118.6V27.3984ZM118.6 30.3381H120.646V38.0853H118.6V30.3381Z" fill="#034EA2"/>
<path d="M122.275 34.0945C122.275 33.4098 122.447 32.7549 122.781 32.1149C123.116 31.4749 123.593 30.9911 124.21 30.6563C124.828 30.3214 125.513 30.1502 126.272 30.1502C127.44 30.1502 128.4 30.5297 129.152 31.2888C129.904 32.0479 130.276 33.0079 130.276 34.1689C130.276 35.3299 129.896 36.3122 129.144 37.0788C128.385 37.8527 127.44 38.2323 126.287 38.2323C125.58 38.2323 124.902 38.0686 124.255 37.7485C123.608 37.4285 123.124 36.9597 122.789 36.3346C122.454 35.7169 122.283 34.9578 122.283 34.0722M124.381 34.2061C124.381 34.9727 124.56 35.5606 124.925 35.9699C125.289 36.3792 125.736 36.5801 126.272 36.5801C126.808 36.5801 127.254 36.3718 127.619 35.9699C127.983 35.5606 128.162 34.9652 128.162 34.1912C128.162 33.4173 127.983 32.8517 127.619 32.4423C127.254 32.033 126.808 31.8321 126.272 31.8321C125.736 31.8321 125.289 32.0405 124.925 32.4423C124.56 32.8517 124.381 33.4396 124.381 34.2061ZM125.237 29.3837L126.242 27.2031H128.542L126.532 29.3837H125.237Z" fill="#034EA2"/>
<path d="M138.916 38.0902H136.87V34.1385C136.87 33.305 136.825 32.7617 136.736 32.5161C136.647 32.2705 136.505 32.077 136.312 31.9431C136.118 31.8091 135.88 31.7422 135.605 31.7422C135.247 31.7422 134.927 31.8389 134.645 32.0324C134.362 32.2259 134.168 32.4864 134.064 32.8064C133.96 33.1264 133.908 33.7217 133.908 34.585V38.0902H131.861V30.343H133.766V31.4817C134.444 30.6035 135.292 30.1719 136.319 30.1719C136.773 30.1719 137.182 30.2537 137.562 30.4175C137.934 30.5812 138.217 30.7896 138.41 31.0426C138.604 31.2956 138.738 31.5859 138.812 31.9059C138.887 32.2259 138.924 32.6873 138.924 33.2827V38.0977L138.916 38.0902Z" fill="#034EA2"/>
<path d="M145.162 38.0853V27.3984H153.088V29.2069H147.32V31.5734H152.693V33.3744H147.32V36.2843H153.296V38.0853H145.162Z" fill="#034EA2"/>
<path d="M160.211 38.0831V36.9222C159.928 37.3315 159.556 37.6589 159.102 37.8971C158.641 38.1352 158.157 38.2543 157.644 38.2543C157.13 38.2543 156.654 38.1427 156.245 37.912C155.835 37.6813 155.53 37.3613 155.352 36.9519C155.165 36.5426 155.076 35.9696 155.076 35.2403V30.3434H157.123V33.9007C157.123 34.9872 157.16 35.657 157.234 35.9026C157.309 36.1482 157.45 36.3417 157.644 36.4831C157.845 36.6245 158.098 36.6989 158.403 36.6989C158.753 36.6989 159.065 36.6022 159.34 36.4087C159.616 36.2152 159.809 35.977 159.906 35.6942C160.01 35.4114 160.062 34.7119 160.062 33.603V30.3359H162.109V38.0831H160.204H160.211Z" fill="#034EA2"/>
<path d="M166.189 38.0902H164.143V30.343H166.048V31.4445C166.375 30.9235 166.665 30.5812 166.926 30.4175C167.186 30.2537 167.484 30.1719 167.812 30.1719C168.28 30.1719 168.727 30.2984 169.159 30.5589L168.526 32.345C168.184 32.1217 167.856 32.0101 167.566 32.0101C167.276 32.0101 167.038 32.0919 166.837 32.2482C166.636 32.4045 166.479 32.6947 166.368 33.1041C166.256 33.5208 166.197 34.3841 166.197 35.7013V38.0902H166.189Z" fill="#034EA2"/>
<path d="M169.57 34.1005C169.57 33.4233 169.741 32.761 170.076 32.121C170.411 31.4884 170.888 30.9972 171.505 30.6623C172.123 30.3274 172.808 30.1562 173.567 30.1562C174.735 30.1562 175.695 30.5358 176.447 31.2949C177.198 32.054 177.571 33.014 177.571 34.1824C177.571 35.3508 177.191 36.3257 176.439 37.0923C175.68 37.8588 174.735 38.2458 173.582 38.2458C172.875 38.2458 172.197 38.0821 171.55 37.762C170.902 37.442 170.419 36.9732 170.084 36.3481C169.749 35.7304 169.578 34.9713 169.578 34.0857M171.669 34.2122C171.669 34.9787 171.848 35.5666 172.212 35.976C172.577 36.3853 173.023 36.5862 173.559 36.5862C174.095 36.5862 174.542 36.3853 174.906 35.976C175.271 35.5666 175.45 34.9713 175.45 34.1973C175.45 33.4233 175.271 32.8577 174.906 32.4484C174.542 32.0391 174.095 31.8382 173.559 31.8382C173.023 31.8382 172.577 32.0391 172.212 32.4484C171.848 32.8577 171.669 33.4456 171.669 34.2122Z" fill="#034EA2"/>
<path d="M179.109 30.343H181.022V31.4817C181.268 31.0947 181.602 30.7747 182.027 30.5365C182.451 30.2909 182.92 30.1719 183.433 30.1719C184.334 30.1719 185.093 30.5217 185.725 31.2286C186.351 31.9356 186.663 32.918 186.663 34.1757C186.663 35.4334 186.351 36.4753 185.718 37.1897C185.085 37.9042 184.319 38.2688 183.418 38.2688C182.994 38.2688 182.6 38.187 182.257 38.0158C181.908 37.8447 181.543 37.5544 181.163 37.1377V41.0373H179.117V30.343H179.109ZM181.134 34.079C181.134 34.9497 181.305 35.5897 181.655 36.0065C181.997 36.4232 182.421 36.6316 182.92 36.6316C183.418 36.6316 183.79 36.4381 184.11 36.0586C184.423 35.679 184.587 35.0539 184.587 34.1832C184.587 33.372 184.423 32.7692 184.096 32.3747C183.768 31.9803 183.366 31.7868 182.883 31.7868C182.399 31.7868 181.967 31.9803 181.632 32.3673C181.305 32.7543 181.134 33.3273 181.134 34.0864" fill="#034EA2"/>
<path d="M192.774 35.6195L194.813 35.9618C194.553 36.7135 194.136 37.2791 193.57 37.6735C193.005 38.0679 192.298 38.2614 191.442 38.2614C190.095 38.2614 189.098 37.8223 188.45 36.9442C187.937 36.2372 187.684 35.3516 187.684 34.2725C187.684 32.9924 188.018 31.9803 188.688 31.2584C189.358 30.5291 190.206 30.1719 191.233 30.1719C192.387 30.1719 193.295 30.5514 193.965 31.3105C194.627 32.0696 194.947 33.238 194.917 34.8083H189.782C189.797 35.4185 189.961 35.8874 190.281 36.2297C190.601 36.5721 190.988 36.7358 191.464 36.7358C191.784 36.7358 192.052 36.6465 192.275 36.4753C192.491 36.2967 192.662 36.0213 192.774 35.6269M192.893 33.5506C192.878 32.9552 192.722 32.5087 192.432 32.1961C192.141 31.891 191.784 31.7347 191.367 31.7347C190.921 31.7347 190.549 31.8984 190.259 32.2259C189.968 32.5533 189.827 32.9924 189.827 33.5506H192.893Z" fill="#034EA2"/>
<path d="M198.127 32.7096L196.267 32.3747C196.475 31.6231 196.833 31.0724 197.346 30.7151C197.86 30.3579 198.619 30.1719 199.623 30.1719C200.539 30.1719 201.216 30.2835 201.662 30.4993C202.109 30.7151 202.422 30.9905 202.608 31.3254C202.786 31.6603 202.883 32.2705 202.883 33.1561L202.861 35.5451C202.861 36.2297 202.89 36.7283 202.957 37.0484C203.024 37.3684 203.143 37.7181 203.329 38.0902H201.305C201.253 37.9563 201.186 37.7554 201.112 37.4874C201.075 37.3684 201.052 37.2865 201.037 37.2493C200.688 37.5916 200.315 37.8447 199.914 38.0158C199.512 38.187 199.088 38.2689 198.634 38.2689C197.837 38.2689 197.205 38.053 196.751 37.6214C196.289 37.1898 196.059 36.639 196.059 35.9767C196.059 35.5376 196.163 35.1506 196.371 34.8083C196.58 34.466 196.87 34.2055 197.249 34.0194C197.629 33.8408 198.172 33.6771 198.879 33.5431C199.839 33.3645 200.502 33.1934 200.874 33.0371V32.8361C200.874 32.4417 200.777 32.1589 200.583 31.9952C200.39 31.824 200.025 31.7422 199.482 31.7422C199.117 31.7422 198.834 31.8166 198.626 31.958C198.418 32.0994 198.254 32.3524 198.127 32.7096ZM200.874 34.3692C200.613 34.4585 200.196 34.5627 199.623 34.6818C199.058 34.8008 198.686 34.9199 198.507 35.039C198.239 35.225 198.105 35.4706 198.105 35.7609C198.105 36.0511 198.209 36.2967 198.425 36.5051C198.641 36.7135 198.909 36.8176 199.244 36.8176C199.616 36.8176 199.966 36.6986 200.301 36.453C200.546 36.2669 200.71 36.0437 200.792 35.7758C200.844 35.6046 200.874 35.2697 200.874 34.7785V34.3692Z" fill="#034EA2"/>
</svg>
